<svg width="226" height="44" viewBox="0 0 226 44" fill="none" xmlns="http://www.w3.org/2000/svg">
<path fill-rule="evenodd" clip-rule="evenodd" d="M86.394 87.7438C102.174 88.5074 117.813 84.8756 126.701 78.3639L128.913 76.7517L132.641 77.3047C149 79.874 166.063 77.5473 196.984 68.3375C205.987 65.6408 212.165 66.1394 215.836 69.7385C216.949 70.8333 218.5 71.1708 218.608 70.3367C218.825 68.6685 213.861 64.0528 208.502 60.9127C204.183 58.3828 204.094 58.5412 210.233 57.779C215.131 57.1609 215.912 57.1604 220.842 58.3787C223.11 58.9451 220.653 55.4023 217.698 53.8642C205.115 47.3075 194.094 46.9934 160.919 52.415C154.921 53.3991 149.934 54.1754 149.801 54.1581C149.767 54.1537 159.542 26.4836 135.693 17.8504C106.529 7.30422 78.1669 32.3186 94.6555 53.9731C95.9616 55.6699 97.6073 57.8858 98.3285 58.8618C99.0455 59.8711 100.951 61.9173 102.558 63.3819C106.106 66.6256 106.108 66.3543 102.355 67.2911C85.8708 71.4234 75.2098 69.392 60.2365 59.301C33.1308 41.0153 17.5282 39.9352 6.13183 55.5529C2.04741 61.1288 1.29673 67.6814 5.28131 62.8729C7.29246 60.4542 12.4456 58.1387 17.1351 57.5613C20.2754 57.1556 20.3756 57.1686 19.2154 58.0016C15.6971 60.5296 15.609 70.5954 19.0931 69.8951C19.4774 69.8094 20.5042 68.959 21.3771 67.9868C26.0317 62.7226 34.2394 63.7904 45.066 71.0687C51.5878 75.4458 74.457 87.1748 86.394 87.7438ZM46.0821 68.9955C36.3061 62.77 31.8234 61.2365 25.3091 62.0177C20.8995 62.5297 21.5071 62.0322 27.8126 57.1184C28.3028 56.7411 28.3272 56.0318 27.9078 55.604C26.2638 53.8972 18.3146 53.7112 12.4518 55.2218C8.72855 56.1963 8.6328 56.1498 10.2438 54.4594C12.8409 51.7097 16.2027 49.6023 21.4751 48.4561C32.0244 46.1302 39.5392 48.8724 56.1243 59.6142C72.0477 69.9646 73.7103 70.486 79.9568 71.5023C88.8305 72.9282 99.885 72.1949 106.298 69.0596L108.114 68.1421C108.148 68.1464 123.478 75.2305 123.507 75.2682C123.565 75.3436 122.025 76.2288 120.071 77.1621C108.044 83.0279 97.178 84.3965 86.29 84.3711C73.8034 84.3752 52.1599 72.8738 46.0821 68.9955ZM126.895 72.1801C115.331 69.5222 103.192 62.684 100.652 57.4338C100.036 56.1662 100.107 56.1415 103.253 57.2632C108.501 59.1675 113.405 60.0766 121.197 60.6833C133.629 61.622 140.117 61.0411 167.008 56.4643C186.372 53.1477 195.674 52.3224 202.848 53.2557C208.987 54.0544 209.561 54.3326 206.262 54.9211C202.577 55.5954 201.36 56.0819 200.001 56.6176C197.497 57.615 199.422 59.7655 202.737 61.1468C205.373 62.2701 207.637 63.6502 206.631 63.5533C203.649 63.2671 197.927 64.2191 185.965 66.9719C155.911 73.9533 140.467 75.3031 126.895 72.1801ZM109.966 53.3865C109.037 48.0066 117.52 37.5741 126.439 33.1701C131.154 30.8317 138.039 31.1167 140.709 33.8052C142.569 35.6758 134.452 46.4271 126.568 52.5265C121.171 56.7103 121.665 56.5707 115.367 55.6836L110.238 54.9487L109.966 53.3865ZM102.851 53.3091C98.5177 51.931 97.5602 51.4669 96.1497 49.7905C90.1841 42.7035 97.1374 27.5938 109.727 20.2744C120.258 14.1799 138.994 18.0423 141.97 26.1993C142.419 27.4452 142.559 31.8405 142.125 31.7841C142.059 31.7754 141.135 31.3157 140.081 30.8055C126.506 24.0517 102.758 40.2 106.568 53.6905C106.806 54.468 106.401 54.4495 102.851 53.3091ZM129.059 55.8026C138.713 50.7137 145.579 38.8833 145.734 29.6068C145.754 28.9308 145.406 28.4786 145.472 28.4873C146.106 28.5698 147.298 34.7981 147.425 38.5129C147.733 48.6639 144.21 52.2771 142.143 54.8584C141.698 55.4112 126.067 57.4152 129.059 55.8026Z" fill="#E55733"/>
</svg>
