<svg width="47" height="41" viewBox="0 0 47 41" fill="none" xmlns="http://www.w3.org/2000/svg">
<path fill-rule="evenodd" clip-rule="evenodd" d="M14.1861 11.381C19.969 8.77119 25.8222 6.24183 32.2293 5.83739C33.8375 5.73579 38.2244 5.64879 37.9601 8.29009C37.7203 10.6846 34.1944 11.4729 32.3119 11.7061C26.2501 12.4566 20.2702 11.2049 14.1861 11.381Z" stroke="#F5BD33" stroke-width="1.67708" stroke-miterlimit="1.5" stroke-linecap="round" stroke-linejoin="round"/>
<path fill-rule="evenodd" clip-rule="evenodd" d="M7.33957 23.7814C13.8928 22.8429 21.1124 20.4542 27.5501 22.6293C29.2872 23.2164 33.6717 25.8067 32.0134 28.2762C30.3947 30.6867 27.4281 30.0783 25.0741 29.4786C20.7928 28.3882 16.7653 26.58 12.5709 25.2178C10.8564 24.661 9.027 24.4269 7.33957 23.7814Z" stroke="#F5BD33" stroke-width="1.67708" stroke-miterlimit="1.5" stroke-linecap="round" stroke-linejoin="round"/>
</svg>
