<svg width="19" height="19" viewBox="0 0 19 19" fill="none" xmlns="http://www.w3.org/2000/svg">
<path fill-rule="evenodd" clip-rule="evenodd" d="M12.0506 12.003C12.0709 12.6761 12.1852 14.5357 12.2478 15.2045C10.9604 15.556 9.96199 15.7054 8.7579 15.7943C8.70305 15.0675 8.44722 13.9024 8.36852 13.1775C8.04228 13.5972 7.20546 14.5286 6.88551 14.9531C5.88867 14.1228 4.86371 13.2472 3.971 12.3082C4.39479 11.8604 5.29377 10.8712 5.71598 10.4218C5.11137 10.4217 3.77155 10.2703 3.16851 10.222C3.1865 9.21589 3.14739 8.13918 3.29722 7.15063C4.24307 7.1372 5.92353 7.26189 6.86895 7.23575C6.87066 7.06606 6.57058 4.51117 6.5663 3.74443C7.64241 3.43791 8.76405 3.29211 9.87616 3.18298C9.90529 3.8523 10.041 5.20409 10.0668 5.87327C10.7285 5.38849 11.4893 4.62421 12.4934 3.6915C13.3867 4.65592 14.3893 5.50901 15.2623 6.49457C14.7361 7.0002 13.7876 8.25585 13.2819 8.78205C14.2694 8.9556 15.2772 9.12561 16.2783 9.19831C16.0887 10.2571 15.8772 11.3042 15.5757 12.3362C14.5386 12.2504 13.0103 12.0937 12.0506 12.003Z" fill="white" stroke="#2F2965" stroke-width="1.67708" stroke-miterlimit="1.5" stroke-linecap="round" stroke-linejoin="round"/>
</svg>
