<svg width="77" height="84" viewBox="0 0 77 84" fill="none" xmlns="http://www.w3.org/2000/svg">
<path fill-rule="evenodd" clip-rule="evenodd" d="M15.5659 43.2861C13.8221 40.5267 11.4749 37.6958 8.31797 36.5187C7.31576 39.9895 4.98386 44.0158 4.59157 47.565C4.54623 47.9739 7.57876 47.3918 7.71629 47.3532C10.7339 46.5083 13.5484 45.2945 16.3903 43.9959" fill="#F5BD33"/>
<path d="M15.5659 43.2861C13.8221 40.5267 11.4749 37.6958 8.31797 36.5187C7.31576 39.9895 4.98386 44.0158 4.59157 47.565C4.54623 47.9739 7.57876 47.3918 7.71629 47.3532C10.7339 46.5083 13.5484 45.2945 16.3903 43.9959" stroke="#F5BD33" stroke-width="1.67708" stroke-miterlimit="1.5" stroke-linecap="round" stroke-linejoin="round"/>
<path d="M11.3481 40.3401C18.9119 29.1151 33.342 21.8127 46.4186 26.8012C49.7787 28.083 53.9053 29.6678 55.8683 32.9162C56.981 34.7578 57.6549 37.6256 56.5492 39.5866C54.4837 43.2498 48.9865 42.3063 47.3726 38.5883C46.5586 36.7131 46.7679 33.3383 47.7276 31.5374C48.4094 30.2571 49.3652 29.0842 50.6751 28.3892C61.7928 22.4906 77.985 30.5491 82.5576 41.7787" stroke="#F5BD33" stroke-width="1.67708" stroke-miterlimit="1.5" stroke-linecap="round" stroke-linejoin="round"/>
</svg>
