<svg width="36" height="20" viewBox="0 0 36 20" fill="none" xmlns="http://www.w3.org/2000/svg">
<path d="M24.4369 14.6624C23.3922 14.6094 22.223 14.7243 21.2171 14.4547C16.4906 14.141 17.0771 11.6113 17.4137 10.6962C17.9646 9.19828 19.8826 7.90899 21.1966 7.19701C23.198 6.1125 25.8356 5.56378 28.0283 6.42046C28.8872 6.75603 29.6083 6.98963 30.323 7.61101C30.9691 8.17271 31.8359 8.85767 32.191 9.6533C32.873 11.1813 31.8105 12.7307 30.5786 13.5223C29.6821 14.0985 28.8139 14.4946 27.7213 14.5301C26.6327 14.5654 25.5211 14.7174 24.4369 14.6624Z" fill="#939878"/>
<path d="M19.221 2.24721C17.6019 2.61309 15.6515 1.64988 14.5369 0.515684C14.0217 0.377645 13.675 -0.517224 13.4917 -2.05385C13.3845 -2.95327 14.4643 -4.22404 15.0644 -4.76229C15.9903 -5.5927 17.6279 -6.19419 18.8443 -6.42273C20.6296 -6.75816 22.798 -5.87651 24.4233 -5.2653C26.0637 -4.64844 26.9641 -3.42585 26.0632 -1.8284C25.0744 -0.075084 23.298 0.60042 21.5548 1.39034C20.7939 1.73513 20.039 2.06233 19.221 2.24721Z" fill="#939878"/>
<path d="M5.56988 13.1135C5.13344 13.0347 4.65508 12.9227 4.20639 12.7851C2.45224 12.2781 2.54947 11.8641 2.1099 11.3328C1.67429 10.8063 1.53031 10.6808 1.60508 10.0065C1.68304 9.3033 1.60241 8.73691 1.80259 8.03459C2.03544 7.2177 2.70401 6.31385 3.31882 5.73451C4.85374 4.28814 6.44218 3.51248 8.33636 2.66542C9.63225 2.08591 11.1871 2.45795 12.3082 3.32604C12.9794 3.84573 13.6473 4.52263 14.1776 5.19006C14.9027 6.10253 14.4624 7.34462 14.0492 8.31194C13.329 9.99792 11.9833 11.1299 10.3238 11.8927C8.79903 12.5935 7.29807 13.4256 5.56988 13.1135Z" fill="#939878"/>
</svg>
