<svg width="24" height="25" viewBox="0 0 24 25" fill="none" xmlns="http://www.w3.org/2000/svg">
<path fill-rule="evenodd" clip-rule="evenodd" d="M21.5391 13.7218C22.045 11.2308 20.5198 4.40128 13.3718 2.69097C11.6232 2.27256 10.7066 5.25701 9.63684 6.68995C6.47181 5.60054 4.2859 7.34587 3.82635 9.72307C2.87872 14.6255 6.94656 20.3328 11.5063 21.3233C13.3546 21.7247 15.8245 21.8147 17.0283 19.1896C17.9081 17.271 17.1621 16.6466 17.1452 15.9266C18.5564 15.1081 20.0765 14.4482 21.5391 13.7218Z" stroke="#2F2965" stroke-width="1.67708" stroke-miterlimit="1.5" stroke-linecap="round" stroke-linejoin="round"/>
<path d="M9.74923 6.55803C9.03577 7.46928 8.36007 8.43843 7.75031 9.42255" stroke="#2F2965" stroke-width="1.67708" stroke-miterlimit="1.5" stroke-linecap="round" stroke-linejoin="round"/>
<path d="M17.159 15.931C16.1108 16.3799 15.0068 16.7032 13.9578 17.1541" stroke="#2F2965" stroke-width="1.67708" stroke-miterlimit="1.5" stroke-linecap="round" stroke-linejoin="round"/>
<path d="M1.77011 19.9904C3.12807 19.1526 4.34234 18.0028 5.628 17.0489" stroke="#2F2965" stroke-width="1.67708" stroke-miterlimit="1.5" stroke-linecap="round" stroke-linejoin="round"/>
<path d="M12.85 3.14524C12.477 4.08012 12.5969 5.1233 12.8058 6.07965C13.3364 8.50681 15.0388 11.1451 17.3738 12.2094" stroke="#2F2965" stroke-width="1.67708" stroke-miterlimit="1.5" stroke-linecap="round" stroke-linejoin="round"/>
</svg>
