<svg width="44" height="42" viewBox="0 0 44 42" fill="none" xmlns="http://www.w3.org/2000/svg">
<path d="M11.5898 40.6123C9.08632 38.4946 6.02881 37.0976 3.55254 34.9758C3.13257 34.6162 1.50408 33.7855 1.36037 33.2118M1.36037 33.2118C1.17421 32.4668 2.98811 31.5159 3.4051 31.2821C5.50756 30.1033 9.19275 28.0815 11.615 27.0496M1.36037 33.2118C10.1467 34.8412 23.3406 29.7979 24.2613 21.7251M24.2613 21.7251C24.505 19.5878 23.8885 17.2382 22.1022 14.7438C18.7246 10.0277 12.8564 15.0923 15.8536 19.5069C17.5086 21.944 21.241 22.1633 24.2613 21.7251ZM24.2613 21.7251C25.1288 21.5993 25.9375 21.4191 26.6214 21.2218C35.1001 18.7745 41.9958 9.6945 42.8789 1.08508" stroke="#00FFA3" stroke-width="1.67708" stroke-miterlimit="1.5" stroke-linecap="round" stroke-linejoin="round"/>
</svg>
