<svg width="37" height="33" viewBox="0 0 37 33" fill="none" xmlns="http://www.w3.org/2000/svg">
<path fill-rule="evenodd" clip-rule="evenodd" d="M17.7734 27.0791C20.016 24.7971 22.2071 22.418 24.358 20.052C22.5924 19.8843 20.9271 19.9873 19.1595 20.1525C19.1278 18.6095 18.5698 16.257 17.9905 14.834C16.0792 15.3391 14.5624 15.9383 12.8045 16.759C12.2347 15.3119 11.5572 14.0452 10.6422 12.78C9.57662 15.584 8.70338 18.4406 7.98889 21.3532C9.34376 21.9925 10.6643 22.2869 11.987 22.9994C14.2602 24.2236 15.8036 25.3837 17.7734 27.0791Z" fill="white" stroke="#2F2965" stroke-width="1.67708" stroke-miterlimit="1.5" stroke-linecap="round" stroke-linejoin="round"/>
<path d="M5.65356 8.39304C6.17953 9.02899 6.68413 9.68602 7.22256 10.3112" stroke="#2F2965" stroke-width="1.67708" stroke-miterlimit="1.5" stroke-linecap="round" stroke-linejoin="round"/>
<path d="M16.4929 4.65057C16.3452 5.55568 16.2683 6.4697 16.1339 7.37621" stroke="#2F2965" stroke-width="1.67708" stroke-miterlimit="1.5" stroke-linecap="round" stroke-linejoin="round"/>
<path d="M24.1321 11.8911C25.2278 11.2915 26.2592 10.5826 27.3531 9.98049" stroke="#2F2965" stroke-width="1.67708" stroke-miterlimit="1.5" stroke-linecap="round" stroke-linejoin="round"/>
<path d="M28.7604 22.6271C29.9901 22.7575 31.2395 22.9091 32.4771 22.9291" stroke="#2F2965" stroke-width="1.67708" stroke-miterlimit="1.5" stroke-linecap="round" stroke-linejoin="round"/>
</svg>
