<svg width="190" height="190" viewBox="0 0 190 190" fill="none" xmlns="http://www.w3.org/2000/svg">
<circle cx="95" cy="95" r="95" fill="url(#paint0_linear_264_685)"/>
<path d="M101.601 146.736C101.91 146.736 102.218 146.711 102.522 146.66C103.832 146.465 105.147 146.723 106.456 146.79C107.091 146.791 107.725 146.756 108.357 146.686C108.855 146.658 109.327 146.7 109.748 146.341C109.87 146.245 109.964 146.115 110.017 145.966C110.07 145.817 110.081 145.655 110.048 145.5C109.923 145.064 109.419 144.905 108.99 144.814L105.847 144.142C105.424 144.05 104.604 143.866 104.509 143.323C104.516 142.992 104.558 142.664 104.634 142.342C104.664 141.999 104.687 141.652 104.701 141.309C104.728 140.683 104.921 140.072 104.159 140.029L101.714 139.891C101.637 139.88 101.559 139.889 101.486 139.918C101.43 139.958 101.384 140.01 101.349 140.07C101.315 140.131 101.293 140.198 101.286 140.268L100.952 141.664C100.779 142.387 100.606 143.111 100.496 143.848C100.418 144.371 100.427 144.899 100.378 145.424C100.348 145.746 100.265 146.068 100.493 146.335C100.642 146.477 100.817 146.585 101.007 146.654C101.198 146.723 101.4 146.75 101.601 146.736Z" fill="#121632"/>
<path d="M107.685 149.574C107.697 149.67 107.731 149.763 107.783 149.845C107.835 149.926 107.905 149.994 107.986 150.043C108.39 150.164 108.807 150.233 109.227 150.247C109.814 150.368 110.414 150.408 111.011 150.367C111.455 150.327 111.89 150.222 112.334 150.203C113.598 150.149 114.889 150.65 116.137 150.279C116.568 150.151 117.295 149.865 117.425 149.355C117.595 148.685 117.02 148.264 116.486 148.11C115.796 147.917 115.085 147.814 114.37 147.802C114.081 147.808 113.792 147.785 113.507 147.731C113.353 147.704 113.207 147.642 113.079 147.551C112.95 147.459 112.842 147.34 112.763 147.201C112.683 147.062 112.633 146.907 112.617 146.746C112.602 146.585 112.619 146.423 112.67 146.27C112.885 145.35 113.09 144.43 113.3 143.51C111.828 143.379 110.346 143.479 108.904 143.808C108.822 143.802 108.742 143.831 108.68 143.887C108.618 143.943 108.58 144.022 108.575 144.107C108.343 145.11 108.462 146.055 108.136 147.017C107.977 147.48 107.531 148.82 107.685 149.574Z" fill="#121632"/>
<path d="M67.0951 92.083C67.3813 91.9927 67.6721 91.9189 67.9662 91.8621C68.4589 91.7339 68.902 91.4527 69.2361 91.0562C69.4699 90.7857 69.7498 90.5622 70.0619 90.397C71.0854 89.9415 71.6013 90.8639 71.2252 91.777C70.9562 92.5339 70.4442 93.1721 69.7751 93.5845C69.0203 93.9796 68.2437 94.0049 67.5635 94.5657C67.3908 94.7083 65.5886 96.2779 65.6636 96.3745C65.3257 95.9398 64.594 94.9944 64.6344 94.4061C65.113 94.2375 65.5168 93.8956 65.7715 93.4432C66.012 92.9818 66.3429 92.5775 66.743 92.2564C66.8538 92.1853 66.9719 92.1271 67.0951 92.083Z" fill="white" stroke="#121632" stroke-miterlimit="10"/>
<path d="M51.8473 115.977H51.0698V133.742H51.8473V115.977Z" fill="#121632"/>
<path d="M44.6621 137.469C44.6621 134.847 49.1421 133.746 51.3808 133.743C54.0448 133.738 58.0995 134.755 58.0995 137.469" stroke="#121632" stroke-width="2" stroke-miterlimit="10"/>
<path d="M51.457 138.171V133.814" stroke="#121632" stroke-width="2" stroke-miterlimit="10"/>
<path d="M59.1977 138.103C59.1977 138.328 59.1333 138.549 59.0125 138.736C58.8917 138.923 58.72 139.069 58.5191 139.155C58.3182 139.242 58.0972 139.264 57.8839 139.22C57.6707 139.176 57.4748 139.068 57.321 138.909C57.1673 138.749 57.0626 138.546 57.0201 138.325C56.9777 138.104 56.9995 137.875 57.0827 137.667C57.1659 137.459 57.3068 137.281 57.4876 137.156C57.6684 137.031 57.8809 136.964 58.0984 136.964C58.2428 136.964 58.3858 136.993 58.5192 137.051C58.6526 137.108 58.7738 137.192 58.8759 137.298C58.978 137.403 59.0589 137.529 59.1142 137.667C59.1694 137.805 59.1978 137.954 59.1977 138.103Z" fill="#121632"/>
<path d="M52.5366 138.103C52.5366 138.328 52.4721 138.549 52.3513 138.736C52.2305 138.923 52.0588 139.069 51.858 139.155C51.6571 139.242 51.436 139.264 51.2228 139.22C51.0095 139.176 50.8136 139.068 50.6599 138.909C50.5061 138.749 50.4014 138.546 50.359 138.325C50.3166 138.104 50.3384 137.875 50.4216 137.667C50.5048 137.459 50.6457 137.281 50.8265 137.156C51.0073 137.031 51.2198 136.964 51.4373 136.964C51.5816 136.964 51.7246 136.993 51.858 137.051C51.9914 137.108 52.1126 137.192 52.2147 137.298C52.3168 137.403 52.3978 137.529 52.453 137.667C52.5083 137.805 52.5367 137.954 52.5366 138.103Z" fill="#121632"/>
<path d="M45.8725 138.103C45.8725 138.328 45.8081 138.549 45.6873 138.736C45.5665 138.923 45.3948 139.069 45.1939 139.155C44.993 139.242 44.772 139.264 44.5587 139.22C44.3455 139.176 44.1496 139.068 43.9958 138.909C43.8421 138.749 43.7374 138.546 43.695 138.325C43.6525 138.104 43.6743 137.875 43.7575 137.667C43.8407 137.459 43.9816 137.281 44.1624 137.156C44.3432 137.031 44.5558 136.964 44.7732 136.964C44.9176 136.964 45.0606 136.993 45.194 137.051C45.3274 137.108 45.4486 137.192 45.5507 137.298C45.6528 137.403 45.7337 137.529 45.789 137.667C45.8442 137.805 45.8726 137.954 45.8725 138.103Z" fill="#121632"/>
<path d="M50.703 110.015V96.9445C50.703 95.8587 50.2867 94.8173 49.5456 94.0495C48.8046 93.2817 47.7994 92.8503 46.7514 92.8503H42.3979C41.3499 92.8503 40.3448 93.2817 39.6037 94.0495C38.8626 94.8173 38.4463 95.8587 38.4463 96.9445V111.557C38.4506 113.112 39.0487 114.602 40.1099 115.701C41.1712 116.801 42.6092 117.42 44.11 117.425H58.3026C58.4793 117.425 58.6487 117.352 58.7736 117.223C58.8985 117.093 58.9686 116.918 58.9686 116.735C58.9686 116.552 58.8985 116.376 58.7736 116.247C58.6487 116.117 58.4793 116.045 58.3026 116.045H56.5266C55.762 116.045 55.0048 115.89 54.2983 115.587C53.5917 115.284 52.9497 114.84 52.4088 114.28C51.868 113.72 51.439 113.055 51.1463 112.324C50.8536 111.592 50.703 110.807 50.703 110.015Z" fill="white" stroke="#121632" stroke-miterlimit="10"/>
<path d="M78.2263 134.471C78.3297 134.667 78.4429 134.858 78.5655 135.042C78.7894 135.361 79.0854 135.619 79.4277 135.793C79.7699 135.966 80.148 136.051 80.5289 136.038C81.2904 135.934 82.0358 135.654 82.8031 135.693C83.0885 135.687 83.3663 135.789 83.5854 135.978C84.4734 136.873 82.3595 137.673 81.7779 137.854L77.8111 139.086C77.5686 139.183 77.3075 139.219 77.0488 139.192C76.8211 139.155 76.61 139.046 76.4445 138.88C76.279 138.714 76.1672 138.499 76.1244 138.264C75.9343 137.666 75.7065 137.088 75.477 136.495C75.1065 135.538 74.8131 134.552 74.5996 133.545C74.5198 133.268 74.5077 132.975 74.5646 132.692C74.6289 132.485 74.7524 132.302 74.9189 132.169C75.0854 132.036 75.2869 131.958 75.497 131.946C75.6791 131.956 75.8588 131.994 76.0298 132.06C77.2512 132.46 77.6313 133.364 78.2263 134.471Z" fill="white" stroke="#121632" stroke-miterlimit="10"/>
<path d="M70.7084 113.446C70.7468 112.538 70.6141 111.632 70.3177 110.778C70.0904 110.104 69.724 109.49 69.2443 108.978C68.7645 108.465 68.1828 108.068 67.5396 107.812C66.7924 107.588 66.0174 107.48 65.2396 107.49L55.1754 107.122C52.2574 107.016 48.8851 109.466 48.9744 112.785C49.0294 114.837 50.381 116.971 52.5171 117.037C52.5642 117.037 52.6103 117.033 52.6574 117.034L62.2186 117.088C64.4582 117.101 67.3797 118.063 69.4031 116.783C69.6911 116.613 69.9418 116.382 70.1392 116.106C70.3431 115.765 70.4775 115.384 70.5339 114.987C70.6326 114.479 70.691 113.964 70.7084 113.446Z" fill="#121632"/>
<path d="M57.6073 112.314C60.6843 114.047 55.0095 117.027 52.0528 117.037L46.9126 117.046C43.9378 117.046 41.6289 115.5 41.5361 112.459V103.259L52.9293 103.287C52.9293 103.287 54.264 110.431 57.6073 112.314Z" fill="#121632"/>
<path d="M68.7418 113.746C66.3504 112.094 56.6978 109.668 55.3826 109.131C52.7653 108.041 49.9245 107.654 47.1241 108.006C44.7633 108.328 42.288 108.742 41.7019 111.502C41.45 112.688 41.6632 113.93 42.2949 114.954C42.9265 115.978 43.9248 116.7 45.0702 116.961C45.1243 116.974 45.178 116.979 45.2318 116.992L67.4023 121.527C67.4511 121.541 67.4986 121.558 67.5488 121.569C67.6661 121.596 67.7847 121.616 67.904 121.631C68.7104 121.753 69.5312 121.544 70.1905 121.048C70.8498 120.551 71.2952 119.807 71.4312 118.974C71.8539 116.991 70.7603 115.14 68.7418 113.746Z" fill="#121632"/>
<path d="M65.7577 135.559C65.7319 135.905 65.7808 136.253 65.9008 136.578C66.0207 136.902 66.2087 137.195 66.4512 137.435C67.3219 138.292 68.6712 138.414 69.6077 139.193C69.6962 139.259 69.7686 139.345 69.819 139.445C69.853 139.548 69.8563 139.66 69.8285 139.766C69.8008 139.872 69.7432 139.967 69.6632 140.039C68.8413 140.852 66.9547 140.055 65.9957 139.879L62.3797 139.211C62.3034 139.197 62.2305 139.168 62.1654 139.125C62.1002 139.081 62.0441 139.025 62.0005 138.959C61.9568 138.892 61.9265 138.818 61.9112 138.739C61.896 138.661 61.8961 138.58 61.9117 138.501L62.6061 134.941L62.7051 134.414C62.7441 134.206 62.8226 134.009 62.9361 133.833C63.0497 133.658 63.1959 133.508 63.3663 133.391C63.5366 133.275 63.7277 133.195 63.9282 133.157C64.1287 133.118 64.3347 133.121 64.534 133.166C64.889 133.257 65.2036 133.47 65.4266 133.77C65.6495 134.071 65.7675 134.44 65.7612 134.819C65.7612 135.077 65.7546 135.323 65.7577 135.559Z" fill="white" stroke="#121632" stroke-miterlimit="10"/>
<path d="M46.7124 86.3258C46.6174 85.81 53.2454 89.0887 53.1507 88.5734C53.513 90.8082 53.8591 93.0458 54.1892 95.2861C54.5 97.4022 54.7033 99.5482 55.3591 101.588C55.5749 102.278 55.9004 103.502 56.6543 103.782C57.6107 104.137 58.2421 103.989 59.2038 103.999C59.6169 104.023 60.0312 103.989 60.4355 103.897C61.5499 103.589 62.2652 102.478 62.754 101.395C63.1996 100.281 63.937 99.3173 64.8831 98.6139C65.6071 98.0649 66.3036 97.4798 66.9725 96.8584C67.2185 96.6284 67.8375 96.2218 67.9516 95.9034C68.0803 95.5437 67.869 95.4163 67.6186 95.1517C66.8127 94.3016 65.922 93.5246 65.1637 92.6276L62.9077 94.7897L61.3021 96.3294C61.0446 96.576 59.6291 97.559 59.6491 97.8015C59.5797 96.0449 59.2877 94.3053 58.7806 92.6276C58.7049 92.4415 58.6514 92.2466 58.6212 92.0471C58.6119 91.7793 58.6419 91.5115 58.71 91.2531C58.9675 89.8591 58.7898 88.4163 58.2025 87.134C57.9645 86.5217 57.5951 85.9735 57.1223 85.5309C56.6495 85.0883 56.0858 84.763 55.4737 84.5795C54.6704 84.2797 53.844 84.0515 53.0033 83.8973C52.8616 83.8757 52.6702 83.8913 52.6383 84.0353C52.6319 84.0932 51.9965 84.2069 52.6569 84.2069H49.0107L46.7124 86.3258Z" fill="white"/>
<path d="M54.0298 92.358L54.1714 92.3332M53.8921 92.3819L53.9405 92.3737M46.7124 86.3258C46.6174 85.81 53.2454 89.0887 53.1507 88.5734C53.513 90.8082 53.8591 93.0458 54.1892 95.2861C54.5 97.4022 54.7033 99.5482 55.3591 101.588C55.5749 102.278 55.9004 103.502 56.6543 103.782C57.6107 104.137 58.2421 103.989 59.2038 103.999C59.6169 104.023 60.0312 103.989 60.4355 103.897C61.5499 103.589 62.2652 102.478 62.754 101.395C63.1996 100.281 63.937 99.3173 64.8831 98.6139C65.6071 98.0649 66.3036 97.4798 66.9725 96.8584C67.2185 96.6284 67.8375 96.2218 67.9516 95.9034C68.0803 95.5437 67.869 95.4163 67.6186 95.1517C66.8127 94.3016 65.922 93.5246 65.1637 92.6276L62.9077 94.7897L61.3021 96.3294C61.0446 96.576 59.6291 97.559 59.6491 97.8015C59.5797 96.0449 59.2877 94.3053 58.7806 92.6276C58.7049 92.4415 58.6514 92.2466 58.6212 92.0471C58.6119 91.7793 58.6419 91.5115 58.71 91.2531C58.9675 89.8591 58.7898 88.4163 58.2025 87.134C57.9645 86.5217 57.5951 85.9735 57.1223 85.5309C56.6495 85.0883 56.0858 84.763 55.4737 84.5795C54.6704 84.2797 53.844 84.0515 53.0033 83.8973C52.8616 83.8757 52.6702 83.8913 52.6383 84.0353C52.6319 84.0932 51.9965 84.2069 52.6569 84.2069H49.0107L46.7124 86.3258Z" stroke="#121632" stroke-miterlimit="10"/>
<path d="M78.5649 133.555C76.6139 129.366 75.2144 124.979 73.707 120.604C72.9855 118.509 72.2418 116.356 70.9125 114.578C70.2971 113.754 69.7354 113.117 68.7169 112.89C67.7907 112.722 66.8404 112.763 65.9307 113.009C65.4259 113.128 64.9752 113.404 64.4762 113.52C63.8022 113.677 62.7601 113.51 62.4928 114.389C62.4007 114.794 62.4145 115.218 62.5328 115.616C62.6824 116.282 62.8862 116.934 63.1419 117.564C63.4705 118.375 63.8848 119.15 64.1605 119.982C64.3709 120.615 64.4993 121.278 64.7439 121.898C65.1478 122.895 65.8136 123.754 66.6656 124.377C67.2138 124.698 67.7058 125.112 68.1206 125.602C68.3207 125.986 68.47 126.397 68.5646 126.822C68.9717 127.936 69.4384 129.128 70.4116 129.761C70.6847 129.898 70.9343 130.08 71.1505 130.301C71.2711 130.475 71.3626 130.67 71.4213 130.876C71.6038 131.494 71.8818 132.079 72.2445 132.605C72.593 133.065 73.0539 133.412 73.4073 133.864C73.7059 134.354 73.9484 134.879 74.1302 135.428C74.2039 135.585 78.5915 133.613 78.5649 133.555Z" fill="#121632"/>
<path d="M49.248 83.9377L47.5164 84.1218C45.68 84.3177 43.7304 84.5602 42.2944 85.7622C41.4221 86.5066 40.7463 87.4683 40.3305 88.5571C39.9148 89.646 39.7726 90.8264 39.9172 91.9877C40.1206 93.2247 40.4976 94.4313 40.6277 95.6817C41.0592 99.8455 41.3751 104.02 41.5752 108.204C43.5288 108.112 45.4824 108.094 47.436 107.988C49.8305 107.858 52.5274 107.748 54.8243 106.848C55.0907 103.398 55.9956 99.9907 55.9441 96.5276L55.8681 91.4508" fill="white"/>
<path d="M49.248 83.9377L47.5164 84.1218C45.68 84.3177 43.7304 84.5602 42.2944 85.7622C41.4221 86.5066 40.7463 87.4683 40.3305 88.5571C39.9148 89.646 39.7726 90.8264 39.9172 91.9877C40.1206 93.2247 40.4976 94.4313 40.6277 95.6817C41.0592 99.8455 41.3751 104.02 41.5752 108.204C43.5288 108.112 45.4824 108.094 47.436 107.988C49.8305 107.858 52.5274 107.748 54.8243 106.848C55.0907 103.398 55.9956 99.9907 55.9441 96.5276L55.8681 91.4508" stroke="#121632" stroke-miterlimit="10"/>
<path d="M70.2032 124.413C70.2485 124.314 70.2929 124.214 70.3364 124.113C70.4207 123.912 70.4893 123.704 70.5415 123.491C71.1716 121.015 72.0067 118.331 71.7465 115.659C71.5205 113.325 71.5392 110.356 69.3489 108.935C67.5285 107.755 64.9977 106.984 63.4228 108.94C63.0962 109.358 62.8598 109.843 62.7292 110.363C61.7671 113.986 63.3753 117.108 62.9135 120.5C62.7506 121.346 62.7287 122.215 62.8487 123.068C62.9042 123.348 62.9903 123.62 63.0263 123.906C63.057 124.609 62.9531 125.311 62.7208 125.972C62.51 126.687 62.4069 127.43 62.4153 128.177C62.4477 128.942 62.6693 129.691 62.6773 130.457C62.6642 131.019 62.5931 131.578 62.4651 132.125C62.3248 132.835 61.6552 134.272 62.5463 134.563C63.0933 134.742 63.7291 134.706 64.2953 134.859C64.4813 134.909 65.8528 135.273 66.5561 135.523C66.6042 135.539 66.6552 135.544 66.7054 135.537C66.7555 135.53 66.8036 135.512 66.8461 135.484C66.8886 135.455 66.9245 135.418 66.9511 135.373C66.9777 135.328 66.9945 135.278 67.0001 135.226C67.1284 134.219 67.5955 133.16 67.8508 132.21C68.1889 130.953 68.5031 129.691 68.7935 128.423C68.9329 127.814 69.067 127.203 69.2539 126.607C69.5248 125.856 69.8419 125.123 70.2032 124.413Z" fill="#121632"/>
<path d="M53.7426 79.1279L53.0544 74.8037L50.3646 75.4519C49.5451 75.6495 48.835 76.1763 48.3903 76.9164C47.9457 77.6565 47.803 78.5493 47.9937 79.3984L48.2308 80.4565C48.3237 80.8689 48.5022 81.2553 48.7538 81.589L48.213 84.2112C48.1481 84.5036 48.1412 84.8067 48.1926 85.102C48.2441 85.3973 48.3529 85.6787 48.5123 85.9292C48.6718 86.1797 48.8787 86.394 49.1205 86.5592C49.3622 86.7245 49.6338 86.8372 49.9189 86.8905C50.2039 86.9438 50.4964 86.9366 50.7787 86.8694C51.0609 86.8022 51.3271 86.6763 51.561 86.4994C51.795 86.3225 51.9919 86.0982 52.1397 85.8402C52.2876 85.5822 52.3834 85.2958 52.4213 84.9983L52.8489 82.0003C53.2353 81.6506 53.5226 81.1985 53.6801 80.6925C53.8375 80.1865 53.8592 79.6457 53.7426 79.1279Z" fill="white" stroke="#121632" stroke-miterlimit="10"/>
<path d="M54.4677 102.01C55.6329 102.32 56.7474 102.807 57.7751 103.455C58.7399 103.992 58.9295 104.98 57.6454 105.22C56.9551 105.397 56.2379 105.434 55.5342 105.327C54.8069 105.165 54.5982 104.729 54.1298 104.244C53.7302 103.83 53.0526 104.033 52.4754 103.772C52.359 103.732 52.2517 103.667 52.1601 103.583C52.0685 103.498 51.9945 103.395 51.9426 103.28C51.8889 103.035 51.9203 102.778 52.0314 102.555C52.0968 102.34 52.2086 102.144 52.3582 101.981C52.5334 101.854 52.7353 101.772 52.9474 101.741C53.1594 101.711 53.3754 101.733 53.5774 101.807C53.8718 101.878 54.1697 101.943 54.4677 102.01Z" fill="white" stroke="#121632" stroke-miterlimit="10"/>
<path d="M53.2015 75.5198C52.7493 75.8769 52.2195 76.1138 51.6586 76.2098C51.1399 76.2573 50.6251 76.3412 50.1174 76.461C48.7805 76.8994 48.963 78.4276 49.0767 79.5965C49.1175 80.0082 48.7596 81.3933 48.2073 81.1735C47.8454 81.1735 47.7855 80.6145 47.7011 80.3739C47.5373 79.9098 47.353 79.4539 47.1794 78.9911C47.0356 78.6795 46.9611 78.3383 46.9614 77.9929C46.9987 77.4919 47.3437 77.0701 47.4467 76.5792C47.5253 76.2011 47.4565 75.8045 47.5164 75.4232C47.5632 75.1656 47.6604 74.9206 47.8021 74.7035C47.9437 74.4863 48.1268 74.3015 48.3401 74.1604C48.9666 73.7331 49.7067 73.9 50.3381 73.5412C50.6613 73.3053 50.9688 73.0471 51.2585 72.7684C51.4991 72.5872 51.7727 72.4584 52.0627 72.3899C52.3527 72.3213 52.6531 72.3144 52.9457 72.3696C53.1971 72.4066 53.4354 72.5087 53.6386 72.6665C53.8418 72.8242 54.0033 73.0325 54.1081 73.2721C54.1749 73.5041 54.1927 73.7482 54.1604 73.9879C54.1281 74.2276 54.0463 74.4573 53.9208 74.6614C53.7387 74.9944 53.4942 75.2863 53.2015 75.5198Z" fill="#121632"/>
<path d="M49.6408 79.0774C49.6813 79.2557 49.6697 79.4425 49.6077 79.6141C49.5456 79.7856 49.4359 79.9343 49.2923 80.0412C49.1487 80.1481 48.9777 80.2085 48.8009 80.2147C48.6242 80.2208 48.4497 80.1726 48.2994 80.076C48.1492 79.9794 48.03 79.8388 47.9569 79.6719C47.8838 79.5051 47.8601 79.3196 47.8888 79.1388C47.9175 78.958 47.9974 78.7901 48.1182 78.6564C48.239 78.5226 48.3955 78.429 48.5677 78.3873C48.7983 78.3315 49.0409 78.3728 49.2421 78.5022C49.4434 78.6316 49.5868 78.8385 49.6408 79.0774Z" fill="white"/>
<path d="M39.9183 90.0208C39.7034 91.9018 39.6652 93.8044 39.5582 95.6988C39.3974 97.7672 39.579 99.8489 40.095 101.854C40.2431 102.49 40.5202 103.086 40.9079 103.602C42.3954 105.396 46.0624 104.66 48.0831 104.66H53.079C53.1039 104.58 53.1234 104.498 53.1501 104.418C53.2833 103.709 53.725 102.031 53.8467 101.318L50.6774 101.05L47.9401 100.82C47.2066 100.758 46.0886 100.934 45.9647 99.9273C45.9687 99.5711 45.9252 99.216 45.8355 98.872C45.6344 98.3844 45.0692 98.1135 44.9369 97.6014C44.9057 97.1826 44.9372 96.7614 45.0301 96.3525C45.1129 95.7763 45.2898 95.2189 45.5531 94.7042C45.9352 93.79 46.2135 92.8329 46.3825 91.8521L46.2236 91.8415" fill="white"/>
<path d="M39.9183 90.0208C39.7034 91.9018 39.6652 93.8044 39.5582 95.6988C39.3974 97.7672 39.579 99.8489 40.095 101.854C40.2431 102.49 40.5202 103.086 40.9079 103.602C42.3954 105.396 46.0624 104.66 48.0831 104.66H53.079C53.1039 104.58 53.1234 104.498 53.1501 104.418C53.2833 103.709 53.725 102.031 53.8467 101.318L50.6774 101.05L47.9401 100.82C47.2066 100.758 46.0886 100.934 45.9647 99.9273C45.9687 99.5711 45.9252 99.216 45.8355 98.872C45.6344 98.3844 45.0692 98.1135 44.9369 97.6014C44.9057 97.1826 44.9372 96.7614 45.0301 96.3525C45.1129 95.7763 45.2898 95.2189 45.5531 94.7042C45.9352 93.79 46.2135 92.8329 46.3825 91.8521L46.2236 91.8415" stroke="#121632" stroke-miterlimit="10"/>
<path d="M76.1701 104.47H56.8115C56.8115 104.284 56.8828 104.106 57.0097 103.974C57.1366 103.843 57.3087 103.769 57.4882 103.769H76.1688L76.1701 104.47Z" fill="#7B2BFF"/>
<path d="M79.4959 103.769H60.1528L63.6023 93.1848C63.6678 93.0019 63.7866 92.8447 63.9424 92.7352C64.0981 92.6256 64.283 92.569 64.4712 92.5735H81.9073C82.0436 92.5654 82.1799 92.5913 82.3045 92.649C82.4292 92.7068 82.5387 92.7946 82.6238 92.9052C82.709 93.0158 82.7673 93.146 82.7939 93.2848C82.8205 93.4235 82.8146 93.5669 82.7767 93.7028L79.4959 103.769Z" fill="#7B2BFF"/>
<path d="M79.159 104.471H60.0605V103.77L79.4964 102.85V104.121C79.4963 104.214 79.4607 104.303 79.3975 104.368C79.3342 104.434 79.2484 104.471 79.159 104.471Z" fill="#7B2BFF"/>
<path d="M71.7237 98.4211C71.3463 98.4045 70.9884 98.088 71.2428 97.628C71.3022 97.5342 71.3833 97.4573 71.4787 97.4042C71.574 97.3511 71.6807 97.3235 71.789 97.3239C71.7993 97.3234 71.8096 97.3219 71.8196 97.3193C71.8311 97.3259 71.8433 97.331 71.856 97.3345C71.9894 97.3594 72.1086 97.4363 72.1888 97.5495C72.2691 97.6627 72.3044 97.8035 72.2874 97.9428C72.2705 98.0822 72.2025 98.2095 72.0976 98.2985C71.9927 98.3875 71.8589 98.4313 71.7237 98.4211Z" fill="#C9CDD1"/>
<path d="M59.6869 97.7104C59.6293 97.8563 59.5492 97.9914 59.4498 98.1107C59.3584 98.2383 59.2742 98.3714 59.1976 98.5091C59.1294 98.6042 59.0667 98.7034 59.0098 98.8062" fill="white"/>
<path d="M59.6869 97.7104C59.6293 97.8563 59.5492 97.9914 59.4498 98.1107C59.3584 98.2383 59.2742 98.3714 59.1976 98.5091C59.1294 98.6042 59.0667 98.7034 59.0098 98.8062" stroke="#121632" stroke-miterlimit="10"/>
<path d="M50.6963 81.9281C51.2846 82.6876 52.0727 83.27 52.6033 84.0746L52.7911 82.5326C52.8393 82.2636 52.9011 81.9975 52.9763 81.7354C52.1846 81.9253 51.5244 82.1374 50.6963 81.9281Z" fill="#121632"/>
<path d="M51.6201 79.9893C51.6382 80.1197 51.6944 80.2412 51.7812 80.3374C51.8679 80.4336 51.9811 80.5 52.1054 80.5275C52.2305 80.5508 52.3593 80.5409 52.4798 80.4989C52.6002 80.4568 52.7085 80.3839 52.7945 80.287C52.8788 80.1886 52.9434 80.074 52.9847 79.9496C53.0259 79.8253 53.0429 79.6936 53.0347 79.5624C53.0309 79.5613 53.0268 79.5612 53.023 79.5623C53.0191 79.5634 53.0156 79.5655 53.0129 79.5685C53.0101 79.5715 53.0082 79.5752 53.0074 79.5793C53.0065 79.5833 53.0068 79.5875 53.0081 79.5914" fill="#121632"/>
<path d="M48.8966 78.9512C48.8229 78.9354 48.7465 78.9398 48.6749 78.964C48.6033 78.9882 48.5391 79.0314 48.4886 79.0892C48.4398 79.1487 48.4091 79.2217 48.4002 79.2992C48.3912 79.3767 48.4045 79.4552 48.4384 79.5249C48.4752 79.5929 48.5325 79.6467 48.6015 79.6778C48.6706 79.709 48.7476 79.7158 48.8207 79.6974" fill="#121632"/>
<path d="M62.644 123.095C62.5677 122.147 62.6607 121.192 62.9184 120.279C63.1102 119.599 63.3335 118.997 63.1781 118.301C62.976 117.67 62.976 116.989 63.1781 116.358" stroke="white" stroke-miterlimit="10"/>
<path d="M71.19 109.775C72.7262 113.866 71.412 118.433 70.3237 122.676C69.6163 125.439 69.0106 128.226 68.5068 131.039" stroke="white" stroke-miterlimit="10"/>
<path d="M41.7224 102.396C41.6907 102.565 41.7202 102.741 41.8054 102.89C41.8514 102.971 41.916 103.04 41.9936 103.089C42.1905 103.179 42.4111 103.196 42.6188 103.138" fill="#121632"/>
<path d="M51.6689 93.7188L51.7211 93.6729L51.6689 93.7188Z" fill="#121632"/>
<path d="M92.5009 48.9666C93.9722 48.9666 95.165 47.7308 95.165 46.2064C95.165 44.682 93.9722 43.4463 92.5009 43.4463C91.0296 43.4463 89.8369 44.682 89.8369 46.2064C89.8369 47.7308 91.0296 48.9666 92.5009 48.9666Z" fill="#121632"/>
<path d="M146.225 48.9666C147.696 48.9666 148.889 47.7308 148.889 46.2064C148.889 44.682 147.696 43.4463 146.225 43.4463C144.753 43.4463 143.561 44.682 143.561 46.2064C143.561 47.7308 144.753 48.9666 146.225 48.9666Z" fill="#121632"/>
<path d="M38.7744 48.9666C40.2457 48.9666 41.4384 47.7308 41.4384 46.2064C41.4384 44.682 40.2457 43.4463 38.7744 43.4463C37.3031 43.4463 36.1104 44.682 36.1104 46.2064C36.1104 47.7308 37.3031 48.9666 38.7744 48.9666Z" fill="#121632"/>
<path d="M48.2518 45.1974V45.1026C48.2518 42.511 47.2581 40.0255 45.4894 38.1929C43.7206 36.3603 41.3216 35.3308 38.8202 35.3308C36.3188 35.3308 33.9199 36.3603 32.1511 38.1929C30.3824 40.0255 29.3887 42.511 29.3887 45.1026V45.1974H48.2518Z" fill="#7B2BFF"/>
<path d="M155.56 45.1974V45.1026C155.56 42.511 154.567 40.0255 152.798 38.1929C151.029 36.3603 148.63 35.3308 146.129 35.3308C143.627 35.3309 141.229 36.3605 139.46 38.193C137.691 40.0256 136.697 42.511 136.697 45.1026V45.1974H155.56Z" fill="#7B2BFF"/>
<path d="M146.341 20.0957V35.3298" stroke="white" stroke-width="2" stroke-miterlimit="10"/>
<path d="M101.837 45.1974V45.1026C101.837 43.8193 101.593 42.5487 101.119 41.3631C100.645 40.1775 99.9501 39.1003 99.0743 38.1929C98.1985 37.2855 97.1588 36.5657 96.0145 36.0746C94.8702 35.5836 93.6438 35.3308 92.4052 35.3308C89.9038 35.3309 87.5049 36.3605 85.7362 38.193C83.9675 40.0256 82.9738 42.511 82.9736 45.1026V45.1974H101.837Z" fill="#7B2BFF"/>
<path d="M92.6177 20.0957V35.3298" stroke="white" stroke-width="2" stroke-miterlimit="10"/>
<path d="M133.071 98.1515C133.067 98.6203 133.107 98.8236 132.711 99.0007C132.236 99.1204 131.751 99.1915 131.263 99.2128C130.311 99.3618 129.395 99.704 128.57 100.22C127.178 101.154 125.515 101.338 124.062 102.296C123.829 102.47 123.573 102.61 123.302 102.71C122.95 102.785 122.589 102.801 122.233 102.759C121.713 102.712 121.189 102.777 120.694 102.947C120.199 103.118 119.743 103.392 119.354 103.751C119.23 103.819 119.13 103.924 119.064 104.052C118.999 104.18 118.972 104.326 118.988 104.469C119.003 104.613 119.059 104.749 119.15 104.86C119.24 104.97 119.361 105.049 119.495 105.088C120.759 105.68 122.09 105.292 123.314 104.807C124.414 104.452 125.557 104.258 126.709 104.231C128.533 104.093 130.382 104.198 132.182 103.809C133.161 103.627 134.112 103.316 135.013 102.882C135.825 102.46 136.833 102.035 137.224 101.111C137.294 100.931 137.35 100.746 137.391 100.556C137.73 99.176 138.068 97.7945 138.406 96.4117C138.616 95.3455 138.682 94.2545 138.605 93.1695C138.58 92.2556 138.428 91.3503 138.153 90.4816C137.981 89.7746 137.727 89.0914 137.399 88.4464C137.218 88.1601 136.978 87.9189 136.696 87.7402C136.414 87.5615 136.098 87.4496 135.77 87.4128C134.452 87.2747 133.201 88.1626 133.287 89.6075C133.393 91.3731 132.83 93.1124 133.206 94.8679C133.262 95.0749 133.296 95.2876 133.308 95.5022C133.298 95.7121 133.267 95.9204 133.216 96.1237C133.103 96.793 133.054 97.4723 133.071 98.1515Z" fill="white" stroke="#121632" stroke-miterlimit="10"/>
<path d="M128.764 129.722C129.297 130.544 129.675 131.322 129.534 132.418C129.327 134.028 128.059 135.095 127.724 136.658C127.686 136.802 127.68 136.953 127.708 137.099C127.754 137.246 127.835 137.377 127.944 137.482C128.053 137.587 128.185 137.661 128.33 137.697C129.795 138.097 131.08 135.864 131.909 134.999L135.038 131.736C135.17 131.569 135.236 131.355 135.22 131.139C135.205 130.923 135.109 130.721 134.954 130.576L131.462 126.838L130.949 126.281C130.098 125.361 128.823 125.257 128.123 126.056C127.518 126.746 127.567 127.925 128.179 128.851C128.383 129.155 128.582 129.441 128.764 129.722Z" fill="#121632"/>
<path d="M140.425 132.414H141.203V114.649H140.425V132.414Z" fill="#121632"/>
<path d="M147.614 136.144C147.614 133.522 143.134 132.421 140.895 132.418C138.231 132.413 134.176 133.43 134.176 136.144" stroke="#121632" stroke-width="2" stroke-miterlimit="10"/>
<path d="M140.817 136.844V132.487" stroke="#121632" stroke-width="2" stroke-miterlimit="10"/>
<path d="M133.075 136.774C133.075 136.999 133.139 137.219 133.26 137.407C133.381 137.594 133.552 137.74 133.753 137.826C133.954 137.912 134.175 137.935 134.389 137.891C134.602 137.847 134.798 137.738 134.951 137.579C135.105 137.42 135.21 137.217 135.252 136.996C135.295 136.775 135.273 136.546 135.19 136.338C135.107 136.13 134.966 135.952 134.785 135.827C134.604 135.702 134.392 135.635 134.174 135.635C134.03 135.635 133.887 135.664 133.753 135.721C133.62 135.779 133.499 135.862 133.397 135.968C133.294 136.074 133.213 136.2 133.158 136.338C133.103 136.476 133.075 136.624 133.075 136.774Z" fill="#121632"/>
<path d="M139.738 136.774C139.738 136.999 139.803 137.219 139.924 137.407C140.044 137.594 140.216 137.74 140.417 137.826C140.618 137.912 140.839 137.935 141.052 137.891C141.265 137.847 141.461 137.738 141.615 137.579C141.769 137.42 141.873 137.217 141.916 136.996C141.958 136.775 141.937 136.546 141.853 136.338C141.77 136.13 141.629 135.952 141.448 135.827C141.268 135.702 141.055 135.635 140.838 135.635C140.693 135.635 140.55 135.664 140.417 135.721C140.283 135.779 140.162 135.862 140.06 135.968C139.958 136.074 139.877 136.2 139.822 136.338C139.767 136.476 139.738 136.624 139.738 136.774Z" fill="#121632"/>
<path d="M146.402 136.774C146.402 136.999 146.467 137.22 146.587 137.407C146.708 137.594 146.88 137.741 147.081 137.827C147.282 137.913 147.503 137.936 147.716 137.892C147.93 137.848 148.126 137.739 148.28 137.58C148.434 137.421 148.538 137.218 148.581 136.997C148.623 136.776 148.601 136.547 148.518 136.338C148.435 136.13 148.294 135.952 148.113 135.827C147.932 135.702 147.72 135.635 147.502 135.635C147.358 135.635 147.215 135.664 147.081 135.721C146.948 135.779 146.827 135.862 146.724 135.968C146.622 136.074 146.541 136.2 146.486 136.338C146.431 136.476 146.402 136.624 146.402 136.774Z" fill="#121632"/>
<path d="M141.571 108.685V95.6152C141.571 94.5293 141.987 93.488 142.728 92.7202C143.469 91.9523 144.474 91.521 145.522 91.521H149.878C150.926 91.521 151.932 91.9523 152.673 92.7202C153.414 93.488 153.83 94.5293 153.83 95.6152V110.227C153.826 111.782 153.228 113.272 152.166 114.372C151.105 115.471 149.667 116.091 148.166 116.095H133.975C133.798 116.095 133.629 116.023 133.504 115.893C133.379 115.764 133.309 115.588 133.309 115.405C133.309 115.222 133.379 115.047 133.504 114.917C133.629 114.788 133.798 114.715 133.975 114.715H135.751C136.515 114.715 137.272 114.56 137.978 114.257C138.684 113.954 139.326 113.509 139.866 112.949C140.407 112.389 140.835 111.725 141.128 110.993C141.42 110.261 141.571 109.477 141.571 108.685Z" fill="white" stroke="#121632" stroke-miterlimit="10"/>
<path d="M127.574 133.879C127.405 134.851 127.156 135.685 126.319 136.371C125.089 137.378 123.461 137.232 122.172 138.113C122.048 138.189 121.942 138.294 121.864 138.419C121.799 138.558 121.769 138.711 121.778 138.865C121.786 139.018 121.832 139.167 121.911 139.297C122.697 140.641 125.119 139.961 126.294 139.937L130.734 139.845C130.942 139.82 131.133 139.714 131.266 139.547C131.4 139.38 131.467 139.167 131.453 138.951V133.751L131.457 132.981C131.465 131.706 130.617 130.714 129.578 130.783C128.681 130.843 127.924 131.726 127.743 132.833C127.681 133.197 127.632 133.546 127.574 133.879Z" fill="#121632"/>
<path d="M135.804 101.128C135.81 101.11 135.812 101.091 135.817 101.073L135.804 101.128Z" fill="#7A483A"/>
<path d="M138.774 86.4849L138.716 86.7701L138.774 86.4849Z" fill="#7A483A"/>
<path d="M135.846 100.91C135.836 100.965 135.823 101.018 135.81 101.072L135.853 100.865C135.851 100.88 135.85 100.895 135.846 100.91Z" fill="#7A483A"/>
<path d="M132.884 89.7354L133.354 85.7227L132.894 89.7368L132.884 89.7354Z" fill="#7A483A"/>
<path d="M133.491 85.7642C133.634 85.2244 133.877 84.719 134.209 84.277C134.54 83.8349 134.952 83.4649 135.421 83.1881C135.723 83.0406 136.034 82.9165 136.354 82.8168C137.157 82.5168 137.983 82.2886 138.824 82.1346C138.966 82.113 139.157 82.1286 139.189 82.2726C139.195 82.3304 139.189 82.3888 139.17 82.4437C139.121 82.6738 139.241 82.8739 139.211 83.0993C139.155 83.3955 139.083 83.6882 138.995 83.9761C138.815 84.5664 138.737 85.1849 138.765 85.8033C138.857 86.7265 138.387 87.5054 138.387 88.3941C138.357 88.5409 137.949 90.6216 137.935 90.6193L132.894 89.7374C133.05 88.3891 133.08 87.0311 133.491 85.7642Z" fill="#121632"/>
<path d="M120.926 111.621C120.871 111.047 120.937 110.468 121.119 109.923C121.483 108.761 122.57 107.977 123.702 107.64C124.854 107.376 126.031 107.258 127.21 107.288C129.563 107.199 131.932 106.429 134.275 106.531C134.882 106.558 135.481 106.732 136.089 106.707C137.69 106.643 139.013 105.24 140.612 105.131C141.138 105.111 141.662 105.189 142.161 105.361C142.997 105.586 143.754 106.051 144.345 106.703C145.444 108.025 145.344 110.044 144.715 111.663C144.476 112.324 144.116 112.932 143.656 113.454C142.968 114.133 142.13 114.627 141.214 114.891C140.253 115.175 139.25 115.282 138.252 115.207L131.074 115.146C129.315 115.132 127.563 115.367 125.802 115.218C123.632 115.033 121.176 113.884 120.926 111.621Z" fill="#121632"/>
<path d="M122.698 108.213C123.124 107.841 123.637 107.592 124.186 107.492C124.734 107.393 125.299 107.446 125.821 107.647C126.427 107.887 126.965 108.28 127.387 108.791C129.536 111.317 129.958 115.494 130.592 118.66C130.961 120.505 131.286 122.358 131.564 124.22C131.644 124.752 132.547 129.501 132.246 129.657C131.952 129.81 127.013 130.285 127.055 130.398C126.105 127.84 124.986 125.28 124.213 122.666C123.71 121.213 123.132 119.789 122.481 118.4C121.771 116.707 121.236 114.941 120.883 113.131C120.682 112.217 120.747 111.262 121.07 110.386C121.393 109.511 121.96 108.755 122.698 108.213Z" fill="#121632"/>
<path d="M135.94 111.931C135.882 112.012 135.826 112.094 135.774 112.179C134.264 114.668 138.315 115.272 139.776 115.274L144.915 115.283C147.89 115.283 150.198 113.738 150.292 110.697V101.496L143.935 101.512C142.666 101.516 141.259 101.34 140.001 101.523C139.101 101.653 139.214 101.442 138.843 102.362C138.376 103.516 138.617 105.349 138.414 106.604C138.214 108.219 137.61 109.752 136.663 111.051C136.425 111.348 136.163 111.624 135.94 111.931Z" fill="#7B2BFF"/>
<path d="M131.327 119.61C130.999 119.479 130.572 118.89 130.215 118.98C129.881 119.064 129.585 119.708 129.443 119.992C129.055 120.765 128.839 121.645 128.279 122.316C128.231 122.383 128.167 122.436 128.094 122.471C128.008 122.489 127.92 122.482 127.837 122.453C127.754 122.423 127.68 122.372 127.623 122.303C126.548 121.309 126.473 119.313 126.399 117.92C126.352 116.762 126.596 115.61 127.108 114.579C127.62 113.548 128.382 112.672 129.319 112.038C129.957 111.648 130.622 111.308 131.309 111.021C133.508 110.012 135.621 108.816 137.629 107.444C138.462 106.882 139.352 106.418 140.284 106.059C141.922 105.395 143.702 105.197 145.439 105.485C147.552 105.839 149.674 106.285 150.345 109.395C150.866 111.813 149.964 114.041 148.391 114.634C148.355 114.647 148.319 114.655 148.284 114.668L133.692 119.721C133.661 119.734 133.633 119.749 133.601 119.761C133.523 119.791 133.443 119.815 133.362 119.835C132.677 119.969 131.969 119.891 131.327 119.61Z" fill="#7B2BFF"/>
<path d="M136.179 84.1862C136.308 83.8309 136.51 83.5091 136.772 83.2436C138.12 81.9431 140.252 81.9965 141.971 81.939C143.09 81.8812 144.212 81.9373 145.32 82.1064C146.414 82.3375 147.466 82.7471 148.437 83.32C149.042 83.5945 149.603 83.9621 150.103 84.4102C151.2 85.5019 151.428 87.2164 151.461 88.7933C151.494 90.3703 150.174 106.438 150.253 106.442C148.299 106.35 146.346 106.332 144.392 106.226C143.393 106.172 142.394 106.123 141.397 106.026C140.853 105.972 140.302 106.036 139.759 105.972C139.153 105.901 139.215 105.637 138.796 105.365C138.587 105.227 138.403 105.339 138.263 105.154C138.149 105.002 138.206 104.412 138.194 104.214C138.152 103.541 138.127 102.866 138.061 102.195C137.986 101.441 137.794 100.72 137.74 99.9461C137.667 98.0326 137.466 96.1266 137.139 94.2418C136.789 92.5632 136.185 90.9481 135.862 89.2635C135.612 88.1025 135.585 86.9017 135.784 85.73C135.87 85.204 136.003 84.6873 136.179 84.1862Z" fill="#121632"/>
<path d="M143.319 79.3842C143.563 79.0594 143.502 79.1201 143.598 78.6941L144.554 74.4362L138.774 73.0432L138.085 77.3674C137.969 77.885 137.991 78.4256 138.148 78.9313C138.306 79.437 138.593 79.8888 138.979 80.2384L139.407 83.2368C139.445 83.5337 139.541 83.8195 139.69 84.0768C139.838 84.334 140.035 84.5576 140.268 84.7338C140.502 84.9101 140.768 85.0355 141.05 85.1024C141.332 85.1693 141.624 85.1763 141.908 85.1231C142.193 85.0698 142.464 84.9574 142.706 84.7926C142.947 84.6278 143.154 84.414 143.313 84.1641C143.473 83.9142 143.582 83.6334 143.634 83.3387C143.686 83.044 143.679 82.7414 143.615 82.4493L143.319 79.3842Z" fill="white" stroke="#121632" stroke-miterlimit="10"/>
<path d="M139.317 80.983C139.659 81.0052 139.999 80.9132 140.287 80.7206C140.576 80.528 140.797 80.2448 140.919 79.9126C140.907 79.953 140.776 79.9926 140.741 80.0069C140.393 80.1186 140.025 80.1489 139.664 80.0957C139.427 80.0908 139.195 80.0278 138.986 79.9116C138.969 79.8968 138.948 79.8885 138.926 79.8882C138.915 79.8905 138.905 79.8952 138.896 79.9019C138.888 79.9087 138.88 79.9173 138.875 79.9273C138.848 79.9875 138.838 80.0545 138.846 80.1204C138.854 80.1864 138.879 80.2487 138.92 80.3004C138.996 80.366 139.053 80.4517 139.086 80.5483C139.107 80.6616 139.122 80.7762 139.13 80.8915C139.134 80.9292 139.222 80.9596 139.317 80.983Z" fill="#121632"/>
<path d="M138.481 73.9619C138.88 74.0999 139.316 74.2006 139.724 74.311C140.318 74.4707 140.923 74.5976 141.512 74.777C143.082 75.2541 142.729 76.8688 142.733 78.2304C142.706 78.416 142.722 78.6054 142.779 78.7834C142.837 78.9613 142.933 79.1229 143.062 79.2549C143.889 79.8446 144.089 78.0105 144.294 77.5896C144.405 77.3624 144.571 77.1641 144.661 76.9267C144.847 76.4386 144.682 75.8852 144.75 75.3627C144.779 75.1267 144.857 74.898 144.876 74.6607C144.954 73.6688 144.077 72.7543 143.29 72.3564C142.618 72.0568 142.035 71.5782 141.599 70.9694C141.544 70.8633 141.473 70.7664 141.39 70.6819C141.32 70.6244 141.24 70.5811 141.155 70.554C140.919 70.4731 140.668 70.4527 140.423 70.4945C140.178 70.5364 139.946 70.6392 139.748 70.7942C139.635 70.9033 139.509 70.9961 139.372 71.0702C139.14 71.1286 138.899 71.1325 138.666 71.0817C138.491 71.0642 138.315 71.0831 138.148 71.1371C137.981 71.1911 137.826 71.2793 137.692 71.3963C137.56 71.5167 137.467 71.6754 137.424 71.8515C137.381 72.0277 137.39 72.2132 137.45 72.384C137.532 72.5846 137.695 72.7391 137.784 72.936C137.989 73.3887 137.889 73.7443 138.382 73.9232C138.415 73.938 138.448 73.9508 138.481 73.9619Z" fill="#121632"/>
<path d="M142.124 77.5975C142.097 77.7197 142.105 77.8476 142.148 77.965C142.191 78.0823 142.266 78.1839 142.364 78.257C142.463 78.33 142.58 78.3711 142.701 78.3751C142.822 78.3791 142.941 78.3459 143.044 78.2796C143.147 78.2133 143.229 78.1169 143.279 78.0026C143.328 77.8883 143.345 77.7612 143.325 77.6375C143.305 77.5137 143.25 77.3988 143.167 77.3073C143.085 77.2157 142.977 77.1517 142.86 77.1232C142.781 77.1043 142.7 77.1016 142.621 77.1152C142.541 77.1288 142.465 77.1585 142.397 77.2025C142.329 77.2466 142.27 77.3041 142.223 77.3719C142.176 77.4397 142.142 77.5163 142.124 77.5975Z" fill="white"/>
<path d="M128.427 113.382C127.911 114.282 127.534 115.261 127.311 116.283C126.923 117.875 126.541 119.52 126.776 121.144C126.845 121.62 126.966 122.089 126.992 122.57C127.039 123.426 126.782 124.272 126.791 125.129C126.825 125.742 126.914 126.35 127.057 126.945C127.339 128.421 127.45 129.926 127.388 131.43C127.371 131.92 127.35 132.411 127.327 132.902C127.364 133.338 127.318 133.778 127.19 134.195C127.75 134.285 128.313 134.354 128.875 134.433C129.92 134.579 130.965 134.726 132.018 134.807C132.344 134.832 133.049 135.014 133.327 134.791C133.561 134.604 133.593 134.03 133.658 133.761C134.139 131.759 134.555 129.66 134.166 127.601C134.096 127.23 134 126.863 133.961 126.487C133.924 126.015 133.942 125.541 134.014 125.074C134.267 123.134 134.725 121.234 134.968 119.291C135.223 117.247 135.393 115.188 135.545 113.135C135.818 109.495 130.998 110.68 129.378 112.198C129.011 112.546 128.691 112.944 128.427 113.382Z" fill="#7B2BFF"/>
<path d="M113.885 68.2237H113.74C113.74 68.2407 113.885 68.2072 113.885 68.2237Z" fill="#121632"/>
<path d="M144.755 86.195C144.13 86.811 143.16 87.2825 142.435 87.7738C141.804 87.1887 141.055 86.7557 140.243 86.506C139.792 86.368 139.324 86.2875 138.882 86.12C136.874 85.3596 135.33 83.7937 133.261 83.0958C132.225 82.7462 131.072 82.4927 130.361 81.6371C129.487 80.5869 129.318 79.015 128.673 77.8235C128.419 77.3538 128.022 76.9532 127.497 77.4633C127.092 77.8562 127.23 78.6249 127.319 79.1194C127.448 79.8725 127.601 80.6205 127.753 81.3685C127.975 82.4605 128.094 82.8428 129.047 83.3778C130.021 83.9018 130.909 84.583 131.677 85.396C132.154 85.925 132.546 86.5299 133.006 87.076C134.624 88.9975 136.98 90.0799 138.774 91.8257C139.64 92.6684 140.56 93.8185 141.871 93.4431C142.295 93.3217 147.287 91.9536 147.126 91.6564C146.551 90.582 146.052 89.4653 145.634 88.3152C145.361 87.5985 144.994 86.9177 144.755 86.195Z" fill="white" stroke="#121632" stroke-miterlimit="10"/>
<path d="M150.219 89.345C149.511 90.5254 148.417 91.4027 147.136 91.8167L150.219 89.345Z" fill="#121632"/>
<path d="M150.219 89.345C149.511 90.5254 148.417 91.4027 147.136 91.8167" stroke="white" stroke-miterlimit="10"/>
<path d="M110.558 71.2659L110.551 71.3146L110.558 71.2659Z" fill="white"/>
<path d="M110.558 71.2659L110.551 71.3146" stroke="#121632" stroke-miterlimit="10"/>
<path d="M131.303 100.228H109.544C109.362 100.228 109.185 100.163 109.043 100.044C108.901 99.9258 108.802 99.7604 108.764 99.5758L106.062 86.6087C106.037 86.4881 106.038 86.3634 106.066 86.2435C106.093 86.1236 106.146 86.0116 106.221 85.9157C106.296 85.8198 106.39 85.7423 106.498 85.689C106.605 85.6358 106.722 85.608 106.841 85.6077H128.601C128.783 85.6079 128.96 85.6727 129.102 85.7913C129.244 85.91 129.342 86.0754 129.381 86.26L132.083 99.2271C132.108 99.3477 132.107 99.4724 132.079 99.5924C132.052 99.7123 131.998 99.8243 131.924 99.9202C131.849 100.016 131.754 100.094 131.647 100.147C131.54 100.2 131.422 100.228 131.303 100.228Z" fill="#121632"/>
<path d="M119.413 103.918L119.844 98.5815C119.857 98.3555 119.785 98.1331 119.642 97.9618C119.499 97.7905 119.297 97.684 119.079 97.6651C118.862 97.6462 118.645 97.7165 118.477 97.8607C118.309 98.005 118.201 98.2119 118.179 98.437L117.734 103.92H114.597V104.472H122.647V103.92L119.413 103.918Z" fill="#121632"/>
<path d="M115.699 88.5712C115.638 88.0219 114.799 88.0159 114.861 88.5712L115.059 90.3588C115.12 90.9076 115.959 90.9141 115.897 90.3588L115.699 88.5712Z" fill="white"/>
<path d="M117.377 88.5712C117.316 88.0219 116.477 88.0159 116.538 88.5712L116.737 90.3588C116.798 90.9076 117.637 90.9141 117.575 90.3588L117.377 88.5712Z" fill="white"/>
<path d="M119.052 88.5712C118.992 88.0219 118.153 88.0159 118.214 88.5712L118.413 90.3588C118.473 90.9076 119.313 90.9141 119.251 90.3588L119.052 88.5712Z" fill="white"/>
<path d="M120.729 88.5712C120.668 88.0219 119.829 88.0159 119.89 88.5712L120.088 90.3588C120.149 90.9076 120.988 90.9141 120.927 90.3588L120.729 88.5712Z" fill="white"/>
<path d="M122.407 88.5712C122.346 88.0219 121.507 88.0159 121.569 88.5712L121.767 90.3588C121.828 90.9076 122.667 90.9141 122.605 90.3588L122.407 88.5712Z" fill="white"/>
<path d="M136.432 100.348C136.485 100.541 136.492 100.744 136.452 100.94C136.413 101.137 136.328 101.32 136.205 101.475C136.027 101.612 135.818 101.698 135.598 101.726" fill="#121632"/>
<path d="M140.668 91.8657C140.695 92.012 140.764 92.1468 140.865 92.2532C140.965 92.3595 141.094 92.4329 141.235 92.464C141.376 92.4952 141.522 92.4829 141.656 92.4285C141.79 92.3741 141.906 92.2802 141.988 92.1583" fill="#121632"/>
<path d="M88.6105 73.6668C88.7329 73.6206 88.8344 73.5291 88.8953 73.4102C88.9274 73.4102 88.5784 73.6668 88.6105 73.6668Z" fill="#121632"/>
<path d="M162.689 104.425H27.2305V105.977H162.689V104.425Z" fill="#121632"/>
<path d="M161.281 141.267H160.25L151.821 104.723H152.854L161.281 141.267Z" fill="#121632"/>
<path d="M151.953 141.267H150.922L142.493 104.723H143.524L151.953 141.267Z" fill="#121632"/>
<path d="M29.0068 141.267H30.0378L38.4664 104.723H37.4354L29.0068 141.267Z" fill="#121632"/>
<path d="M38.335 141.267H39.3655L47.794 104.723H46.7631L38.335 141.267Z" fill="#121632"/>
<path d="M109.948 119.902C109.496 117.678 105.621 117.852 103.875 117.537C101.505 117.111 99.13 116.7 96.7639 116.257C96.356 116.08 95.8989 116.067 95.4824 116.221C95.0659 116.376 94.7203 116.686 94.5136 117.091C93.7782 118.103 93.269 119.272 93.0227 120.512C92.9046 121.101 92.9311 121.711 93.0998 122.286C93.2684 122.861 93.5738 123.383 93.9879 123.804C94.7707 124.505 95.8932 124.694 96.9628 124.838C97.6119 124.925 98.2331 125.08 98.872 125.194C99.2349 125.193 99.5937 125.273 99.9234 125.431C100.85 126.081 100.598 127.625 100.352 128.622C100.119 129.569 99.8195 130.561 100.053 131.467C100.133 131.707 100.201 131.951 100.255 132.199C100.284 132.522 100.263 132.848 100.192 133.165C99.9021 134.867 99.3253 136.69 99.9554 138.298C100.044 138.483 100.112 138.678 100.158 138.879C100.176 139.052 100.172 139.226 100.145 139.398C100.018 140.551 99.8907 141.705 99.7631 142.858C99.7631 142.856 103.573 143.04 103.864 143.042C104.304 143.049 105.272 143.221 105.671 142.969C106.288 142.578 106.415 140.669 106.521 139.964C106.671 138.966 106.736 137.955 106.92 136.963C107.254 135.176 107.971 133.482 108.285 131.69C108.442 130.796 108.383 129.855 108.557 128.972C108.703 128.23 108.886 127.487 109.008 126.728C109.302 124.905 109.596 123.083 109.89 121.26C109.977 120.854 110.003 120.436 109.966 120.022C109.962 119.982 109.956 119.942 109.948 119.902Z" fill="#121632"/>
<path d="M109.204 130.173L108.869 131.074C108.546 131.822 108.341 132.617 108.259 133.432C108.22 134.251 108.433 135.062 108.449 135.882C108.478 137.277 107.792 138.48 107.781 139.838C107.776 140.344 107.914 140.838 107.949 141.341C107.967 141.851 107.935 142.363 107.851 142.866L107.526 145.322C107.437 145.996 107.235 146.443 107.979 146.518C109.943 146.714 111.823 146.403 113.778 146.27C113.813 146.277 113.85 146.276 113.885 146.267C113.92 146.258 113.953 146.241 113.981 146.219C114.01 146.196 114.033 146.167 114.05 146.134C114.067 146.101 114.078 146.065 114.08 146.028C114.834 143.241 115.407 140.405 115.797 137.54C115.814 137.278 115.87 137.021 115.964 136.777C116.126 136.489 116.321 136.222 116.545 135.983C117.046 135.339 117.058 134.668 117.275 133.921C117.484 133.196 117.733 132.5 117.889 131.747C118.259 129.963 118.626 128.178 118.99 126.393C119.291 124.913 119.649 123.59 118.892 122.179C118.623 121.734 118.274 121.347 117.865 121.037C114.41 118.154 110.147 116.507 105.713 116.345C104.068 116.289 102.002 116.18 101.386 114.597C101.226 113.976 101.135 113.339 101.117 112.697C100.844 110.842 98.0656 110.409 96.6185 110.892C94.6649 111.545 94.0575 114.053 93.8413 116.165C93.6637 117.894 93.5474 119.676 94.0273 121.341C94.7426 123.826 96.742 125.76 99.0322 126.801C100.852 127.56 102.787 127.979 104.747 128.038C106.238 128.13 107.709 127.837 109.183 127.665C110.229 127.543 110.068 127.849 109.733 128.748C109.557 129.224 109.38 129.698 109.204 130.173Z" fill="#7B2BFF"/>
<path d="M96.0972 84.1344C96.1517 84.4033 96.2017 84.6732 96.2473 84.944C96.3361 85.4772 96.3858 86.0908 96.0382 86.4943C95.8366 86.728 95.5333 86.8462 95.3278 87.0776C95.195 87.2633 95.103 87.4768 95.0583 87.7032C95.0136 87.9296 95.0172 88.1634 95.0689 88.3882C95.1323 88.9072 95.1703 89.4293 95.1826 89.9523C95.2119 90.5259 95.4539 91.0563 95.4303 91.6442C95.434 91.8915 95.3871 92.1367 95.2928 92.3639C95.1984 92.591 95.0588 92.7949 94.883 92.9622C94.7072 93.1295 94.4993 93.2563 94.2728 93.3344C94.0464 93.4125 93.8065 93.4401 93.5691 93.4153C92.9559 93.3693 92.2641 93.2851 91.8947 92.7759C91.7314 92.5133 91.6228 92.2182 91.5759 91.9097C91.072 89.6279 90.568 87.2391 91.1373 84.9734C91.3169 84.0751 91.6403 83.2141 92.0941 82.4263C92.4265 81.8391 92.8362 81.3028 93.3115 80.8328C93.5269 80.6382 93.7965 80.5197 94.0812 80.4944C94.366 80.4691 94.6511 80.5383 94.8953 80.692C95.1781 80.9598 95.3758 81.3101 95.4623 81.6967C95.7173 82.4965 95.9292 83.3103 96.0972 84.1344Z" fill="white" stroke="#121632" stroke-miterlimit="10"/>
<path d="M101.695 93.5974C101.756 93.1749 101.905 92.7712 102.131 92.4139C102.357 92.0566 102.655 91.7541 103.004 91.5273C103.772 91.0353 104.581 90.615 105.421 90.2714C105.533 90.2286 105.643 90.1868 105.757 90.1454C107.973 89.3261 110.304 88.8219 112.484 87.9C114.896 86.8792 117.217 85.6647 119.582 84.5354C121.179 83.8172 122.698 82.9227 124.111 81.8673C125.299 80.9389 124.925 79.0814 125.494 77.8057C125.74 77.2565 126.202 76.686 126.629 77.4308C127.026 78.1231 126.911 79.0409 127.008 79.8068C127.175 80.5589 127.129 81.3452 126.874 82.0706C126.611 82.5654 126.254 83 125.825 83.3481L124.653 84.4365C124.204 84.8537 123.761 85.3022 123.284 85.6762C121.792 86.8456 120.355 88.0849 118.973 89.3941C117.61 90.685 116.368 92.0103 114.802 93.0624C113.269 94.1089 111.59 94.9047 109.824 95.4218L109.738 95.4457C108.006 95.9338 106.426 96.6639 104.57 96.4656C103.125 96.3064 101.418 95.3266 101.695 93.5974Z" fill="white" stroke="#121632" stroke-miterlimit="10"/>
<path d="M100.641 112.105C100.641 112.16 95.8941 112.41 95.4572 112.439C94.6011 112.494 93.5 112.766 92.6568 112.618C92.1187 112.523 91.8887 111.934 91.252 112.058C90.8697 112.133 90.4173 112.275 90.1362 111.997C89.9775 111.793 89.8982 111.535 89.9142 111.274L89.6185 105.721C89.5372 104.192 87.7199 103.773 86.6588 103.077L84.4902 101.654C85.8649 98.6717 87.7107 95.9485 89.9515 93.5966C92.2808 91.0826 93.9347 90.8539 97.3415 90.8199C100.099 90.7919 102.842 90.4144 105.511 89.696C106.148 92.0376 106.823 94.4002 107.436 96.7307C105.775 97.58 104.048 98.2825 102.273 98.8307C102.031 98.8647 101.797 98.9488 101.587 99.078C101.377 99.2073 101.194 99.3791 101.049 99.5832C100.904 99.7872 100.8 100.019 100.743 100.266C100.687 100.512 100.678 100.768 100.719 101.018C100.694 104.713 100.668 108.409 100.641 112.105Z" fill="#121632"/>
<path d="M159.881 165.731H151.763" stroke="#121632" stroke-miterlimit="10"/>
<path d="M153.724 144.587C153.728 144.504 153.737 144.421 153.75 144.338C153.894 143.435 154.58 142.747 155.05 141.971C155.507 141.212 155.767 140.343 155.804 139.449C155.872 137.781 155.825 135.641 156.518 134.097C157.143 132.705 158.629 131.949 159.391 130.641C159.756 129.885 160.005 129.075 160.13 128.241C160.385 126.918 160.941 125.677 161.752 124.623C162.446 123.861 163.236 123.201 164.1 122.66C164.894 122.06 165.757 121.566 166.669 121.188C167.884 120.743 169.232 120.596 169.795 121.893C170.25 122.94 170.021 124.423 169.541 125.411C169.075 126.243 168.503 127.006 167.842 127.681C166.764 128.918 165.777 130.239 164.891 131.63C164.618 132.001 164.43 132.433 164.343 132.891C164.334 133.342 164.379 133.792 164.476 134.231C164.752 136.502 163.848 138.337 162.156 139.72C160.82 140.812 159.986 141.43 159.649 143.32C159.442 144.49 159.348 145.731 158.721 146.724C158.446 147.118 158.146 147.493 157.825 147.847C156.694 149.232 156.001 150.945 155.842 152.752C155.765 153.649 155.582 155.674 154.19 155.266C152.487 154.768 152.694 149.613 153.193 148.392C153.457 147.899 153.669 147.378 153.825 146.838C153.962 146.1 153.684 145.336 153.724 144.587Z" fill="#121632"/>
<path d="M146.785 147.586C146.416 147.336 146.114 146.993 145.908 146.589C145.388 145.458 146.191 144.684 146.251 143.62C146.306 142.657 145.504 142.05 144.994 141.38C144.679 140.953 144.478 140.447 144.414 139.913C144.349 139.38 144.423 138.838 144.628 138.344C144.812 137.913 145.104 137.486 145.041 137.019C144.952 136.686 144.8 136.375 144.594 136.103C144.354 135.678 144.222 135.196 144.211 134.703C144.2 134.21 144.31 133.722 144.531 133.285C144.786 132.797 145.183 132.373 145.292 131.829C145.342 131.459 145.322 131.083 145.234 130.722C144.979 129.544 144.864 128.337 144.894 127.13C144.898 126.6 145.043 126.081 145.313 125.63C145.432 125.421 145.609 125.255 145.821 125.153C146.033 125.05 146.27 125.017 146.501 125.057C146.996 125.192 147.062 125.602 147.237 126.015C147.667 127.156 147.956 128.349 148.099 129.565C148.125 129.792 148.199 130.011 148.315 130.205C148.471 130.398 148.66 130.559 148.874 130.678C150.184 131.558 151.253 133.01 151.245 134.628C151.241 135.576 150.874 136.491 150.861 137.438C150.841 137.682 150.898 137.926 151.024 138.132C151.171 138.296 151.351 138.424 151.552 138.506C152.14 138.776 152.624 139.241 152.931 139.828C153.197 140.532 153.201 141.313 152.943 142.02C152.726 142.733 152.38 143.4 152.15 144.107C152.084 144.281 152.053 144.466 152.061 144.653C152.103 145.094 152.453 145.305 152.682 145.631C152.87 145.927 153.005 146.255 153.079 146.601C153.421 147.642 153.777 148.495 153.612 149.632C153.547 150.083 153.419 150.524 153.371 150.978C153.35 151.89 153.443 152.8 153.649 153.687C153.737 154.285 153.955 155.685 153.362 156.099C152.851 156.455 152.126 155.869 151.698 155.611C150.35 154.8 149.402 154.148 149.187 152.478C149.034 151.289 149.187 149.922 148.429 148.916C147.943 148.396 147.389 147.949 146.785 147.586Z" fill="#7B2BFF"/>
<path d="M155.655 148.317C155.982 147.424 156.427 146.583 156.978 145.817C157.378 145.262 157.833 144.747 158.19 144.161C158.76 143.221 159.06 142.128 159.611 141.176C160.459 139.717 162.153 138.884 163.706 139.716C164.242 140.031 164.734 140.417 165.171 140.866C165.688 141.334 166.166 141.847 166.599 142.398C167.387 143.573 167.993 144.867 168.396 146.234L170.061 150.988C170.328 151.742 170.943 153.459 170.337 154.204C169.748 154.928 168.453 153.886 168.185 153.287C168.008 152.892 167.742 152.546 167.41 152.28C166.99 151.943 166.453 151.719 166.194 151.238C165.925 150.739 165.972 149.996 165.48 149.738C165.332 149.679 165.179 149.63 165.024 149.593C164.617 149.39 164.291 149.047 164.103 148.622C163.58 147.716 163.181 146.696 162.621 145.822C162.265 145.933 161.95 147.045 161.707 147.399C161.354 147.914 160.919 148.363 160.42 148.727C159.658 149.276 158.726 149.65 158.223 150.459C157.976 150.929 157.794 151.432 157.682 151.955C157.469 152.687 156.8 154.8 155.707 154.442C154.957 154.197 154.994 152.888 154.983 152.268C154.962 150.919 155.19 149.578 155.655 148.317Z" fill="#7B2BFF"/>
<path d="M161.403 152.778H145.562V154.83H146.833L147.865 160.889C148.098 162.257 148.789 163.496 149.816 164.388C150.844 165.281 152.142 165.77 153.482 165.77C154.823 165.77 156.121 165.28 157.148 164.388C158.175 163.495 158.866 162.256 159.099 160.888L160.131 154.828H161.403V152.778Z" fill="#121632"/>
<path d="M146.386 155H160.577" stroke="white" stroke-miterlimit="10"/>
<path d="M95.7725 116.647L99.6038 117.125C101.898 117.411 104.39 117.797 105.975 119.538C106.931 120.675 107.504 122.103 107.608 123.607C107.707 125.1 107.65 126.6 107.437 128.08" stroke="white" stroke-width="2" stroke-miterlimit="10"/>
<path d="M93.1388 127.479H92.3613V145.244H93.1388V127.479Z" fill="#121632"/>
<path d="M85.9541 148.971C85.9541 146.349 90.4341 145.248 92.6728 145.245C95.3368 145.24 99.3915 146.257 99.3915 148.971" stroke="#121632" stroke-width="2" stroke-miterlimit="10"/>
<path d="M92.749 149.673V145.316" stroke="#121632" stroke-width="2" stroke-miterlimit="10"/>
<path d="M100.492 149.603C100.492 149.828 100.427 150.048 100.306 150.236C100.186 150.423 100.014 150.569 99.813 150.655C99.6121 150.741 99.3911 150.764 99.1778 150.72C98.9646 150.676 98.7687 150.568 98.615 150.408C98.4612 150.249 98.3565 150.046 98.3141 149.825C98.2717 149.604 98.2934 149.375 98.3767 149.167C98.4599 148.959 98.6008 148.781 98.7816 148.656C98.9623 148.531 99.1749 148.464 99.3923 148.464C99.5367 148.464 99.6797 148.493 99.8131 148.55C99.9465 148.608 100.068 148.692 100.17 148.797C100.272 148.903 100.353 149.029 100.408 149.167C100.463 149.305 100.492 149.453 100.492 149.603Z" fill="#121632"/>
<path d="M93.8276 149.603C93.8276 149.828 93.7631 150.048 93.6423 150.236C93.5216 150.423 93.3498 150.569 93.149 150.655C92.9481 150.741 92.727 150.764 92.5138 150.72C92.3005 150.676 92.1047 150.568 91.9509 150.408C91.7972 150.249 91.6924 150.046 91.65 149.825C91.6076 149.604 91.6294 149.375 91.7126 149.167C91.7958 148.959 91.9367 148.781 92.1175 148.656C92.2983 148.531 92.5108 148.464 92.7283 148.464C92.8727 148.464 93.0156 148.493 93.149 148.55C93.2824 148.608 93.4037 148.692 93.5058 148.797C93.6079 148.903 93.6888 149.029 93.7441 149.167C93.7993 149.305 93.8277 149.453 93.8276 149.603Z" fill="#121632"/>
<path d="M87.1645 149.603C87.1645 149.828 87.1001 150.048 86.9793 150.236C86.8585 150.423 86.6868 150.569 86.4859 150.655C86.285 150.741 86.064 150.764 85.8507 150.72C85.6374 150.676 85.4416 150.568 85.2878 150.408C85.1341 150.249 85.0294 150.046 84.9869 149.825C84.9445 149.604 84.9663 149.375 85.0495 149.167C85.1327 148.959 85.2736 148.781 85.4544 148.656C85.6352 148.531 85.8477 148.464 86.0652 148.464C86.2096 148.464 86.3525 148.493 86.4859 148.55C86.6194 148.608 86.7406 148.692 86.8427 148.797C86.9448 148.903 87.0257 149.029 87.081 149.167C87.1362 149.305 87.1646 149.453 87.1645 149.603Z" fill="#121632"/>
<path d="M98.0237 120.788V105.533C98.0237 102.892 95.6878 100.752 92.8062 100.752H87.0613C84.1797 100.752 81.8438 102.892 81.8438 105.533V122.587C81.8438 126.354 85.2071 129.436 89.3181 129.436H108.048C108.268 129.449 108.484 129.371 108.649 129.22C108.813 129.07 108.914 128.857 108.928 128.63C108.914 128.402 108.813 128.19 108.648 128.039C108.484 127.888 108.268 127.811 108.048 127.824H105.704C101.462 127.824 98.0237 124.674 98.0237 120.788Z" fill="white" stroke="#121632" stroke-miterlimit="10"/>
<path d="M88.0758 79.8587C87.3016 79.8608 86.5318 79.9784 85.7901 80.2079C84.3644 80.7337 83.7139 81.8377 82.9893 83.0687C82.2607 84.3067 81.0356 85.0583 80.1201 86.1251C79.2893 87.1364 78.7911 88.3956 78.6977 89.7201C78.6043 91.0445 78.9205 92.3654 79.6006 93.491C80.0745 94.2144 80.6643 94.8484 81.3447 95.3656C85.0792 98.2923 91.1701 96.2015 93.3417 92.0925C94.489 89.9217 94.0521 87.2586 93.5841 84.8316C93.327 83.4975 93.4758 82.4454 94.8136 81.7535C95.1708 81.607 95.5191 81.438 95.8565 81.2475C96.2346 80.9585 96.509 80.5472 96.6363 80.0786C96.7636 79.61 96.7365 79.1108 96.5594 78.6599C96.3659 78.2163 96.0628 77.8335 95.6808 77.55C95.2988 77.2666 94.8514 77.0927 94.3838 77.0457C93.979 76.9929 93.5679 77.0473 93.189 77.2039C92.3009 77.5903 91.8045 78.5711 91.0133 79.1383C90.1666 79.7437 89.1272 79.8021 88.0758 79.8587Z" fill="white" stroke="#121632" stroke-miterlimit="10"/>
<path d="M112.679 92.4084C112.635 92.4291 112.65 92.4977 112.675 92.5405C112.762 92.67 112.881 92.7727 113.019 92.8379C113.158 92.9031 113.311 92.9283 113.462 92.9108C113.765 92.871 114.048 92.7334 114.272 92.5175" fill="#121632"/>
<path d="M23.3281 144.833C24.4735 144.727 25.6278 144.835 26.7363 145.151C26.728 143.152 26.6747 141.142 26.5765 139.121C26.5121 137.787 26.0317 136.566 24.5514 136.306C23.6536 136.148 22.9614 136.461 22.6865 137.233C22.0161 139.103 22.8575 142.7 23.3281 144.833Z" fill="white" stroke="#121632" stroke-miterlimit="10"/>
<path d="M18.8117 128.91C18.9449 130.187 18.7317 131.638 18.6847 132.938C18.6309 134.429 19.3063 135.567 19.4688 136.991C19.6038 138.36 19.6483 139.737 19.602 141.112C19.6017 141.126 19.6041 141.14 19.6091 141.153C19.6141 141.166 19.6216 141.178 19.6311 141.188C19.6406 141.198 19.652 141.206 19.6645 141.211C19.6771 141.217 19.6905 141.22 19.7041 141.219H28.0794C28.1049 141.219 28.1295 141.209 28.1484 141.192C28.1673 141.174 28.1791 141.149 28.1815 141.123L28.3418 139.452C28.5127 138.274 28.4476 137.072 28.1504 135.921C28.0049 135.401 27.8849 134.874 27.7908 134.341C27.638 133.494 27.5359 132.63 27.4578 131.798C27.3379 130.519 27.3397 129.231 27.2331 127.951C27.1297 126.703 26.9223 125.467 26.7181 124.233C26.0965 120.494 25.4682 116.752 24.6028 113.063C24.1677 111.208 23.6704 109.368 23.0874 107.557C22.4072 105.408 21.5125 103.338 20.4176 101.381C19.7485 100.201 18.9524 98.9108 17.6168 98.4765C16.5609 98.0646 15.3989 98.0496 14.3334 98.4342C12.9224 99.0483 11.8301 100.247 10.6673 101.237L10.1904 103.65C9.88525 105.643 10.2408 107.684 11.1992 109.441C11.5637 110.049 11.8976 110.676 12.1995 111.319C12.5991 112.304 12.6764 113.395 12.9819 114.415C13.3243 115.407 13.7624 116.361 14.2895 117.263C16.1436 120.752 18.3965 124.89 18.8117 128.91Z" fill="#121632"/>
<path d="M31.0004 99.4331C31.1846 100.272 31.0519 101.33 31.5723 102.063C32.0842 102.786 33.6542 103.034 34.4512 103.331C34.6307 103.381 34.795 103.477 34.9285 103.611C35.2251 103.965 34.9605 104.566 34.5449 104.752C34.1094 104.891 33.6429 104.886 33.2102 104.739L30.0804 104.021C29.8642 103.983 29.6547 103.912 29.4588 103.81C28.926 103.498 28.74 102.806 28.6596 102.179C28.0784 97.7002 24.022 94.7293 22.6482 90.5349C22.3185 89.4511 22.0571 88.3462 21.8659 87.2273C21.5528 85.6021 21.2625 83.9699 20.9268 82.3511C20.6853 81.1863 20.0508 80.1494 20.7248 78.9902C21.0003 78.5547 21.4089 78.2276 21.8852 78.0615C22.3615 77.8953 22.8779 77.8996 23.3515 78.0738C24.858 78.652 25.3788 80.3909 25.8437 81.7921C26.4915 83.7436 27.0292 85.5183 26.9178 87.6202C26.8401 88.1729 26.8711 88.7362 27.0088 89.2763C27.2811 89.8323 27.644 90.3354 28.0815 90.7635C29.3838 92.3736 29.5884 94.5357 30.0564 96.5004C30.2926 97.4899 30.7571 98.4091 30.9888 99.3793C30.9919 99.394 30.9964 99.4128 31.0004 99.4331Z" fill="white" stroke="#121632" stroke-miterlimit="10"/>
<path d="M8.15332 146.731C9.27132 146.625 10.3987 146.728 11.4811 147.037C11.979 145.119 12.435 143.191 12.8491 141.252C13.1217 139.974 12.9512 138.801 11.5371 138.551C11.1411 138.461 10.728 138.497 10.3526 138.656C9.97727 138.815 9.65744 139.088 9.43561 139.44C8.29318 141.234 8.22303 144.686 8.15332 146.731Z" fill="white" stroke="#121632" stroke-miterlimit="10"/>
<path d="M17.1122 149.145C16.295 149.602 15.3645 149.796 14.4402 149.702C14.3483 149.7 14.2564 149.697 14.1645 149.697C12.738 149.697 11.3131 149.644 9.88958 149.538C9.28209 149.548 8.68357 149.386 8.15796 149.07C7.58386 148.64 7.66956 147.911 7.80809 147.266C7.92792 146.713 8.0013 146.151 8.02742 145.585C8.70138 145.845 9.4175 145.968 10.1364 145.947C10.5263 145.908 10.9076 145.804 11.2651 145.639C11.4421 145.556 11.6111 145.456 11.7695 145.339C11.8543 145.276 12.0932 144.983 12.194 145.006C12.2868 145.028 12.3503 145.287 12.3951 145.362C12.5067 145.538 12.6395 145.698 12.7903 145.839C13.0752 146.118 13.4123 146.333 13.7808 146.471C14.1208 146.583 14.469 146.666 14.822 146.719C15.322 146.813 15.8185 146.924 16.3117 147.053C16.6207 147.117 16.917 147.235 17.1881 147.401C17.3227 147.486 17.4367 147.601 17.5214 147.739C17.606 147.877 17.6591 148.032 17.6765 148.195C17.6737 148.375 17.6273 148.552 17.5415 148.709C17.4557 148.866 17.3333 148.999 17.1855 149.094L17.1122 149.145Z" fill="#121632"/>
<path d="M31.8829 146.902C31.7974 147.119 31.6617 147.311 31.4877 147.461C31.3137 147.611 31.1068 147.714 30.8853 147.761C28.972 148.348 26.9158 147.786 24.9276 147.953C24.4414 148.037 23.9453 148.038 23.4588 147.956C22.367 147.672 22.3968 146.269 22.6547 145.359C22.8352 144.963 22.9068 144.523 22.8616 144.087C23.7443 144.277 24.6528 144.3 25.5434 144.155C25.8814 144.119 26.2066 144.002 26.4932 143.812C26.6113 143.725 26.7453 143.609 26.883 143.657C26.9697 143.702 27.0389 143.777 27.0788 143.869C27.4975 144.575 28.0836 144.838 28.7602 145.196C29.0232 145.361 29.303 145.495 29.5945 145.597C29.9888 145.709 30.3937 145.787 30.7933 145.876C31.2467 145.977 31.7857 146.162 31.8838 146.632C31.9022 146.721 31.9019 146.813 31.8829 146.902Z" fill="#7B2BFF"/>
<path d="M18.1473 116.404C17.9404 114.288 17.8698 112.168 17.7677 110.028C17.654 107.998 17.4343 105.975 17.1097 103.969C16.9965 103.225 17.0857 102.565 16.8553 101.832C16.5704 100.883 16.1821 99.9711 15.6977 99.1132C15.0057 97.8367 13.9124 96.8444 12.5999 96.3016C12.1612 96.1207 11.6892 96.0428 11.2179 96.0734C10.7466 96.104 10.2877 96.2424 9.87418 96.4787C9.1301 97.0208 8.55596 97.7772 8.22292 98.6541C7.98049 99.1629 7.73836 99.6717 7.49653 100.18C6.93348 101.277 6.47002 102.425 6.11212 103.61C5.75469 104.803 5.72501 106.075 6.02643 107.284C6.24266 108.045 6.65958 108.464 7.00812 109.128C7.44442 109.953 7.69217 110.871 7.73229 111.81C7.75671 112.484 7.66392 113.156 7.6395 113.831C7.62464 115.348 7.83321 116.858 8.258 118.309C8.43616 118.881 8.55319 119.47 8.60698 120.068C8.60501 120.561 8.57729 121.054 8.52396 121.544C8.44359 122.878 8.69046 124.198 8.75839 125.526C8.81422 126.799 8.57902 128.068 8.07196 129.229C7.75621 130.027 7.59161 130.881 7.58711 131.744C7.58133 133.059 7.79179 134.398 7.41394 135.68C7.29939 136.069 7.13156 136.437 6.9837 136.813C6.40808 138.45 6.02684 140.154 5.84838 141.887C5.84512 141.909 5.84608 141.931 5.8512 141.953C5.85632 141.974 5.8655 141.994 5.8782 142.012C5.8909 142.029 5.90687 142.044 5.92515 142.055C5.94344 142.066 5.96368 142.073 5.98469 142.076C6.569 142.154 8.54793 142.563 8.72953 142.585C10.5428 142.804 12.2096 142.167 13.9728 142.594C14.011 142.603 14.0512 142.598 14.0859 142.579C14.1206 142.56 14.1474 142.528 14.161 142.49C15.517 138.605 16.5645 134.611 17.2931 130.549C17.5035 129.373 17.3526 128.263 17.4014 127.107C17.4396 126.6 17.5259 126.099 17.6589 125.61C18.3027 123.309 18.8133 121.129 18.4377 118.722C18.3174 117.95 18.2232 117.177 18.1473 116.404Z" fill="#7B2BFF"/>
<path d="M20.9101 77.2016C20.0688 76.44 19.0475 75.9233 17.9504 75.7043C17.5619 75.608 17.1566 75.6114 16.7698 75.7144C16.5179 75.8086 16.279 75.9366 16.0594 76.0953C14.3971 77.1304 13.0603 78.6429 12.2112 80.4494C11.5851 81.9805 11.1448 83.5861 10.9005 85.2295C10.7286 86.1859 9.05651 97.847 8.50684 97.6809C9.16086 97.8787 9.82953 98.0236 10.4693 98.2743C11.3875 98.6341 12.3066 99.0067 13.2097 99.4051C14.9767 100.268 16.8087 100.981 18.6874 101.536C18.9542 101.328 19.166 101.054 19.3033 100.739C19.7606 99.7043 20.0801 98.6103 20.253 97.4868C20.8546 93.4492 21.141 89.1296 22.1462 85.1803C22.6031 83.3807 22.9215 81.3731 22.4024 79.5501C22.1284 78.6372 21.6111 77.8232 20.9101 77.2016Z" fill="#121632"/>
<path d="M19.6628 99.2438C20.1454 99.471 20.6431 99.6886 21.1417 99.9274C23.4405 101.027 25.61 102.396 27.6078 104.008C26.9777 104.539 26.5638 105.296 26.4485 106.128C26.4001 106.959 27.019 107.863 27.8214 107.824C28.2844 107.285 28.3475 106.497 28.6836 105.865C29.1214 105.042 30.4281 105.071 30.7225 104.452C31.0333 103.799 30.3273 102.921 29.9779 102.456C28.9806 101.128 27.428 100.36 26.4258 99.052C26.0675 98.5855 25.8087 98.0468 25.4886 97.5518C24.9701 96.7517 24.2963 96.0725 23.5101 95.5576C21.9751 94.5539 21.4299 93.1416 20.6795 91.4818C20.4321 90.9776 20.2326 90.4496 20.0837 89.9053C19.9145 89.1997 19.9185 88.4632 19.8111 87.7432C19.6296 86.7196 19.3053 85.7288 18.8485 84.8019C18.4933 83.9314 17.9823 83.1385 17.3424 82.4649C17.0198 82.1311 16.6287 81.877 16.1982 81.7213C15.7678 81.5657 15.309 81.5126 14.856 81.5661C13.7428 81.7602 12.9023 82.7966 12.5809 83.9177C12.323 85.06 12.2914 86.2447 12.4881 87.4001C12.5572 88.5264 12.827 89.6297 13.2837 90.6543C13.7721 91.6088 14.4826 92.424 14.9989 93.3638C15.4904 94.2585 15.7537 95.2264 16.1835 96.1557C16.9423 97.809 18.2344 98.5699 19.6628 99.2438Z" fill="white" stroke="#121632" stroke-miterlimit="10"/>
<path d="M19.0009 76.5691C18.7643 76.8877 18.5907 77.2514 18.4899 77.6396C17.9593 79.6545 18.7119 82.1359 19.5248 83.9598C19.8237 84.6306 19.9458 85.7641 20.6668 86.116C21.1583 86.3561 21.5153 85.978 21.9234 85.7654C22.4073 85.512 22.9241 85.3013 23.4125 85.0391C24.5078 84.4515 25.5806 83.8228 26.6311 83.153C26.0624 80.4016 24.789 77.6014 22.4184 76.2278C22.054 75.9803 21.6423 75.8173 21.2115 75.75C20.7806 75.6828 20.3408 75.7128 19.9222 75.8382C19.5568 75.9907 19.2383 76.2433 19.0009 76.5691Z" fill="#121632"/>
<path d="M16.0954 74.6456C16.3247 73.9103 16.4779 73.1517 16.5523 72.3828C16.5642 71.4845 16.6972 70.5923 16.9474 69.7321C17.4358 68.4395 19.179 67.6008 20.4551 67.9196C22.2524 68.3672 21.7116 71.4954 21.5455 72.8879C21.4643 73.5678 20.9683 74.0508 20.6189 74.6139C20.0368 75.5519 19.9564 77.098 19.8685 78.1993C19.8704 78.3264 19.837 78.4515 19.7722 78.5595C19.6708 78.6635 19.5381 78.7284 19.3961 78.7435C18.6772 78.9377 17.9389 79.0446 17.1961 79.0618C16.2192 79.0443 14.6825 78.6938 15.1381 77.3832C15.4698 76.4397 15.821 75.5588 16.0954 74.6456Z" fill="white" stroke="#121632" stroke-miterlimit="10"/>
<path d="M21.0358 65.6162C20.765 65.5963 20.4932 65.6322 20.236 65.7219C19.9787 65.8116 19.7412 65.9533 19.5372 66.1388C19.3843 66.3206 19.2015 66.4729 18.9973 66.5887C18.8871 66.6278 18.773 66.6543 18.6572 66.6678C18.1301 66.7618 17.6282 66.9702 17.1844 67.2794C16.7405 67.5886 16.3649 67.9916 16.082 68.4619C15.9495 68.667 15.8605 68.8989 15.8209 69.1422C15.8048 69.3376 15.8149 69.5344 15.8511 69.7269C15.9177 70.1768 16.0003 70.624 16.0989 71.0684C16.1582 71.2651 16.1995 71.4671 16.2223 71.6719C16.2108 71.8382 16.2216 72.0054 16.2543 72.1687C16.4505 72.8537 17.089 72.5367 17.3554 72.0905C17.5545 71.7173 17.7211 71.3264 17.8531 70.9225C18.0103 70.4037 18.3022 69.9397 18.6967 69.5811C19.1202 69.2999 19.6032 69.1296 20.1042 69.0847C20.637 68.996 21.3772 68.9228 21.7666 68.4982C21.9938 68.2744 22.1735 68.0041 22.2943 67.7044C22.415 67.4047 22.4742 67.0822 22.4681 66.7575C22.4602 66.5963 22.4172 66.439 22.3425 66.2975C22.2486 66.1438 22.1207 66.0156 21.9695 65.9235C21.6883 65.7409 21.3671 65.6352 21.0358 65.6162Z" fill="#121632"/>
<path d="M18.4342 70.7223C18.3888 70.6275 18.3254 70.5431 18.2479 70.4742C18.1703 70.4053 18.0802 70.3533 17.9828 70.3213C17.8855 70.2892 17.7829 70.2777 17.6812 70.2876C17.5795 70.2975 17.4807 70.3284 17.3908 70.3787C17.1718 70.5221 16.9987 70.7295 16.8933 70.9746C16.7879 71.2198 16.7549 71.4919 16.7985 71.7564C16.8082 71.8605 16.8424 71.9604 16.8982 72.0474C16.954 72.1345 17.0297 72.2059 17.1184 72.2555C17.2072 72.3051 17.3064 72.3312 17.4073 72.3316C17.5081 72.332 17.6075 72.3067 17.6967 72.2579C17.874 72.2076 18.0349 72.1088 18.1625 71.9717C18.3252 71.8169 18.4384 71.6143 18.4869 71.391C18.5355 71.1678 18.5171 70.9345 18.4342 70.7223Z" fill="white"/>
<path d="M17.7221 71.2348C17.6777 71.0113 17.3695 71.1125 17.3984 71.3268C17.3948 71.4952 17.4436 71.6602 17.5378 71.7975C17.5543 71.8144 17.5747 71.8265 17.5971 71.8327C17.6196 71.839 17.6431 71.839 17.6656 71.8329C17.688 71.8267 17.7085 71.8146 17.725 71.7978C17.7415 71.7809 17.7535 71.7599 17.7598 71.7367C17.7959 71.5693 17.7827 71.3945 17.7221 71.2348Z" fill="#121632"/>
<path d="M17.6087 96.0308C17.5553 96.1678 17.548 96.3194 17.5878 96.4613C17.6257 96.5744 17.6869 96.6775 17.7672 96.7636C17.8475 96.8496 17.9449 96.9165 18.0527 96.9595C18.1011 96.9833 18.1528 96.9988 18.2059 97.0055C18.3355 97.0017 18.4611 96.9581 18.5669 96.8804" fill="#121632"/>
<path d="M11.5087 84.1653C11.4407 84.5541 11.4171 84.9498 11.4381 85.3443C11.5584 86.9359 11.8192 88.5127 12.2173 90.055C13.0609 89.2159 14.2251 88.8327 15.3436 88.4757L18.8805 87.3464C19.2162 87.2392 19.6016 87.0814 19.6926 86.7299C19.7175 86.6069 19.7205 86.4801 19.7015 86.3559C19.4666 84.065 17.8398 79.8618 14.9835 80.3844C14.1243 80.6071 13.3536 81.1021 12.779 81.8003C12.1328 82.4361 11.6895 83.2612 11.5087 84.1653Z" fill="#121632"/>
<path d="M17.1965 81.0623C17.1259 81.0075 17.0513 81.1221 17.1077 81.1842C17.7764 81.9022 18.3346 82.7223 18.763 83.6158C19.227 84.6339 19.4543 85.725 19.8495 86.767C19.8561 86.7831 19.8681 86.7962 19.8833 86.8038C19.8986 86.8114 19.9159 86.813 19.9322 86.8083C19.9485 86.8037 19.9626 86.793 19.9719 86.7784C19.9812 86.7638 19.985 86.7461 19.9827 86.7288C19.651 84.7346 18.8185 82.3149 17.1965 81.0623Z" fill="white"/>
<path d="M19.198 73.7322C19.2424 73.8049 19.3085 73.9567 19.325 73.993C19.3973 74.1526 19.4582 74.315 19.5194 74.4811C19.8024 75.1342 19.9656 75.8362 20.0007 76.5512C20.0637 76.076 20.205 75.6156 20.4186 75.19C20.5994 74.7332 20.829 74.2988 21.1032 73.895C21.2178 73.711 21.3026 73.3563 21.0095 73.5896C20.8405 73.7197 20.6415 73.8014 20.4323 73.8265C20.006 73.8547 19.5781 73.8094 19.166 73.6926C19.1731 73.6954 19.1842 73.7101 19.198 73.7322Z" fill="#121632"/>
<path d="M19.9241 71.8086C19.9177 71.8455 19.9187 71.8834 19.927 71.9198C19.9353 71.9563 19.9508 71.9906 19.9725 72.0207C20.0444 72.1519 20.1484 72.2612 20.274 72.3376C20.3373 72.3745 20.4072 72.3977 20.4794 72.4056C20.5516 72.4135 20.6247 72.406 20.694 72.3836C20.7809 72.3447 20.8589 72.2872 20.923 72.215C20.9871 72.1428 21.0358 72.0575 21.0661 71.9645C21.0807 71.9282 21.0883 71.8748 21.0536 71.8583" fill="#121632"/>
<path d="M38.6491 149.033C38.6962 148.324 38.7508 147.729 38.7543 147.385C38.7793 146.74 38.7496 146.093 38.6655 145.453C38.4799 144.574 38.2142 143.716 37.8721 142.889C37.2021 141.02 36.7501 138.984 37.1617 137.036C37.4396 135.726 38.0941 134.525 38.3605 133.212C38.5519 132.261 38.5323 131.277 38.7024 130.322C38.8418 129.54 39.7986 126.97 40.9668 127.921C41.1522 128.099 41.2875 128.326 41.3584 128.577C41.6201 129.503 41.9437 130.408 42.3268 131.288C42.8028 132.193 43.5505 132.938 43.9217 133.895C44.2287 134.842 44.3059 135.853 44.1463 136.839C43.7765 140.28 42.6616 143.575 43.1251 147.103C43.2033 147.701 43.3689 152.591 42.523 152.591C42.2353 153.387 41.7682 154.619 40.8625 154.825C38.4018 155.383 38.4835 151.509 38.6491 149.033Z" fill="#7B2BFF"/>
<path d="M30.143 155.027C29.1786 155.968 28.4615 157.148 27.0243 157.39C25.2247 157.692 24.3079 155.926 24.9517 154.285C25.3757 153.206 26.2579 152.407 27.0234 151.553C27.8787 150.598 28.6128 149.533 29.2079 148.385C29.6519 147.531 30.0449 146.595 30.7997 146.023C31.3161 145.678 31.8873 145.432 32.4869 145.294C33.6511 144.951 34.9023 144.608 36.05 145.007C36.757 145.296 37.3919 145.746 37.9073 146.325C41.0433 149.574 40.8093 153.78 40.0829 157.968C40.0763 158.161 40.0285 158.35 39.943 158.522C39.8575 158.694 39.7364 158.845 39.5883 158.962C39.0555 159.257 38.4596 158.65 38.2723 158.057C37.8198 156.624 38.0947 155.354 37.1853 154.082C36.4501 153.051 35.1172 152.235 34.714 151.011C34.6377 150.624 34.4968 150.255 34.2975 149.919C34.0573 149.613 33.5245 149.51 33.3252 149.846C33.244 150.036 33.222 150.248 33.2621 150.452C33.3022 151.112 33.1822 151.772 32.9131 152.371C32.6439 152.971 32.2343 153.491 31.7214 153.885C31.2983 154.202 30.8125 154.427 30.4129 154.775C30.3219 154.856 30.2313 154.941 30.143 155.027Z" fill="#121632"/>
<path d="M40.488 150.721C40.4806 150.532 40.4862 150.342 40.5049 150.154C40.7185 148.173 43.3772 147.892 44.6963 147.007C45.9542 146.161 46.7294 144.392 48.3527 146.127C49.1428 147.12 49.6489 148.322 49.8139 149.598C50.1194 151.775 50.4127 153.954 50.6939 156.134C50.8028 156.614 50.7692 157.117 50.5976 157.577C50.198 158.387 49.0129 158.455 48.3056 157.916C47.3177 157.286 46.9563 155.576 46.574 154.548C46.36 154.076 46.2477 153.561 46.245 153.039C46.2894 152.4 46.6588 151.792 46.5607 151.161C46.5296 150.962 46.3968 150.735 46.2055 150.761C46.1451 150.774 46.0881 150.8 46.0385 150.838C45.1665 151.422 44.8744 152.336 44.3371 153.19C43.7723 154.087 43.3297 153.982 42.6774 154.601C41.3228 155.885 41.7335 158.78 41.2433 160.506C41.1176 160.948 40.7016 161.472 40.3331 161.215C40.1977 161.092 40.1102 160.923 40.0871 160.738C39.6365 158.807 39.6417 156.793 40.1022 154.865C40.3512 154.069 40.5166 153.248 40.5955 152.415C40.6079 151.85 40.5067 151.284 40.488 150.721Z" fill="#7B2BFF"/>
<path d="M46.4187 156.999H33.4307V158.681H34.4732L35.3168 163.649C35.5082 164.771 36.0747 165.786 36.9169 166.518C37.7591 167.25 38.8232 167.651 39.9225 167.651C41.0217 167.651 42.0858 167.25 42.9279 166.518C43.7701 165.786 44.3365 164.771 44.5277 163.649L45.374 158.681H46.4165L46.4187 156.999Z" fill="#121632"/>
<path d="M34.106 158.82H45.7411" stroke="white" stroke-miterlimit="10"/>
<path d="M37.2002 167.73H49.4348" stroke="#121632" stroke-miterlimit="10"/>
<path d="M142.774 77.4704C142.824 77.4631 142.875 77.4711 142.921 77.4936C142.966 77.5161 143.005 77.5521 143.031 77.5969C143.057 77.6418 143.07 77.6937 143.067 77.7461C143.065 77.7984 143.048 77.849 143.019 77.8914C142.966 77.9575 142.895 78.0056 142.815 78.0294C142.807 78.0321 142.795 78.0294 142.796 78.0229" fill="#121632"/>
<path d="M138.56 78.1394C138.554 78.1811 138.556 78.2237 138.567 78.2644C138.578 78.3051 138.597 78.3429 138.623 78.3754C138.698 78.495 138.804 78.5906 138.928 78.6514C139.004 78.6843 139.086 78.701 139.169 78.7006C139.251 78.7002 139.333 78.6827 139.409 78.6491C139.561 78.5796 139.684 78.4557 139.755 78.3H139.727" fill="#121632"/>
<defs>
<linearGradient id="paint0_linear_264_685" x1="113.671" y1="48.0124" x2="29.8773" y2="206.854" gradientUnits="userSpaceOnUse">
<stop stop-color="#DD226D"/>
<stop offset="1" stop-color="#8C4CF5"/>
</linearGradient>
</defs>
</svg>
