<svg width="65" height="37" viewBox="0 0 65 37" fill="none" xmlns="http://www.w3.org/2000/svg">
<path fill-rule="evenodd" clip-rule="evenodd" d="M44.2268 -7.53078C38.4203 -12.9353 26.646 -13.9656 16.9157 -0.384098C14.5464 2.92296 8.86518 1.77216 7.29429 5.56484C3.2438 15.3431 22.3918 28.0477 29.6797 30.314C32.4076 31.1622 36.5435 32.339 39.146 30.4487C42.222 28.2142 39.8642 22.8032 42.0786 19.8633C47.9024 12.1314 53.7742 1.35545 44.2268 -7.53078Z" fill="white" stroke="#2F2965" stroke-width="1.67708" stroke-miterlimit="1.5" stroke-linecap="round" stroke-linejoin="round"/>
<path d="M36.6135 28.7984C37.3737 28.1916 36.9239 27.2796 36.5196 26.5862C35.5633 24.9461 34.242 23.6206 32.9009 22.2968C28.1317 17.5887 22.825 12.6223 16.8025 9.5648C14.8175 8.55715 9.63091 6.09407 9.92189 10.3036" stroke="#2F2965" stroke-width="1.67708" stroke-miterlimit="1.5" stroke-linecap="round" stroke-linejoin="round"/>
<path d="M39.1539 18.0831C37.1426 14.0392 34.3332 10.4471 30.8026 7.63123C29.0455 6.22978 26.9973 5.17599 25.041 4.09152C21.9425 2.37425 18.5702 1.08987 14.986 1.23688" stroke="#2F2965" stroke-width="1.67708" stroke-miterlimit="1.5" stroke-linecap="round" stroke-linejoin="round"/>
<path fill-rule="evenodd" clip-rule="evenodd" d="M27.9723 17.6184C27.1036 18.6213 25.6144 19.9232 24.286 20.1131C21.7791 20.4716 19.1137 18.8271 19.2451 16.1065C19.2765 15.4589 19.5018 14.8112 19.7586 14.2244C20.0466 13.566 20.6505 12.6701 21.1873 12.194C23.6308 13.8247 25.971 15.8091 27.9723 17.6184Z" fill="white" stroke="#2F2965" stroke-width="1.67708" stroke-miterlimit="1.5" stroke-linecap="round" stroke-linejoin="round"/>
<path fill-rule="evenodd" clip-rule="evenodd" d="M51.9408 10.4812C52.9905 10.6967 54.0427 10.9081 55.0951 11.109L51.9408 10.4812Z" fill="white"/>
<path d="M51.9408 10.4812C52.9905 10.6967 54.0427 10.9081 55.0951 11.109" stroke="#00C2FF" stroke-width="1.67708" stroke-miterlimit="1.5" stroke-linecap="round" stroke-linejoin="round"/>
<path fill-rule="evenodd" clip-rule="evenodd" d="M49.5371 14.912C52.2817 16.0045 54.9148 17.3162 57.474 18.7863L49.5371 14.912Z" fill="white"/>
<path d="M49.5371 14.912C52.2817 16.0045 54.9148 17.3162 57.474 18.7863" stroke="#00C2FF" stroke-width="1.67708" stroke-miterlimit="1.5" stroke-linecap="round" stroke-linejoin="round"/>
<path fill-rule="evenodd" clip-rule="evenodd" d="M47.3621 19.0003C47.8308 20.3142 48.2258 21.6443 48.6635 22.9674L47.3621 19.0003Z" fill="white"/>
<path d="M47.3621 19.0003C47.8308 20.3142 48.2258 21.6443 48.6635 22.9674" stroke="#00C2FF" stroke-width="1.67708" stroke-miterlimit="1.5" stroke-linecap="round" stroke-linejoin="round"/>
</svg>
