<svg width="49" height="50" viewBox="0 0 49 50" fill="none" xmlns="http://www.w3.org/2000/svg">
<path d="M36.4186 14.2558C33.8348 14.9324 30.5787 15.8595 28.9519 18.1804C27.3158 20.5144 28.8734 25.0312 31.9962 25.1773C35.0795 25.3214 37.399 23.0688 39.4966 21.1399" stroke="#00C2FF" stroke-width="1.67708" stroke-miterlimit="1.5" stroke-linecap="round" stroke-linejoin="round"/>
<path d="M42.7398 25.277C42.2111 26.9959 40.6335 28.3786 39.3604 29.5644C36.9381 31.8204 34.1462 33.6638 30.693 33.5814C24.8795 33.4422 19.1451 28.1147 19.3187 22.1946C19.3786 20.155 20.3285 18.5159 21.3647 16.8183C22.5918 14.808 24.4162 13.2267 26.3882 11.9514C28.7627 10.4156 31.5311 8.96111 34.3666 8.55893" stroke="#00C2FF" stroke-width="1.67708" stroke-miterlimit="1.5" stroke-linecap="round" stroke-linejoin="round"/>
<path d="M46.2778 29.3298C45.732 31.6251 43.5295 33.4363 42.1859 35.2463C36.6493 42.703 25.1597 45.7042 17.1282 40.4047C10.0991 35.7667 5.47498 25.495 8.46374 16.9915C12.1204 6.58782 25.3785 3.21126 31.963 4.05026" stroke="#00C2FF" stroke-width="1.67708" stroke-miterlimit="1.5" stroke-linecap="round" stroke-linejoin="round"/>
</svg>
