<svg width="36" height="30" viewBox="0 0 36 30" fill="none" xmlns="http://www.w3.org/2000/svg">
<path fill-rule="evenodd" clip-rule="evenodd" d="M12.1448 12.7242C10.4745 12.1462 8.87358 11.5722 7.13868 11.1704C9.66499 4.70377 12.4541 -1.6556 15.6173 -7.83569C18.1358 -7.24705 20.3965 -6.14591 22.5534 -4.73379C18.8573 0.94418 15.7708 6.99578 12.1613 12.7303C12.156 12.7282 12.1505 12.7265 12.1448 12.7242Z" fill="white" stroke="#00FFA3" stroke-width="1.67708" stroke-miterlimit="1.5" stroke-linecap="round" stroke-linejoin="round"/>
<path fill-rule="evenodd" clip-rule="evenodd" d="M8.49148 16.2854C6.00995 13.8433 1.92375 16.8083 3.46821 19.9532C4.83435 22.7347 9.44147 21.4247 9.26492 18.3869" fill="white"/>
<path d="M8.49148 16.2854C6.00995 13.8433 1.92375 16.8083 3.46821 19.9532C4.83435 22.7347 9.44147 21.4247 9.26491 18.3869" stroke="#00FFA3" stroke-width="1.67708" stroke-miterlimit="1.5" stroke-linecap="round" stroke-linejoin="round"/>
<path d="M32.8237 6.77454C29.3578 11.1111 26.0113 15.5872 22.3079 19.7286L17.9511 16.1926C20.4559 11.8541 23.4442 6.64874 26.5134 2.10265C28.7686 3.38263 31.0011 4.91546 32.8237 6.77454Z" stroke="#00FFA3" stroke-width="1.67708" stroke-miterlimit="1.5" stroke-linecap="round" stroke-linejoin="round"/>
<path fill-rule="evenodd" clip-rule="evenodd" d="M18.1204 22.4059C16.0806 20.3085 12.3004 22.9841 13.644 25.652C15.0604 28.4644 19.3418 26.4178 18.8003 23.5807" fill="white"/>
<path d="M18.1204 22.4059C16.0806 20.3085 12.3004 22.9841 13.644 25.652C15.0604 28.4644 19.3418 26.4178 18.8003 23.5807" stroke="#00FFA3" stroke-width="1.67708" stroke-miterlimit="1.5" stroke-linecap="round" stroke-linejoin="round"/>
</svg>
