<svg width="39" height="36" viewBox="0 0 39 36" fill="none" xmlns="http://www.w3.org/2000/svg">
<path d="M16.0519 6.97201C17.0473 7.29361 18.2064 7.48524 19.1083 8.00593C23.5925 9.53229 22.3713 11.824 21.8093 12.6208C20.8895 13.9251 18.7031 14.674 17.2497 15.0217C15.0357 15.5512 12.346 15.3986 10.4497 14.0036C9.70695 13.4572 9.07092 13.0449 8.54136 12.2597C8.06268 11.5499 7.40271 10.664 7.26562 9.80355C7.00232 8.1511 8.42964 6.92951 9.82443 6.48367C10.8395 6.1592 11.7806 6.00124 12.8452 6.24978C13.9058 6.49741 15.0189 6.63824 16.0519 6.97201Z" fill="#42535D"/>
<path d="M17.8766 20.3142C19.5352 20.3798 21.1699 21.815 21.9529 23.199C22.4148 23.4657 22.5181 24.4198 22.2974 25.9515C22.1683 26.8481 20.7963 27.796 20.0773 28.1606C18.9681 28.7231 17.2306 28.8803 15.9965 28.7862C14.1852 28.6481 12.3188 27.2353 10.9071 26.2243C9.48236 25.2039 8.92903 23.7899 10.2127 22.48C11.6216 21.0424 13.5123 20.8497 15.4006 20.5378C16.2248 20.4017 17.0386 20.281 17.8766 20.3142Z" fill="#42535D"/>
<path d="M33.8756 13.3511C34.2767 13.5402 34.7098 13.7722 35.1076 14.0212C36.6708 14.9649 36.4697 15.3397 36.7568 15.9666C37.0413 16.5879 37.1479 16.7464 36.9011 17.3784C36.6438 18.0375 36.5751 18.6054 36.2 19.232C35.7636 19.9608 34.8839 20.6608 34.1401 21.0613C32.2831 22.0611 30.5481 22.3992 28.4992 22.7272C27.0975 22.9515 25.6919 22.1898 24.8336 21.0611C24.3199 20.3854 23.8499 19.5587 23.5104 18.7767C23.0462 17.7077 23.793 16.6219 24.4425 15.7945C25.5745 14.3523 27.1673 13.6072 28.9677 13.2999C30.6219 13.0176 32.287 12.6024 33.8756 13.3511Z" fill="#42535D"/>
</svg>
