<svg width="41" height="42" viewBox="0 0 41 42" fill="none" xmlns="http://www.w3.org/2000/svg">
<path fill-rule="evenodd" clip-rule="evenodd" d="M20.813 6.25833C12.6369 6.25833 6.00882 12.8864 6.00882 21.0625C6.00882 29.2386 12.6369 35.8667 20.813 35.8667C28.9891 35.8667 35.6172 29.2386 35.6172 21.0625C35.6172 12.8864 28.9891 6.25833 20.813 6.25833ZM0.625488 21.0625C0.625488 9.91325 9.66374 0.875 20.813 0.875C31.9622 0.875 41.0005 9.91325 41.0005 21.0625C41.0005 32.2117 31.9622 41.25 20.813 41.25C9.66374 41.25 0.625488 32.2117 0.625488 21.0625Z" fill="#F5BD33"/>
<path fill-rule="evenodd" clip-rule="evenodd" d="M20.813 15.7002C17.8515 15.7002 15.4507 18.101 15.4507 21.0625C15.4507 24.024 17.8515 26.4248 20.813 26.4248C23.7745 26.4248 26.1753 24.024 26.1753 21.0625C26.1753 18.101 23.7745 15.7002 20.813 15.7002ZM10.0884 21.0625C10.0884 15.1395 14.8899 10.3379 20.813 10.3379C26.736 10.3379 31.5376 15.1395 31.5376 21.0625C31.5376 26.9855 26.736 31.7871 20.813 31.7871C14.8899 31.7871 10.0884 26.9855 10.0884 21.0625Z" fill="#2F2965"/>
</svg>
