<svg width="48" height="53" viewBox="0 0 48 53" fill="none" xmlns="http://www.w3.org/2000/svg">
<path fill-rule="evenodd" clip-rule="evenodd" d="M42.7121 17.9723C44.0744 16.1849 46.4484 13.7733 46.7449 9.73932C47.0492 5.60036 42.7033 1.41603 38.2991 0.968174C33.7659 0.507013 30.759 3.14179 27.7508 6.40862C19.77 15.0745 8.07629 26.972 2.48814 34.4257C2.18137 34.8349 1.69682 42.4973 1.42633 46.5417C1.32092 48.1179 1.01053 50.0234 2.39361 51.1797C3.76863 52.3294 5.66969 51.8219 7.21281 51.3251C10.7163 50.197 14.0163 48.5091 17.3098 46.8884C18.6009 46.2531 34.9717 27.2931 42.7121 17.9723Z" fill="white" stroke="#2F2965" stroke-width="1.67708" stroke-miterlimit="1.5" stroke-linecap="round" stroke-linejoin="round"/>
<path fill-rule="evenodd" clip-rule="evenodd" d="M30.0258 4.14746C29.2608 4.8394 28.5187 5.60668 27.7766 6.41271C26.4293 7.8754 24.9764 9.43041 23.4651 11.04C23.6084 11.116 23.7505 11.1914 23.892 11.2658C29.1381 14.0203 34.3451 18.7327 37.7931 23.8592C39.6327 21.6907 41.3284 19.6737 42.7379 17.9764C42.8874 17.7803 43.0491 17.5767 43.2188 17.3643C40.3585 11.8011 35.7635 6.56553 30.0258 4.14746Z" fill="white" stroke="#2F2965" stroke-width="1.67708" stroke-miterlimit="1.5" stroke-linecap="round" stroke-linejoin="round"/>
<path d="M2.43286 34.5677C2.95489 34.3807 4.0412 34.3309 4.60576 34.3392C7.60189 34.3833 8.20456 37.6599 8.00825 40.0276C8.75058 39.464 9.66686 38.9563 10.6134 38.8517C13.393 38.5445 14.3704 41.0746 13.5514 43.3498C15.6732 42.7764 18.8376 43.9156 17.4438 46.789" stroke="#2F2965" stroke-width="1.67708" stroke-miterlimit="1.5" stroke-linecap="round" stroke-linejoin="round"/>
<path d="M1.60474 44.0881C3.3903 44.0359 5.2381 44.6714 6.79593 45.7377C8.41903 46.8488 9.72728 48.4276 10.3225 50.1835" stroke="#2F2965" stroke-width="1.67708" stroke-miterlimit="1.5" stroke-linecap="round" stroke-linejoin="round"/>
<path d="M7.99927 40.0197C10.0519 37.1569 13.5174 32.6656 16.1128 29.6556C20.2526 24.8547 24.8834 19.3572 29.2229 14.739" stroke="#2F2965" stroke-width="1.67708" stroke-miterlimit="1.5" stroke-linecap="round" stroke-linejoin="round"/>
<path fill-rule="evenodd" clip-rule="evenodd" d="M13.5544 43.3458C20.4237 35.8965 27.1261 26.6184 34.3128 19.4668L13.5544 43.3458Z" fill="white"/>
<path d="M13.5544 43.3458C20.4237 35.8965 27.1261 26.6184 34.3128 19.4668" stroke="#2F2965" stroke-width="1.67708" stroke-miterlimit="1.5" stroke-linecap="round" stroke-linejoin="round"/>
</svg>
