<svg width="51" height="27" viewBox="0 0 51 27" fill="none" xmlns="http://www.w3.org/2000/svg">
<path d="M7.83957 32.0588C-3.33757 17.6139 -1.6666 3.83746 11.7014 0.458326C15.7861 -0.581408 21.022 0.606868 23.9184 3.2062L25.4038 4.54299L27.5946 3.24333C40.2571 -4.40614 55.853 9.70453 49.2433 22.8126C43.2277 34.7324 23.6585 47.5434 19.6481 42.1962C18.4598 40.5995 19.0539 40.3767 22.2103 41.1565C25.2181 41.8991 39.1059 29.5709 42.5593 23.0725C46.7182 15.2745 45.9013 11.0413 39.2544 5.69412C36.5066 3.50325 32.2363 4.46872 28.8943 8.10779C26.2578 10.9299 23.5099 11.1527 21.2447 7.58793C14.8207 -2.43807 4.27477 5.50846 7.28257 18.0967C8.5451 23.2953 9.91911 25.8947 15.1549 32.8015C18.7197 37.4803 18.831 37.7031 17.6427 38.3343C15.3776 39.5597 11.85 37.2946 7.83957 32.0588Z" fill="#00C2FF"/>
<path d="M35.4299 10.5961C33.6103 10.2619 35.1327 8.21956 36.8409 8.8137C38.2519 9.33356 40.2201 10.1876 40.9999 12.3785C41.8539 14.6808 40.1457 16.9088 39.1802 16.6488C38.3261 16.426 38.0663 15.4606 38.1777 13.4925C38.2891 11.5244 37.2494 10.9303 35.4299 10.5961Z" fill="#00C2FF"/>
<path d="M39.5888 22.3669C37.1751 22.9239 35.3556 21.1044 36.4325 19.879C37.2494 18.9878 40.3314 18.9135 41.2226 19.8047C41.9653 20.5845 41.4826 21.9213 39.5888 22.3669Z" fill="#00C2FF"/>
</svg>
