<svg width="19" height="50" viewBox="0 0 19 50" fill="none" xmlns="http://www.w3.org/2000/svg">
<path d="M4.70483 5.88043C4.48093 6.11464 3.53133 7.20389 3.39804 8.60609C3.30984 9.53392 3.42914 10.4712 3.50999 11.3996C3.56837 12.0696 4.09575 14.874 3.938 15.8403C3.42674 18.9746 0.815421 21.457 0.840016 24.756C0.859381 27.3403 3.06375 29.1332 3.84782 31.4584C4.79586 34.2703 3.8956 37.2832 4.56998 40.1251C4.96534 41.7912 6.31284 42.634 7.24943 43.9406C8.40087 45.547 7.98191 45.6937 8.2779 47.7249C8.35719 48.2693 8.25472 49.0538 8.74224 49.3084C9.42581 49.6651 10.1443 48.6572 10.7992 48.2501C12.5868 47.1389 13.6494 45.0338 14.5697 43.2581C15.5026 41.4583 16.4467 39.0976 17.1185 37.146C17.4182 36.2757 18.0629 34.5187 18.0517 33.4033C18.0335 31.6146 16.8879 30.0186 16.3964 28.2987C15.784 26.1559 16.8968 23.9667 16.2159 21.7987C15.6575 20.0209 13.8365 18.9924 13.3269 17.1944C12.7887 15.2955 13.4942 13.1293 12.5145 11.3264C12.0642 10.4977 11.5352 9.71626 10.9905 8.94422L10.5125 8.27176C9.88074 7.38537 9.25219 6.4969 8.72273 5.54868C7.75066 3.80766 8.18333 1.86479 6.3756 0.583302C5.5145 -0.0269647 5.71399 1.66633 5.73156 1.81546L5.73202 1.81942C5.81486 2.52688 5.90179 3.04182 5.87592 3.75366C5.86334 4.09997 4.79572 5.78544 4.70483 5.88043Z" fill="#42535D"/>
</svg>
