<svg width="23" height="36" viewBox="0 0 23 36" fill="none" xmlns="http://www.w3.org/2000/svg">
<path d="M2.37891 34.6745C9.91523 24.2927 15.2598 12.2432 21.8089 1.24246" stroke="#00C2FF" stroke-width="1.67708" stroke-miterlimit="1.5" stroke-linecap="round" stroke-linejoin="round"/>
<path fill-rule="evenodd" clip-rule="evenodd" d="M11.6462 29.9942C7.9882 28.5093 4.49213 26.7258 0.866943 25.1845C1.46168 28.1217 0.954889 31.8982 1.94723 34.6894C2.1447 35.2456 4.5127 34.325 4.80841 34.2184C7.24146 33.3403 9.57162 31.3164 11.7627 29.9361" fill="#00C2FF"/>
<path d="M11.6462 29.9942C7.9882 28.5093 4.49213 26.7258 0.866943 25.1845C1.46168 28.1217 0.954889 31.8982 1.94723 34.6894C2.1447 35.2456 4.5127 34.325 4.80841 34.2184C7.24146 33.3403 9.57162 31.3164 11.7627 29.9361" stroke="#00C2FF" stroke-width="1.67708" stroke-miterlimit="1.5" stroke-linecap="round" stroke-linejoin="round"/>
</svg>
