<svg width="42" height="41" viewBox="0 0 42 41" fill="none" xmlns="http://www.w3.org/2000/svg">
<path fill-rule="evenodd" clip-rule="evenodd" d="M21.0625 6.00833C12.8864 6.00833 6.25833 12.6364 6.25833 20.8125C6.25833 28.9886 12.8864 35.6167 21.0625 35.6167C29.2386 35.6167 35.8667 28.9886 35.8667 20.8125C35.8667 12.6364 29.2386 6.00833 21.0625 6.00833ZM0.875 20.8125C0.875 9.66325 9.91325 0.625 21.0625 0.625C32.2117 0.625 41.25 9.66325 41.25 20.8125C41.25 31.9617 32.2117 41 21.0625 41C9.91325 41 0.875 31.9617 0.875 20.8125Z" fill="#F5BD33"/>
<path fill-rule="evenodd" clip-rule="evenodd" d="M21.0625 15.4502C18.101 15.4502 15.7002 17.851 15.7002 20.8125C15.7002 23.774 18.101 26.1748 21.0625 26.1748C24.024 26.1748 26.4248 23.774 26.4248 20.8125C26.4248 17.851 24.024 15.4502 21.0625 15.4502ZM10.3379 20.8125C10.3379 14.8895 15.1395 10.0879 21.0625 10.0879C26.9855 10.0879 31.7871 14.8895 31.7871 20.8125C31.7871 26.7355 26.9855 31.5371 21.0625 31.5371C15.1395 31.5371 10.3379 26.7355 10.3379 20.8125Z" fill="#E55733"/>
</svg>
