<svg width="223" height="219" viewBox="0 0 223 219" fill="none" xmlns="http://www.w3.org/2000/svg">
<path d="M132.308 189.188H73.8842C63.8638 189.188 55.6658 181.022 55.6658 171.042V119.628C55.6658 109.648 63.8638 101.482 73.8842 101.482H132.309C142.33 101.482 150.528 109.648 150.528 119.628V171.042C150.528 181.022 142.329 189.188 132.308 189.188Z" fill="white"/>
<path d="M132.309 101.482C142.329 101.482 150.527 109.647 150.527 119.627V171.041C150.527 181.022 142.329 189.187 132.309 189.187H73.8844C63.864 189.187 55.666 181.022 55.666 171.041V119.627C55.666 109.647 63.864 101.482 73.8844 101.482H132.309ZM132.309 98.6135H73.8844C71.0467 98.6135 68.288 99.1724 65.6848 100.274C63.1754 101.336 60.9202 102.853 58.9818 104.784C57.0433 106.715 55.5196 108.962 54.4533 111.46C53.3475 114.053 52.7864 116.801 52.7864 119.627V171.041C52.7864 173.868 53.3475 176.615 54.4533 179.208C55.5196 181.708 57.0425 183.954 58.9818 185.884C60.9202 187.815 63.1762 189.333 65.6848 190.395C68.288 191.496 71.0467 192.055 73.8844 192.055H132.31C135.147 192.055 137.906 191.496 140.509 190.395C143.019 189.333 145.274 187.816 147.212 185.884C149.151 183.954 150.674 181.707 151.741 179.208C152.847 176.615 153.408 173.868 153.408 171.041V119.627C153.408 116.801 152.847 114.053 151.741 111.46C150.674 108.961 149.151 106.715 147.212 104.784C145.274 102.854 143.018 101.336 140.509 100.274C137.906 99.1724 135.146 98.6135 132.309 98.6135Z" fill="#00227B"/>
<path d="M149.221 157.396C140.124 158.458 131.058 158.72 131.058 158.72C131.058 158.72 126.44 135.787 125.16 117.805C124.217 104.481 125.104 93.8778 131.058 97.336C133.797 98.9274 136.951 101.924 140.24 105.726C152.578 119.989 166.752 145.601 167.53 150.915C168.032 154.333 158.614 156.293 149.221 157.396Z" fill="white"/>
<path d="M129.84 160.247L129.591 159.014C129.563 158.873 126.739 144.782 124.912 130.192C123.834 121.59 123.308 114.488 123.346 109.083C123.397 101.701 124.474 97.5146 126.732 95.9076C127.723 95.202 129.41 94.6546 131.813 96.0502C139.733 100.652 149.784 115.313 155.071 123.642C158.598 129.198 161.973 135.038 164.578 140.086C166.412 143.643 168.671 148.371 169.012 150.699C169.112 151.375 169.045 152.401 168.165 153.445C166.892 154.954 164.248 156.136 159.844 157.162C156.615 157.914 152.466 158.561 147.511 159.086C139.123 159.973 131.181 160.209 131.102 160.211L129.84 160.247ZM128.995 98.1669C128.707 98.1669 128.555 98.2751 128.472 98.3332C127.496 99.0282 124.568 103.35 127.881 129.808C129.381 141.79 131.559 153.439 132.283 157.184C134.837 157.081 140.898 156.787 147.211 156.119C161.87 154.566 165.144 152.39 165.873 151.527C166.074 151.289 166.058 151.178 166.05 151.13C165.625 148.234 160.095 137.136 152.541 125.235C143.793 111.452 135.689 101.753 130.304 98.625C129.694 98.2701 129.278 98.1669 128.995 98.1669Z" fill="#00227B"/>
<path d="M84.7709 96.4902L82.9296 110.362L81.8822 118.249L79.6484 135.087C79.6484 135.087 75.5659 137.853 68.7748 140.044C66.2374 140.865 63.3149 141.598 60.0897 142.079C54.8175 142.869 48.7216 142.97 42.1173 141.624C25.1256 138.158 14.9283 125.587 10.5134 119.267C1.98051 107.067 0.667383 103.769 3.03941 98.6331C4.8503 94.6972 7.95294 93.9785 7.95294 93.9785C7.95294 93.9785 7.79991 90.8333 10.2995 89.7147C17.7907 86.3639 27.4409 95.3126 27.4409 95.3126C27.4409 95.3126 27.8004 85.6895 32.9715 87.9111C36.534 89.4427 37.342 99.9197 37.342 99.9197C37.342 99.9197 42.1239 106.04 49.7204 106.852C53.6903 107.276 59.1839 106.129 64.6396 104.463C64.7029 104.444 64.7671 104.426 64.8305 104.403C67.7381 103.509 70.6268 102.472 73.272 101.447C74.4584 100.989 75.5955 100.53 76.6618 100.091C81.4289 98.1226 84.7709 96.4902 84.7709 96.4902Z" fill="white"/>
<path opacity="0.35" d="M10.5108 119.267C14.9299 125.586 25.1255 138.159 42.1155 141.625C52.7579 143.793 62.084 142.2 68.7755 140.042C75.5665 137.853 79.6483 135.086 79.6483 135.086L79.9477 121.798C79.9477 121.798 75.3205 117.357 71.0109 119.168C65.8325 121.343 67.492 128.739 60.0962 130.796C39.5362 136.514 22.8341 126.067 17.4598 121.48C10.004 115.118 8.05898 111.111 7.00996 109.457C4.83869 106.036 3.1619 103.347 2.21655 100.939C1.2531 105.012 3.31 108.968 10.5108 119.267Z" fill="#00227B"/>
<path d="M52.3687 144.148C48.8209 144.148 45.288 143.793 41.8159 143.084C34.1782 141.526 27.0523 138.019 20.6372 132.658C16.5086 129.208 12.6885 124.988 9.28395 120.119C5.129 114.175 2.48794 110.093 1.28341 106.813C0.129079 103.67 0.243443 101.12 1.67669 98.0096C3.08773 94.9464 5.22115 93.5377 6.51042 92.9337C6.72105 91.3587 7.54134 89.3157 9.68546 88.3569C15.7772 85.6314 22.8069 89.8492 26.2863 92.4453C26.3201 92.2691 26.3579 92.0888 26.3982 91.9061C26.975 89.3297 27.9705 87.5809 29.3569 86.7098C30.2084 86.1747 31.6293 85.7117 33.5669 86.5451C35.5325 87.3908 36.9666 89.8812 37.9523 94.158C38.4566 96.3493 38.6993 98.4062 38.7906 99.3174C39.8487 100.511 43.9839 104.739 49.8815 105.369C60.6473 106.518 83.8772 95.2651 84.1108 95.1512C84.6061 94.9095 85.1952 94.9586 85.6428 95.2799C86.0904 95.6003 86.3249 96.1411 86.2533 96.6853L81.1341 135.281C81.0781 135.702 80.8453 136.079 80.4923 136.318C80.3212 136.434 76.2156 139.19 69.3892 141.411C65.3905 142.713 61.2767 143.56 57.1629 143.931C55.5643 144.076 53.9648 144.148 52.3687 144.148ZM8.2991 95.4266C8.10575 95.479 5.82094 96.1608 4.39674 99.2519C2.47889 103.415 2.95033 105.841 11.7399 118.414C20.0037 130.235 30.6108 137.755 42.4157 140.163C53.1717 142.356 62.5142 140.511 68.4578 138.577C73.4964 136.937 76.9709 134.981 78.2561 134.2L82.9261 98.9954C80.4866 100.105 76.4962 101.848 72.0179 103.52C62.0493 107.24 54.4931 108.859 49.5622 108.333C41.4276 107.465 36.3726 101.106 36.1611 100.836C35.9809 100.605 35.8723 100.326 35.8501 100.034C35.8485 100.01 35.6452 97.4654 35.0265 94.7923C33.9841 90.286 32.7368 89.4346 32.3797 89.2813C31.4862 88.897 31.1003 89.1387 30.9547 89.2297C29.6967 90.018 29.0154 93.2943 28.9331 95.3684C28.9101 95.9502 28.5481 96.4665 28.0075 96.6886C27.4662 96.9106 26.8458 96.7992 26.4171 96.4017C26.3283 96.3198 17.4038 88.1709 10.9114 91.076C9.41559 91.7455 9.44274 93.7647 9.44685 93.9097C9.49128 94.6456 9.02231 95.2741 8.2991 95.4266Z" fill="#00227B"/>
<path d="M28.6719 95.3111C28.7065 95.7299 28.644 96.1109 28.56 96.4412C28.5181 96.6116 28.4662 96.7591 28.4136 96.9107C28.3601 97.0525 28.3017 97.1967 28.2441 97.3254C28.008 97.8548 27.7529 98.2932 27.5102 98.7185C27.2666 99.1414 27.0322 99.5437 26.8141 99.9469L26.6545 100.25C26.6043 100.352 26.5508 100.453 26.5023 100.555L26.3608 100.863L26.2259 101.174L26.1033 101.491L25.9897 101.812C25.9511 101.919 25.9223 102.029 25.8877 102.138C25.8515 102.247 25.8244 102.359 25.7947 102.469C25.6812 102.915 25.5833 103.374 25.5265 103.847C25.4648 104.319 25.4253 104.803 25.4138 105.296C25.4015 105.543 25.4064 105.791 25.4039 106.043C25.3998 106.169 25.4105 106.294 25.4113 106.421C25.4138 106.548 25.4179 106.675 25.4171 106.803V106.812C25.4171 106.912 25.3365 106.992 25.2361 106.992C25.1661 106.992 25.1061 106.953 25.0765 106.894C24.8362 106.431 24.619 105.949 24.4512 105.446C24.2743 104.944 24.1476 104.421 24.0546 103.886C23.8719 102.816 23.8761 101.683 24.0768 100.577L24.1599 100.164C24.192 100.028 24.2274 99.8928 24.2611 99.756C24.2973 99.6207 24.3376 99.488 24.3755 99.3528C24.415 99.2192 24.4619 99.0889 24.5055 98.957C24.6857 98.4325 24.9086 97.9343 25.1382 97.4672C25.3669 97.0009 25.6104 96.5608 25.8079 96.179C26.0161 95.7922 26.1337 95.4783 26.2028 95.3087L26.3476 94.9538C26.5994 94.3384 27.3045 94.0426 27.9224 94.2933C28.3593 94.472 28.6349 94.8743 28.6719 95.3111Z" fill="#00227B"/>
<path d="M40.4719 142.648C40.0942 142.648 39.7297 142.44 39.5504 142.08C39.297 141.574 39.5043 140.959 40.0128 140.707C44.162 138.651 46.9972 132.234 48.21 122.15C49.1504 114.336 48.7596 107.068 48.7554 106.996C48.7242 106.431 49.1578 105.948 49.7247 105.916C50.2891 105.884 50.777 106.316 50.8091 106.881C50.8132 106.955 51.2139 114.378 50.2553 122.367C49.6885 127.094 48.7628 131.106 47.504 134.289C45.8749 138.41 43.6625 141.186 40.9293 142.541C40.7821 142.614 40.6257 142.648 40.4719 142.648Z" fill="#00227B"/>
<g opacity="0.35">
<g opacity="0.35">
<g opacity="0.35">
<g opacity="0.35">
<path opacity="0.35" d="M173.206 208.583V208.374C171.561 208.445 173.206 208.583 173.206 208.583Z" fill="#00227B"/>
</g>
</g>
</g>
</g>
<path d="M152.447 183.418H53.6417C53.6417 183.418 54.244 166.434 60.0889 142.079C62.4313 132.31 65.6195 121.357 69.9489 109.836C70.9888 107.071 72.0971 104.272 73.272 101.447C76.5573 93.564 80.3889 85.4914 84.8573 77.4187H121.232C124.926 84.0933 128.185 90.7647 131.059 97.3352C132.918 101.584 134.617 105.788 136.166 109.917C142.928 127.919 146.899 144.534 149.222 157.395C152.088 173.262 152.447 183.418 152.447 183.418Z" fill="white"/>
<path d="M138.883 122.584C140.792 124.707 141.665 127.179 142.472 129.661C142.877 130.903 143.276 132.147 143.656 133.396C143.847 134.021 144.043 134.644 144.213 135.274C144.389 135.903 144.559 136.534 144.73 137.164L145.23 139.058C145.395 139.69 145.561 140.321 145.716 140.956L146.625 144.766C146.773 145.402 146.935 146.034 147.08 146.671L147.514 148.58L147.959 150.487C148.108 151.122 148.263 151.757 148.403 152.394L149.26 156.215C149.408 156.851 149.534 157.492 149.67 158.13L150.072 160.047L150.272 161.005L150.373 161.485L150.466 161.965L150.842 163.886C150.968 164.527 151.097 165.167 151.232 165.806C151.362 166.446 151.493 167.086 151.63 167.725C152.202 170.276 152.62 172.86 152.794 175.477C152.816 175.804 152.842 176.13 152.857 176.459L152.899 177.443C152.921 178.1 152.939 178.757 152.929 179.418C152.925 180.078 152.91 180.738 152.867 181.401C152.829 182.064 152.773 182.727 152.673 183.395C152.654 183.524 152.533 183.612 152.404 183.593C152.316 183.58 152.247 183.52 152.217 183.443L152.216 183.44C151.744 182.19 151.358 180.935 150.994 179.679C150.814 179.052 150.642 178.422 150.475 177.794L150.234 176.849C150.159 176.533 150.081 176.219 150.002 175.903C149.696 174.642 149.426 173.378 149.183 172.107C149.066 171.471 148.96 170.834 148.863 170.195C148.758 169.556 148.662 168.917 148.563 168.278C148.466 167.638 148.363 167 148.26 166.361C148.15 165.724 148.027 165.089 147.903 164.453L147.53 162.548L147.437 162.072L147.337 161.597L147.138 160.647L146.74 158.747C146.605 158.114 146.479 157.479 146.334 156.848L145.483 153.059C145.346 152.426 145.187 151.798 145.036 151.169L144.571 149.283L144.095 147.401C144.018 147.087 143.93 146.775 143.846 146.463L143.59 145.526L142.562 141.781C142.207 140.536 141.843 139.294 141.497 138.047C141.324 137.423 141.151 136.799 140.983 136.174L140.858 135.706L140.726 135.238L140.465 134.303C140.117 133.057 139.787 131.805 139.462 130.551L139.223 129.609C139.144 129.295 139.056 128.983 138.972 128.67C138.805 128.044 138.665 127.41 138.559 126.765C138.455 126.119 138.382 125.464 138.354 124.793C138.339 124.458 138.337 124.119 138.35 123.775C138.363 123.431 138.385 123.082 138.446 122.723L138.448 122.709C138.471 122.573 138.601 122.481 138.737 122.504C138.796 122.514 138.847 122.544 138.883 122.584Z" fill="#00227B"/>
<path d="M53.4099 183.41C53.2577 183.073 53.1532 182.738 53.0553 182.401C52.9574 182.063 52.8842 181.73 52.8192 181.394C52.6875 180.722 52.6168 180.054 52.5773 179.388C52.5592 179.054 52.5468 178.721 52.5476 178.389C52.5485 178.058 52.5616 177.727 52.5773 177.397L52.6332 176.406C52.6505 176.076 52.6711 175.746 52.6982 175.416C52.8011 174.099 52.9014 172.779 53.0561 171.468C53.1261 170.811 53.2042 170.155 53.2816 169.499C53.3194 169.171 53.3704 168.845 53.4148 168.517L53.5539 167.536L53.8443 165.577C53.9463 164.925 54.0648 164.276 54.1759 163.625C54.403 162.324 54.6169 161.022 54.8761 159.728C55.1278 158.433 55.3582 157.134 55.6157 155.841C55.8774 154.548 56.1324 153.255 56.3842 151.96C56.4484 151.636 56.506 151.312 56.5759 150.989L56.7832 150.022L57.1971 148.089L57.6109 146.155C57.6463 145.993 57.6784 145.832 57.7154 145.671L57.8289 145.19L58.056 144.227L58.9635 140.376C59.0368 140.055 59.119 139.736 59.2005 139.416C59.2795 139.096 59.3601 138.776 59.4358 138.456C59.5888 137.814 59.7402 137.172 59.8859 136.529C60.0348 135.887 60.1804 135.242 60.3343 134.601C60.4824 133.958 60.6683 133.325 60.8542 132.691C61.0443 132.06 61.2459 131.431 61.4573 130.805C61.6696 130.18 61.895 129.558 62.1229 128.937L62.4751 128.01C62.5343 127.856 62.6001 127.703 62.6643 127.55C62.7293 127.398 62.7918 127.244 62.8593 127.092C63.1251 126.483 63.3941 125.877 63.6804 125.276C63.9635 124.674 64.2588 124.076 64.569 123.485C64.8792 122.893 65.2009 122.305 65.558 121.73C65.6263 121.619 65.7719 121.585 65.883 121.654C65.9587 121.701 65.999 121.783 65.9949 121.867V121.87C65.8468 124.575 65.3383 127.148 64.8364 129.72C64.7072 130.362 64.5756 131.002 64.4308 131.64C64.2852 132.277 64.1288 132.91 63.9626 133.54C63.6154 134.797 63.2666 136.054 62.9029 137.308C62.7211 137.934 62.5442 138.562 62.3689 139.191C62.2801 139.505 62.197 139.82 62.1122 140.135C62.0291 140.45 61.9436 140.765 61.8728 141.084L60.9752 144.893L60.7506 145.846L60.6387 146.322C60.6017 146.481 60.5696 146.641 60.535 146.799L60.1253 148.713L59.7155 150.626L59.5107 151.584C59.4424 151.902 59.3848 152.224 59.3214 152.543C58.27 157.656 57.5632 162.83 56.8762 167.994L56.6096 169.929C56.5265 170.575 56.4434 171.221 56.3529 171.866L55.8231 175.736C55.7268 176.381 55.6495 177.026 55.5622 177.671C55.517 177.993 55.4693 178.316 55.4092 178.637C55.35 178.958 55.2916 179.279 55.2192 179.6C55.0752 180.241 54.8966 180.88 54.6852 181.517C54.5799 181.836 54.454 182.156 54.3248 182.474C54.1923 182.792 54.0484 183.111 53.8706 183.428L53.869 183.432C53.7999 183.555 53.6444 183.599 53.521 183.53C53.4691 183.501 53.4321 183.458 53.4099 183.41Z" fill="#00227B"/>
<path d="M82.0993 161.99C76.4642 164.262 67.7429 163.787 61.7976 163.07C58.2318 162.641 55.7281 159.363 56.2539 155.823C56.7335 152.594 59.5877 150.245 62.8615 150.398C68.4225 150.657 76.7645 150.779 82.0474 149.612" fill="white"/>
<g opacity="0.35">
<g opacity="0.35">
<g opacity="0.35">
<g opacity="0.35">
<path opacity="0.35" d="M82.1007 161.989C76.464 164.265 67.7427 163.784 61.7974 163.072C58.2316 162.642 55.7287 159.363 56.2545 155.826C56.359 155.104 56.5869 154.426 56.9102 153.807C57.849 155.593 59.627 156.909 61.7974 157.171C67.732 157.888 76.4385 158.364 82.076 156.103L82.1007 161.989Z" fill="#00227B"/>
</g>
</g>
</g>
</g>
<path d="M70.8957 165.153C67.6351 165.153 64.3934 164.885 61.6174 164.551C59.4914 164.294 57.6048 163.219 56.3048 161.523C55.0024 159.823 54.4586 157.722 54.7729 155.606C55.0592 153.678 56.0481 151.933 57.5571 150.693C59.0677 149.452 60.9765 148.818 62.9314 148.91C71.1236 149.292 77.797 149.025 81.7224 148.158C82.5106 147.984 84.4688 147.978 85.6248 151.679C86.7989 155.44 86.6689 161.757 82.6612 163.373C79.3562 164.705 75.1107 165.153 70.8957 165.153ZM62.5578 151.882C60.1439 151.882 58.0919 153.633 57.7348 156.041C57.5398 157.354 57.8771 158.659 58.6851 159.713C59.4906 160.765 60.6597 161.431 61.9778 161.59C70.4794 162.614 77.4268 162.266 81.5381 160.608C82.7591 160.116 83.1096 158.145 83.2042 157.321C83.5333 154.436 82.6521 151.771 82.1001 151.126C76.7422 152.248 68.6685 152.162 62.7923 151.887C62.7133 151.883 62.6352 151.882 62.5578 151.882Z" fill="#00227B"/>
<path d="M125.203 161.99C130.838 164.262 139.559 163.787 145.505 163.07C149.071 162.641 151.574 159.363 151.048 155.823C150.569 152.594 147.715 150.245 144.441 150.398C138.88 150.657 130.538 150.779 125.255 149.612" fill="white"/>
<g opacity="0.35">
<g opacity="0.35">
<g opacity="0.35">
<g opacity="0.35">
<path opacity="0.35" d="M145.503 163.072C139.558 163.785 130.837 164.265 125.2 161.989L125.224 156.048C130.861 158.309 139.568 157.834 145.503 157.116C147.664 156.859 149.432 155.553 150.375 153.777C150.708 154.401 150.941 155.088 151.051 155.825C151.572 159.363 149.07 162.642 145.503 163.072Z" fill="#00227B"/>
</g>
</g>
</g>
</g>
<path d="M136.407 165.153C132.192 165.153 127.947 164.705 124.641 163.372C120.634 161.756 120.504 155.439 121.678 151.678C122.833 147.978 124.792 147.983 125.58 148.157C129.506 149.025 136.18 149.292 144.371 148.909C146.328 148.819 148.235 149.452 149.745 150.693C151.254 151.933 152.243 153.677 152.53 155.605C152.844 157.721 152.299 159.822 150.998 161.522C149.698 163.218 147.811 164.293 145.685 164.55C142.909 164.884 139.667 165.153 136.407 165.153ZM125.203 151.126C124.651 151.771 123.77 154.436 124.099 157.321C124.193 158.145 124.543 160.116 125.765 160.608C129.876 162.266 136.824 162.615 145.325 161.59C146.643 161.431 147.813 160.765 148.618 159.713C149.426 158.659 149.763 157.355 149.568 156.041C149.2 153.556 147.026 151.771 144.512 151.887C138.634 152.162 130.561 152.247 125.203 151.126Z" fill="#00227B"/>
<path d="M127.381 145.522V165.358C127.381 169.038 124.356 172.051 120.661 172.051H83.9836C80.2935 172.051 77.269 169.038 77.269 165.358V145.522C77.269 141.841 80.2935 138.834 83.9836 138.834H120.661C122.837 138.834 124.779 139.878 126.01 141.485C126.869 142.608 127.381 144.008 127.381 145.522Z" fill="white"/>
<g opacity="0.35">
<g opacity="0.35">
<g opacity="0.35">
<g opacity="0.35">
<path opacity="0.35" d="M127.38 145.522V165.358C127.38 169.038 124.357 172.049 120.662 172.049H83.9848C80.2898 172.049 77.267 169.038 77.267 165.358V157.939C82.7754 163.532 93.6087 167.044 103.544 167.096C106.737 167.113 109.312 164.598 109.54 161.426C109.542 161.394 109.545 161.362 109.547 161.331C109.792 158.548 112.093 156.295 114.89 156.094C118.076 155.865 120.766 158.209 121.081 161.255C125.89 155.342 124.481 145.064 126.011 141.485C126.87 142.609 127.38 144.007 127.38 145.522Z" fill="#00227B"/>
</g>
</g>
</g>
</g>
<path d="M120.663 173.54H83.9842C79.4557 173.54 75.7714 169.871 75.7714 165.36V145.522C75.7714 141.011 79.4557 137.342 83.9842 137.342H120.663C125.191 137.342 128.876 141.011 128.876 145.522V165.36C128.876 169.871 125.191 173.54 120.663 173.54ZM83.9842 140.323C81.1061 140.323 78.7646 142.655 78.7646 145.522V165.36C78.7646 168.227 81.1061 170.559 83.9842 170.559H120.663C123.541 170.559 125.882 168.227 125.882 165.36V145.522C125.882 142.655 123.541 140.323 120.663 140.323H83.9842Z" fill="#00227B"/>
<path d="M115.317 161.21C118.516 161.21 121.109 158.627 121.109 155.441C121.109 152.255 118.516 149.672 115.317 149.672C112.118 149.672 109.525 152.255 109.525 155.441C109.525 158.627 112.118 161.21 115.317 161.21Z" fill="#22A7F0"/>
<g opacity="0.7">
<g opacity="0.7">
<g opacity="0.7">
<g opacity="0.7">
<path opacity="0.7" d="M121.109 155.441C121.109 155.836 121.072 156.219 120.997 156.594C120.462 153.956 118.122 151.971 115.319 151.971C112.512 151.971 110.172 153.956 109.637 156.594C109.562 156.219 109.524 155.837 109.524 155.441C109.524 152.253 112.118 149.673 115.319 149.673C118.514 149.673 121.109 152.253 121.109 155.441Z" fill="white"/>
</g>
</g>
</g>
</g>
<g opacity="0.35">
<g opacity="0.35">
<g opacity="0.35">
<g opacity="0.35">
<path opacity="0.35" d="M121.108 155.44C121.108 158.625 118.515 161.207 115.317 161.207C112.119 161.207 109.527 158.625 109.527 155.44C109.527 154.703 109.666 154 109.924 153.353C110.758 155.505 112.86 157.028 115.318 157.028C117.777 157.028 119.877 155.505 120.712 153.353C120.969 154 121.108 154.702 121.108 155.44Z" fill="#00227B"/>
</g>
</g>
</g>
</g>
<path d="M115.317 162.328C111.505 162.328 108.403 159.238 108.403 155.441C108.403 151.643 111.505 148.554 115.317 148.554C119.13 148.554 122.232 151.643 122.232 155.441C122.232 159.238 119.13 162.328 115.317 162.328ZM115.317 150.79C112.743 150.79 110.648 152.877 110.648 155.441C110.648 158.005 112.743 160.091 115.317 160.091C117.892 160.091 119.986 158.005 119.986 155.441C119.986 152.877 117.892 150.79 115.317 150.79Z" fill="#00227B"/>
<path d="M98.9044 173.168C98.2841 173.168 97.7822 172.667 97.7822 172.05V158.463L90.4473 152.963V138.832C90.4473 138.214 90.95 137.715 91.5695 137.715C92.1891 137.715 92.6918 138.215 92.6918 138.832V151.846L100.027 157.347V172.05C100.027 172.667 99.524 173.168 98.9044 173.168Z" fill="#00227B"/>
<path d="M103.043 182.73C109.531 182.73 115.77 180.332 120.643 176.065C127.393 170.155 138.756 163.107 151.299 167.628C156.331 169.441 159.761 172.767 162.101 176.447C168.126 162.541 180.767 161.707 186.239 169.589C186.239 169.589 177.042 213.29 174.045 214.263C169.751 215.656 159.433 214.191 159.433 214.191C159.433 214.191 123.539 209.351 103.043 209.351C82.5461 209.351 46.6523 214.191 46.6523 214.191C46.6523 214.191 36.3348 215.655 32.0408 214.263C29.0435 213.29 19.8467 169.589 19.8467 169.589C25.3172 161.707 37.959 162.541 43.9849 176.447C46.324 172.766 49.7541 169.441 54.7869 167.628C67.3291 163.107 78.6923 170.155 85.4422 176.065C90.3154 180.332 96.5544 182.73 103.043 182.73Z" fill="white"/>
<g opacity="0.35">
<path d="M186.24 169.587C186.24 169.587 177.042 213.29 174.045 214.263C169.753 215.657 159.433 214.192 159.433 214.192C159.433 214.192 123.541 209.351 103.042 209.351C82.5481 209.351 46.6518 214.192 46.6518 214.192C46.6518 214.192 36.3352 215.657 32.0437 214.263C29.0464 213.29 19.8488 169.587 19.8488 169.587C20.7505 168.29 21.8431 167.228 23.0707 166.423C26.0195 179.237 30.2024 195.967 32.0437 196.564C36.3361 197.953 46.6518 196.489 46.6518 196.489C46.6518 196.489 82.5481 186.806 103.042 186.806C123.541 186.806 159.433 196.489 159.433 196.489C159.433 196.489 169.753 197.953 174.045 196.564C175.886 195.967 180.069 179.237 183.018 166.423C184.246 167.229 185.338 168.291 186.24 169.587Z" fill="#00227B"/>
</g>
<path d="M37.5747 216.35C35.3236 216.35 33.1243 216.182 31.5776 215.68C30.5228 215.338 29.6358 214.173 27.9714 209.009C26.9972 205.986 25.8281 201.776 24.4977 196.497C22.1018 186.993 19.7668 176.333 18.8741 172.192C18.4068 170.023 19.1201 167.78 20.7368 166.34C23.8403 163.572 28.0002 162.507 32.1486 163.417C34.7633 163.99 37.3073 165.35 39.5057 167.349C41.3265 169.005 42.9094 171.073 44.2292 173.519C46.9072 170.115 50.2789 167.667 54.2792 166.226C58.8118 164.592 63.5542 164.267 68.3756 165.261C72.268 166.064 76.2264 167.729 80.1394 170.21C80.8371 170.653 81.042 171.574 80.5985 172.269C80.155 172.964 79.2294 173.168 78.5317 172.726C70.4777 167.619 62.6607 166.376 55.2978 169.03C51.1453 170.527 47.7646 173.29 45.251 177.245C44.954 177.713 44.4209 177.977 43.8688 177.935C43.3159 177.891 42.8321 177.547 42.6116 177.039C40.094 171.228 36.046 167.325 31.5051 166.33C28.3079 165.629 25.1106 166.443 22.7337 168.563C21.9159 169.292 21.5588 170.443 21.8015 171.568C22.644 175.477 24.8523 185.563 27.1527 194.778C28.4173 199.843 29.5379 203.964 30.4841 207.025C31.8087 211.312 32.5007 212.569 32.7467 212.92C36.1282 213.864 43.7339 213.102 46.4424 212.717C46.4457 212.716 46.449 212.716 46.4523 212.716C46.8118 212.667 82.6817 207.862 103.043 207.862C123.406 207.862 159.275 212.667 159.635 212.716C159.638 212.716 159.642 212.716 159.645 212.717C162.355 213.102 169.959 213.864 173.341 212.92C173.583 212.576 174.256 211.354 175.536 207.243C176.46 204.278 177.554 200.283 178.788 195.367C180.988 186.603 183.096 177.067 184.158 172.163C184.506 170.556 183.901 168.909 182.618 167.966C180.168 166.168 177.132 165.631 174.071 166.455C169.684 167.636 165.921 171.395 163.476 177.04C163.256 177.547 162.773 177.892 162.219 177.935C161.665 177.979 161.134 177.713 160.837 177.246C158.323 173.291 154.943 170.527 150.791 169.031C143.363 166.354 135.479 167.64 127.356 172.855C126.661 173.3 125.735 173.101 125.287 172.409C124.839 171.717 125.039 170.794 125.734 170.348C129.671 167.821 133.655 166.119 137.575 165.291C142.444 164.262 147.233 164.577 151.809 166.227C155.81 167.668 159.181 170.117 161.86 173.521C164.672 168.316 168.665 164.821 173.29 163.577C177.194 162.525 181.241 163.25 184.395 165.566C186.624 167.204 187.68 170.039 187.085 172.791C185.961 177.986 183.733 188.052 181.441 197.088C180.142 202.212 179 206.295 178.048 209.221C176.424 214.214 175.552 215.345 174.509 215.682C169.958 217.159 159.75 215.744 159.23 215.67C158.667 215.594 123.145 210.844 103.044 210.844C82.9401 210.844 47.4215 215.594 46.8587 215.67C46.5131 215.717 41.9476 216.35 37.5747 216.35Z" fill="#00227B"/>
<path d="M171.379 214.263H174.045C177.175 214.263 180.013 212.435 181.287 209.588C185.277 200.687 192.553 181.131 185.738 169.197C185.54 168.848 185.328 168.513 185.103 168.192C185.103 168.192 178.56 162.265 173.86 170.649C169.47 178.483 160.254 211.976 171.379 214.263Z" fill="#AFAFB2"/>
<g opacity="0.7">
<g opacity="0.7">
<g opacity="0.7">
<g opacity="0.7">
<path opacity="0.7" d="M171.453 176.232C171.57 176.045 171.688 175.868 171.802 175.703C177.582 167.318 185.627 173.245 185.627 173.245C185.903 173.567 186.165 173.902 186.407 174.25C187.214 175.399 187.859 176.618 188.364 177.894C188.038 174.759 187.224 171.796 185.738 169.197C185.54 168.849 185.328 168.514 185.103 168.193C185.103 168.193 178.561 162.265 173.86 170.65C173.147 171.92 172.31 173.858 171.453 176.232Z" fill="white"/>
</g>
</g>
</g>
</g>
<path d="M188.328 178.788C188.261 178.788 188.193 178.782 188.123 178.77L171.77 176.051C171.098 175.94 170.644 175.307 170.756 174.636C170.868 173.967 171.505 173.514 172.176 173.626L188.529 176.345C189.201 176.456 189.655 177.09 189.544 177.76C189.443 178.362 188.921 178.788 188.328 178.788Z" fill="#00227B"/>
<path d="M188.224 187.588C188.169 187.588 188.114 187.585 188.058 187.576L168.928 185.015C168.253 184.925 167.779 184.306 167.869 183.633C167.96 182.96 168.581 182.488 169.257 182.578L188.387 185.14C189.063 185.23 189.537 185.849 189.446 186.522C189.363 187.14 188.833 187.588 188.224 187.588Z" fill="#00227B"/>
<path d="M186.537 196.207C186.487 196.207 186.437 196.204 186.386 196.198L166.966 193.831C166.29 193.748 165.808 193.135 165.891 192.461C165.974 191.788 166.588 191.308 167.265 191.39L186.685 193.758C187.361 193.841 187.843 194.454 187.76 195.127C187.684 195.751 187.152 196.207 186.537 196.207Z" fill="#00227B"/>
<path d="M183.457 205.607C183.42 205.607 183.383 205.606 183.345 205.603L165.983 204.042C165.304 203.982 164.804 203.383 164.865 202.707C164.926 202.031 165.526 201.532 166.205 201.594L183.567 203.154C184.246 203.215 184.747 203.813 184.685 204.489C184.627 205.127 184.088 205.607 183.457 205.607Z" fill="#00227B"/>
<g opacity="0.35">
<g opacity="0.35">
<g opacity="0.35">
<g opacity="0.35">
<path opacity="0.35" d="M171.378 214.263H174.044C177.174 214.263 180.012 212.434 181.286 209.588C182.318 207.281 183.573 204.263 184.746 200.845C183.145 203.49 179.894 205.167 176.324 205.167H173.146C168.625 204.387 166.923 199.97 166.856 194.181C165.327 203.953 165.747 213.105 171.378 214.263Z" fill="#00227B"/>
</g>
</g>
</g>
</g>
<path d="M174.045 215.492H171.379C171.296 215.492 171.212 215.484 171.13 215.467C168.975 215.023 167.347 213.632 166.29 211.33C163.798 205.903 165.009 196.449 166.464 189.474C168.243 180.949 170.989 173.25 172.783 170.05C174.432 167.108 176.509 165.415 178.956 165.017C182.71 164.407 185.804 167.165 185.934 167.282C186.002 167.344 186.063 167.413 186.116 167.488C186.362 167.839 186.596 168.21 186.813 168.589C189.928 174.044 190.588 181.505 188.778 190.764C187.305 198.292 184.505 205.428 182.415 210.088C180.945 213.371 177.66 215.492 174.045 215.492ZM171.514 213.033H174.045C176.686 213.033 179.087 211.485 180.16 209.088C182.197 204.544 184.925 197.595 186.354 190.295C188.049 181.63 187.481 174.735 184.666 169.804C184.513 169.536 184.349 169.273 184.179 169.023C183.717 168.647 181.616 167.068 179.34 167.446C177.679 167.722 176.198 169.001 174.939 171.249C173.278 174.211 170.591 181.78 168.882 189.974C166.931 199.325 166.807 206.547 168.535 210.308C169.236 211.835 170.211 212.728 171.514 213.033Z" fill="#00227B"/>
<path d="M34.7082 214.263H32.0425C28.9127 214.263 26.075 212.435 24.8005 209.588C20.8101 200.687 13.5345 181.131 20.3494 169.197C20.5477 168.848 20.7599 168.513 20.9846 168.192C20.9846 168.192 27.5272 162.265 32.2276 170.649C36.6179 178.483 45.8328 211.976 34.7082 214.263Z" fill="#AFAFB2"/>
<g opacity="0.7">
<g opacity="0.7">
<g opacity="0.7">
<g opacity="0.7">
<path opacity="0.7" d="M34.6334 176.232C34.5158 176.045 34.3981 175.868 34.2838 175.703C28.5047 167.318 20.4589 173.245 20.4589 173.245C20.1833 173.567 19.9208 173.902 19.6789 174.25C18.8718 175.399 18.2268 176.618 17.7224 177.894C18.0482 174.759 18.8619 171.796 20.3478 169.197C20.5461 168.849 20.7584 168.514 20.983 168.193C20.983 168.193 27.5256 162.265 32.2261 170.65C32.9386 171.92 33.7761 173.858 34.6334 176.232Z" fill="white"/>
</g>
</g>
</g>
</g>
<path d="M17.7582 178.788C17.1658 178.788 16.6433 178.362 16.5421 177.761C16.4302 177.091 16.8836 176.458 17.5566 176.346L33.9098 173.627C34.582 173.515 35.218 173.967 35.3299 174.637C35.4418 175.306 34.9884 175.94 34.3154 176.052L17.9622 178.771C17.8939 178.783 17.8256 178.788 17.7582 178.788Z" fill="#00227B"/>
<path d="M17.8615 187.588C17.2527 187.588 16.7228 187.14 16.6397 186.523C16.5492 185.85 17.0231 185.231 17.6986 185.141L36.8295 182.579C37.5058 182.488 38.1262 182.96 38.2175 183.633C38.308 184.306 37.8341 184.925 37.1586 185.015L18.0277 187.577C17.9718 187.585 17.9167 187.588 17.8615 187.588Z" fill="#00227B"/>
<path d="M19.5498 196.207C18.9352 196.207 18.4029 195.751 18.3263 195.127C18.2432 194.453 18.7246 193.84 19.4017 193.758L38.8214 191.39C39.4977 191.308 40.1131 191.787 40.1962 192.461C40.2793 193.135 39.798 193.748 39.1208 193.831L19.7012 196.198C19.6502 196.205 19.5992 196.207 19.5498 196.207Z" fill="#00227B"/>
<path d="M22.6298 205.607C21.9979 205.607 21.4598 205.127 21.4022 204.489C21.3413 203.813 21.8416 203.215 22.5204 203.154L39.8823 201.594C40.5619 201.533 41.1609 202.031 41.2226 202.707C41.2834 203.383 40.7832 203.981 40.1044 204.042L22.7425 205.602C22.7047 205.606 22.6668 205.607 22.6298 205.607Z" fill="#00227B"/>
<g opacity="0.35">
<g opacity="0.35">
<g opacity="0.35">
<g opacity="0.35">
<path opacity="0.35" d="M34.7074 214.263H32.0416C28.9118 214.263 26.0741 212.434 24.7997 209.588C23.7679 207.281 22.5132 204.263 21.34 200.845C22.9402 203.49 26.1918 205.167 29.7618 205.167H32.9393C37.4612 204.387 39.1626 199.97 39.2301 194.181C40.7588 203.953 40.3384 213.105 34.7074 214.263Z" fill="#00227B"/>
</g>
</g>
</g>
</g>
<path d="M34.7076 215.492H32.0418C28.4275 215.492 25.1422 213.371 23.6727 210.088C21.5837 205.429 18.783 198.293 17.3103 190.765C15.4994 181.506 16.1601 174.045 19.2751 168.589C19.4914 168.21 19.7259 167.84 19.9711 167.489C20.0238 167.413 20.0847 167.345 20.1529 167.283C20.2829 167.165 23.3773 164.408 27.1308 165.018C29.5777 165.416 31.6551 167.109 33.304 170.051C35.0976 173.251 37.844 180.95 39.6228 189.475C41.0782 196.45 42.2893 205.904 39.7972 211.331C38.7399 213.633 37.1117 215.024 34.9569 215.467C34.8746 215.484 34.7907 215.492 34.7076 215.492ZM21.9071 169.024C21.7368 169.274 21.5739 169.536 21.4208 169.804C18.6053 174.735 18.0368 181.629 19.7325 190.296C21.1608 197.596 23.8883 204.544 25.9263 209.088C27 211.486 29.4 213.034 32.041 213.034H34.5727C35.8751 212.729 36.8509 211.836 37.5519 210.308C39.2788 206.547 39.1563 199.325 37.2055 189.974C35.4958 181.78 32.8087 174.211 31.1483 171.249C29.8887 169.002 28.4077 167.722 26.7474 167.446C24.4749 167.069 22.3752 168.643 21.9071 169.024Z" fill="#00227B"/>
<path d="M64.7988 213.141C64.6235 213.141 64.4458 213.1 64.2796 213.013C63.73 212.727 63.5177 212.051 63.8057 211.504C68.493 202.584 68.5621 192.552 64.0114 181.688C60.5788 173.494 55.6636 167.887 55.6143 167.831C55.2045 167.368 55.249 166.662 55.7138 166.253C56.1787 165.845 56.8879 165.888 57.2977 166.351C57.5075 166.588 62.4761 172.246 66.0568 180.764C68.1696 185.789 69.3478 190.763 69.5601 195.546C69.8267 201.56 68.5596 207.278 65.7943 212.54C65.5936 212.923 65.2028 213.141 64.7988 213.141Z" fill="#00227B"/>
<path d="M141.743 213.141C141.338 213.141 140.948 212.923 140.747 212.541C137.982 207.278 136.715 201.561 136.982 195.547C137.194 190.764 138.372 185.79 140.485 180.764C144.066 172.247 149.034 166.588 149.244 166.352C149.655 165.889 150.364 165.845 150.829 166.254C151.293 166.662 151.338 167.368 150.927 167.831C150.878 167.887 145.963 173.494 142.53 181.688C137.98 192.552 138.049 202.584 142.736 211.504C143.023 212.051 142.811 212.726 142.262 213.013C142.096 213.1 141.918 213.141 141.743 213.141Z" fill="#00227B"/>
<g opacity="0.35">
<path d="M140.24 105.726C138.945 107.202 137.584 108.603 136.165 109.919C132.798 113.042 129.108 115.7 125.16 117.806C118.492 121.369 111.094 123.367 103.303 123.404C95.692 123.437 88.4476 121.596 81.8812 118.249C77.5814 116.054 73.5737 113.217 69.9478 109.837C68.1443 108.152 66.4338 106.337 64.8286 104.403C67.7363 103.509 70.625 102.472 73.2702 101.447C76.5554 93.5647 80.387 85.4921 84.8555 77.4194H121.231C124.924 84.0941 128.183 90.7654 131.057 97.336C133.797 98.9274 136.951 101.924 140.24 105.726Z" fill="#00227B"/>
</g>
<path d="M158.59 69.7336C157.957 69.8016 157.388 69.3451 157.32 68.7142L153.77 35.8089C153.701 35.1779 154.16 34.6117 154.793 34.5436C161.439 33.8323 167.405 38.6214 168.119 45.2403L169.331 56.4613C170.045 63.0803 165.236 69.0223 158.59 69.7336Z" fill="white"/>
<path d="M158.465 70.0236C158.138 70.0236 157.823 69.9138 157.565 69.7065C157.266 69.4664 157.079 69.1247 157.038 68.7444L153.488 35.8392C153.447 35.4589 153.557 35.0852 153.798 34.7878C154.039 34.4903 154.382 34.3035 154.764 34.2625C161.556 33.5356 167.673 38.4467 168.403 45.2107L169.613 56.4318C169.967 59.7081 169.018 62.9253 166.942 65.4911C164.866 68.0569 161.91 69.6639 158.621 70.0162L158.59 69.7343L158.621 70.0162C158.569 70.0212 158.516 70.0236 158.465 70.0236ZM156.096 34.7566C155.675 34.7566 155.252 34.7788 154.825 34.8247C154.593 34.8492 154.386 34.9623 154.241 35.1418C154.095 35.3221 154.028 35.5474 154.053 35.7777L157.603 68.683C157.628 68.9132 157.741 69.1197 157.922 69.2648C158.103 69.4098 158.33 69.4762 158.561 69.4516C161.7 69.1156 164.518 67.5824 166.5 65.1346C168.481 62.6869 169.386 59.6171 169.049 56.4908L167.838 45.2697C167.187 39.2425 162.051 34.7566 156.096 34.7566Z" fill="#00227B"/>
<g opacity="0.35">
<g opacity="0.35">
<g opacity="0.35">
<g opacity="0.35">
<path opacity="0.35" d="M168.763 51.1995L169.332 56.4621C170.045 63.0786 165.237 69.0222 158.591 69.736C157.957 69.8048 157.389 69.3443 157.321 68.7141L156.374 59.967C156.594 60.3465 157.025 60.5792 157.49 60.5333L158.273 60.4472C163.524 59.8859 167.631 56.0549 168.763 51.1995Z" fill="#00227B"/>
</g>
</g>
</g>
</g>
<path d="M158.463 71.3177C157.841 71.3177 157.242 71.1079 156.751 70.7137C156.181 70.2573 155.825 69.6066 155.747 68.883L152.197 35.9778C152.119 35.2542 152.328 34.5429 152.787 33.9758C153.245 33.4087 153.898 33.0539 154.625 32.976C162.127 32.1729 168.887 37.5995 169.694 45.0723L170.904 56.2934C171.295 59.913 170.247 63.4679 167.953 66.3033C165.659 69.1379 162.394 70.9137 158.759 71.3021C158.661 71.3119 158.562 71.3177 158.463 71.3177ZM158.423 68.166H158.423C158.423 68.166 158.423 68.166 158.423 68.166ZM155.392 36.0745L158.849 68.1127C161.471 67.7259 163.816 66.3918 165.489 64.3243C167.252 62.1453 168.058 59.4131 167.758 56.6302L166.547 45.4091C165.943 39.8072 160.986 35.7008 155.392 36.0745Z" fill="#00227B"/>
<path d="M45.7453 46.2155C46.3788 46.1474 46.9474 46.6039 47.0157 47.2349L50.5659 80.1402C50.6342 80.7712 50.1759 81.3374 49.5424 81.4054C42.8969 82.1167 36.9311 77.3277 36.2169 70.7088L35.0066 59.4877C34.2908 52.8688 39.0999 46.9268 45.7453 46.2155Z" fill="white"/>
<path d="M48.2393 81.7586C41.9979 81.7594 36.6145 77.0573 35.9333 70.7391L34.723 59.518C33.9932 52.7541 38.924 46.6605 45.7151 45.9336L45.7455 46.2155L45.7151 45.9336C46.5025 45.8492 47.2133 46.4195 47.2981 47.2046L50.8483 80.1098C50.9331 80.8949 50.3604 81.6021 49.5722 81.6865C49.1255 81.7349 48.6795 81.7586 48.2393 81.7586ZM45.869 46.4916C45.8377 46.4916 45.8073 46.4933 45.7752 46.4966C39.2959 47.1898 34.5913 53.004 35.2882 59.4574L36.4985 70.6785C37.1946 77.1319 43.0312 81.8176 49.5113 81.1244C49.9877 81.0735 50.3341 80.6458 50.2831 80.1713L46.7329 47.266C46.6851 46.8219 46.3067 46.4916 45.869 46.4916Z" fill="#00227B"/>
<g opacity="0.35">
<g opacity="0.35">
<g opacity="0.35">
<g opacity="0.35">
<path opacity="0.35" d="M49.5841 71.0111L50.5682 80.14C50.6373 80.771 50.1749 81.3373 49.5422 81.4053C46.0537 81.7774 42.7494 80.6358 40.296 78.5068C38.0803 76.5843 36.5582 73.8522 36.2184 70.7103L35.7083 65.9819C38.0424 69.9285 42.5569 72.3681 47.4293 71.8478L48.6347 71.7183C49.074 71.6707 49.422 71.388 49.5841 71.0111Z" fill="#00227B"/>
</g>
</g>
</g>
</g>
<path d="M48.2386 83.0516C41.3422 83.0524 35.3953 77.8578 34.6424 70.8767L33.4321 59.6556C32.6258 52.1828 38.0742 45.45 45.5769 44.6469C47.076 44.4863 48.4286 45.5712 48.5899 47.0651L52.1401 79.9712C52.3014 81.4659 51.212 82.8115 49.7113 82.9721C49.2168 83.0262 48.7248 83.0516 48.2386 83.0516ZM45.4881 47.8371C39.9427 48.6566 35.9753 53.7176 36.5792 59.3196L37.7895 70.5407C38.3942 76.1426 43.3506 80.2482 48.9445 79.8753L45.4881 47.8371Z" fill="#00227B"/>
<path d="M102.174 114.37C133.445 114.37 158.796 89.1208 158.796 57.974C158.796 26.8271 133.445 1.57764 102.174 1.57764C70.9019 1.57764 45.5511 26.8271 45.5511 57.974C45.5511 89.1208 70.9019 114.37 102.174 114.37Z" fill="white"/>
<path d="M102.119 114.655C95.1765 114.655 88.3945 113.415 81.9284 110.961C75.0526 108.351 68.8235 104.485 63.4122 99.4715C58.0009 94.4571 53.6814 88.5471 50.5722 81.9052C47.3535 75.0282 45.5813 67.6644 45.304 60.0178C45.0268 52.3713 46.2617 44.8993 48.9744 37.8092C51.594 30.9608 55.4758 24.7566 60.5095 19.3669C65.5431 13.9772 71.4785 9.67414 78.1478 6.57734C85.0525 3.37155 92.4458 1.6064 100.123 1.33024C107.8 1.05408 115.302 2.28411 122.421 4.98592C129.296 7.59513 135.526 11.4614 140.937 16.475C146.348 21.4893 150.668 27.3994 153.777 34.0413C156.996 40.9183 158.768 48.2821 159.045 55.9286C159.322 63.5752 158.087 71.0471 155.375 78.1373C152.755 84.9856 148.873 91.1899 143.839 96.5796C138.804 101.969 132.871 106.271 126.202 109.368C119.297 112.574 111.904 114.339 104.227 114.615C103.522 114.642 102.819 114.655 102.119 114.655ZM102.2 1.85962C101.516 1.85962 100.833 1.87191 100.143 1.8965C69.0983 3.01262 44.7528 29.0761 45.8726 59.9965C46.4148 74.9749 52.7813 88.847 63.7989 99.056C74.3064 108.793 87.8466 114.087 102.123 114.088C102.816 114.088 103.509 114.075 104.205 114.05C119.243 113.51 133.171 107.169 143.421 96.1952C153.671 85.2216 159.017 70.9291 158.475 55.9508C157.381 25.717 132.334 1.85962 102.2 1.85962Z" fill="#00227B"/>
<g opacity="0.35">
<g opacity="0.35">
<g opacity="0.35">
<g opacity="0.35">
<path opacity="0.35" d="M157.936 48.1584C158.388 50.6939 158.665 53.2916 158.762 55.941C159.885 87.0672 135.466 113.21 104.215 114.335C72.9642 115.454 46.7165 91.1326 45.5868 60.0073C45.5539 59.1124 45.5424 58.2159 45.5531 57.3317C50.3613 84.6301 74.7619 104.904 103.355 103.877C133.708 102.785 157.612 78.0947 157.936 48.1584Z" fill="#00227B"/>
</g>
</g>
</g>
</g>
<path d="M102.119 115.948C95.0173 115.948 88.0806 114.679 81.4664 112.169C74.4343 109.5 68.062 105.546 62.5281 100.418C56.9942 95.2897 52.576 89.2444 49.396 82.4509C46.1033 75.4166 44.2908 67.8839 44.0078 60.0637C43.7247 52.2434 44.9877 44.6002 47.7628 37.3478C50.4426 30.3438 54.4124 23.9969 59.5612 18.4851C64.7101 12.9733 70.778 8.57193 77.5995 5.40548C84.6621 2.12594 92.2249 0.320632 100.076 0.0387326C107.929 -0.243167 115.602 1.01473 122.883 3.77882C129.916 6.44785 136.288 10.4018 141.822 15.5301C147.356 20.6584 151.774 26.7036 154.954 33.4971C158.247 40.5315 160.059 48.0641 160.342 55.8844C160.625 63.7046 159.362 71.3479 156.587 78.6002C153.907 85.6043 149.937 91.9511 144.789 97.4629C139.64 102.975 133.57 107.375 126.75 110.543C119.687 113.822 112.124 115.627 104.273 115.909C103.553 115.935 102.834 115.948 102.119 115.948ZM102.201 3.15356C101.532 3.15356 100.865 3.16585 100.191 3.18962C69.8614 4.27952 46.077 29.7423 47.1713 59.9506C47.7011 74.584 53.9212 88.1356 64.6846 98.1103C74.9502 107.623 88.1777 112.795 102.126 112.795C102.802 112.795 103.48 112.783 104.16 112.758C118.852 112.231 132.458 106.035 142.473 95.3151C152.487 84.5947 157.71 70.6316 157.179 55.9983C156.109 26.4603 131.639 3.15356 102.201 3.15356Z" fill="#00227B"/>
<path d="M158.633 57.3948C159.2 68.4159 156.133 78.8322 150.426 87.6113C146.146 94.1933 127.785 106.267 104.417 107.669C82.7494 108.968 62.4346 98.4628 57.503 92.3511C50.9242 84.1982 46.8062 74.1489 46.2393 63.1278C44.7395 33.9618 69.2767 20.5872 100.315 19.004C131.352 17.4207 157.133 28.2288 158.633 57.3948Z" fill="#020307"/>
<path d="M100.656 108.864C89.8815 108.864 80.5111 106.19 74.291 103.8C66.4147 100.774 59.4912 96.5468 56.6535 93.0296C49.6888 84.3989 45.7116 74.0776 45.1513 63.1827C44.7794 55.9533 45.9765 49.3934 48.7072 43.6849C51.2784 38.3124 55.2219 33.6578 60.4299 29.8489C69.9444 22.8899 83.7166 18.7654 100.257 17.9222C116.799 17.079 130.922 19.78 141.1 25.7343C146.671 28.9933 151.072 33.2226 154.18 38.3058C157.483 43.7062 159.346 50.1104 159.718 57.3398C160.278 68.2347 157.379 78.906 151.337 88.2004C148.827 92.0618 142.591 96.7951 135.065 100.552C128.454 103.852 117.781 107.953 104.481 108.75C103.189 108.827 101.912 108.864 100.656 108.864ZM106.098 19.9373C104.225 19.9373 102.316 19.9865 100.369 20.0856C84.2538 20.9076 70.8889 24.8877 61.7176 31.5952C51.4783 39.0843 46.6355 49.6752 47.3242 63.072C47.8606 73.5089 51.6733 83.3991 58.3492 91.6726C60.3353 94.1343 65.9071 98.2579 75.0743 101.779C81.8185 104.37 92.3712 107.307 104.351 106.588C117.284 105.812 127.663 101.823 134.092 98.6143C142.707 94.3137 147.783 89.6821 149.513 87.0229C155.305 78.1135 158.084 67.8873 157.547 57.4504C156.858 44.0536 150.954 34.011 140 27.6027C131.373 22.5563 119.735 19.9373 106.098 19.9373Z" fill="#00227B"/>
<g opacity="0.5">
<g opacity="0.5">
<g opacity="0.5">
<g opacity="0.5">
<path d="M147.36 55.2866C148.066 49.8198 145.415 44.9746 141.438 44.4645C137.461 43.9545 133.664 47.9727 132.957 53.4396C132.25 58.9064 134.902 63.7516 138.879 64.2616C142.856 64.7717 146.653 60.7534 147.36 55.2866Z" fill="white"/>
</g>
</g>
</g>
</g>
<g opacity="0.5">
<g opacity="0.5">
<g opacity="0.5">
<g opacity="0.5">
<path d="M136.105 75.6066C136.775 73.1662 135.613 70.724 133.51 70.1517C131.408 69.5794 129.16 71.0938 128.491 73.5342C127.821 75.9746 128.983 78.4168 131.086 78.9891C133.188 79.5614 135.436 78.047 136.105 75.6066Z" fill="white"/>
</g>
</g>
</g>
</g>
<g opacity="0.35">
<path d="M146.304 30.7429C153.509 36.9218 158.028 45.6795 158.632 57.3931C159.199 68.4167 156.131 78.8322 150.427 87.6113C146.146 94.1933 127.783 106.267 104.415 107.671C96.1645 108.169 88.1121 106.951 81.0265 104.913C109.714 102.577 132.076 87.767 137.382 79.6034C144.628 68.4609 148.518 55.2395 147.797 41.2543C147.608 37.5159 147.095 34.0159 146.304 30.7429Z" fill="#020307"/>
</g>
<path d="M49.1918 39.558C48.8726 39.558 48.5517 39.4588 48.2769 39.2532C47.6302 38.768 47.4813 37.8691 47.9215 37.2061C50.2713 33.3611 53.2719 29.8472 56.8394 26.7627C60.3131 23.7601 64.3528 21.1386 68.8459 18.9711C73.2452 16.8495 78.1078 15.1499 83.2977 13.9191C88.4408 12.6997 93.9311 11.9343 99.618 11.6442C105.211 11.359 110.692 11.5516 115.907 12.2154C121.17 12.8857 126.174 14.0387 130.779 15.6408C135.491 17.2806 139.803 19.3981 143.594 21.9344C147.491 24.5419 150.862 27.6084 153.615 31.0494C154.096 31.5796 154.145 32.3917 153.695 32.9817C153.186 33.6488 152.231 33.7782 151.561 33.2718L151.402 33.1538L151.282 33.0014C141.089 20.2044 122.314 13.5241 99.7735 14.6738C77.1081 15.8301 59.1489 24.6313 50.5 38.8205L50.4605 38.8852L50.4087 38.9532C50.1108 39.349 49.6542 39.558 49.1918 39.558Z" fill="#00227B"/>
<g opacity="0.5">
<g opacity="0.5">
<g opacity="0.5">
<g opacity="0.5">
<path d="M59.7515 79.8345C59.7515 79.8345 49.2029 51.5249 64.1821 39.2647C79.1613 27.0045 101.563 25.9089 101.113 27.3659C101.113 27.3659 76.623 34.6101 67.924 54.6299C61.216 70.068 59.7515 79.8345 59.7515 79.8345Z" fill="white"/>
</g>
</g>
</g>
</g>
<path d="M153.49 217.508H53.067C49.8154 217.508 47.1793 214.882 47.1793 211.644C47.1793 209.778 48.6981 208.265 50.5716 208.265H155.985C157.859 208.265 159.378 209.778 159.378 211.644C159.378 214.883 156.742 217.508 153.49 217.508Z" fill="#E6E9FA"/>
<g opacity="0.3">
<g opacity="0.3">
<g opacity="0.3">
<g opacity="0.3">
<path opacity="0.3" d="M159.376 211.644C159.376 212.285 159.272 212.901 159.081 213.478C158.553 212.297 157.367 211.477 155.986 211.477H50.5724C49.6369 211.477 48.7878 211.853 48.174 212.469C47.882 212.76 47.6425 213.099 47.4747 213.479C47.2838 212.901 47.1793 212.287 47.1793 211.645C47.1793 210.713 47.557 209.868 48.1749 209.256C48.7886 208.642 49.6377 208.265 50.5732 208.265H155.986C157.861 208.264 159.376 209.777 159.376 211.644Z" fill="white"/>
</g>
</g>
</g>
</g>
<g opacity="0.35">
<g opacity="0.35">
<g opacity="0.35">
<g opacity="0.35">
<path opacity="0.35" d="M159.376 211.644C159.376 213.262 158.718 214.731 157.651 215.788C156.588 216.851 155.113 217.507 153.49 217.507H53.0686C49.8171 217.507 47.1785 214.883 47.1785 211.644C47.1785 211.022 47.3471 210.437 47.6458 209.933C48.536 212.032 50.6316 213.508 53.0678 213.508H153.489C155.113 213.508 156.588 212.852 157.65 211.789C158.181 211.26 158.612 210.631 158.907 209.933C159.208 210.437 159.376 211.022 159.376 211.644Z" fill="#00227B"/>
</g>
</g>
</g>
</g>
<path d="M153.491 218.999H53.0676C48.9958 218.999 45.6833 215.7 45.6833 211.644C45.6833 208.96 47.8768 206.775 50.5722 206.775H155.986C158.681 206.775 160.875 208.96 160.875 211.644C160.875 215.699 157.562 218.999 153.491 218.999ZM50.5714 209.756C49.5265 209.756 48.6757 210.603 48.6757 211.644C48.6757 214.056 50.6454 216.018 53.0668 216.018H153.491C155.912 216.018 157.882 214.056 157.882 211.644C157.882 210.604 157.032 209.756 155.986 209.756H50.5714Z" fill="#00227B"/>
<path d="M165.24 142.244L155.418 208.263H51.1417L50.7863 205.875L41.3146 142.244C41.0044 140.154 42.6319 138.279 44.7497 138.279H161.804C163.927 138.279 165.55 140.154 165.24 142.244Z" fill="#FF66AC"/>
<path d="M165.24 142.244L155.418 208.263H51.1417L50.7863 205.875L41.3146 142.244C41.0044 140.154 42.6319 138.279 44.7497 138.279H161.804C163.927 138.279 165.55 140.154 165.24 142.244Z" fill="#E6E9FA"/>
<g opacity="0.5">
<g opacity="0.5">
<g opacity="0.5">
<g opacity="0.5">
<path opacity="0.5" d="M45.0175 146.342C44.7073 144.252 46.3347 142.377 48.4525 142.377H165.22L165.24 142.245C165.55 140.154 163.927 138.279 161.805 138.279H44.7509C42.6331 138.279 41.0057 140.154 41.3159 142.245L50.7867 205.875L51.1421 208.264H54.2349L45.0175 146.342Z" fill="white"/>
</g>
</g>
</g>
</g>
<g opacity="0.35">
<g opacity="0.35">
<g opacity="0.35">
<g opacity="0.35">
<path opacity="0.35" d="M158.514 138.279H150.294C153.411 149.651 151.691 175.332 131.585 188.753C106.344 205.602 60.8552 205.494 51.1976 205.875L51.5531 208.263H152.127L161.949 142.244C162.259 140.154 160.636 138.279 158.514 138.279Z" fill="#00227B"/>
</g>
</g>
</g>
</g>
<path d="M156.707 209.756H49.8504L39.8365 142.462C39.6243 141.037 40.0447 139.595 40.9892 138.504C41.9337 137.413 43.3053 136.788 44.7509 136.788H161.807C163.253 136.788 164.624 137.413 165.568 138.504C166.513 139.595 166.933 141.037 166.721 142.462L156.707 209.756ZM52.433 206.774H154.125L163.76 142.024C163.846 141.45 163.683 140.891 163.302 140.451C162.921 140.011 162.39 139.769 161.807 139.769H44.7509C44.1675 139.769 43.6369 140.012 43.2559 140.451C42.875 140.891 42.7121 141.45 42.7977 142.024L52.433 206.774Z" fill="#00227B"/>
<g opacity="0.3">
<g opacity="0.3">
<g opacity="0.3">
<g opacity="0.3">
<path opacity="0.3" d="M59.4421 192.839C55.4862 184.154 52.6057 169.329 53.2549 160.604C53.904 151.879 58.9846 154.549 60.5594 165.725C64.7497 195.469 61.2077 196.717 59.4421 192.839Z" fill="white"/>
</g>
</g>
</g>
</g>
<path d="M116.902 165.781C117.03 164.667 117.178 163.54 116.958 162.406C116.86 162.283 116.771 162.157 116.673 162.034C116.349 161.918 116.033 161.766 115.696 161.682C113.323 161.071 110.917 160.83 108.474 161.04C105.287 161.313 102.362 162.292 99.8472 164.31C98.9364 165.038 98.1063 165.86 97.2563 166.657C97.0284 166.873 96.8532 166.964 96.5331 166.818C95.7803 166.477 94.9691 166.324 94.1455 166.283C91.9364 166.183 89.965 166.895 88.1261 168.044C86.1334 169.295 84.5274 170.966 83.0316 172.755C82.3948 173.513 82.6424 174.358 83.5903 174.676C84.1884 174.871 84.7865 175.062 85.3847 175.257C86.8179 175.719 88.2479 176.177 89.677 176.638C89.6738 176.683 89.6779 176.705 89.6713 176.728C89.6598 176.755 89.6474 176.787 89.6277 176.814C89.0312 177.578 89.176 178.285 89.8046 178.948C89.872 179.022 89.9305 179.11 89.9897 179.189C90.3188 179.62 90.6553 180.056 91.0042 180.505C90.5278 180.872 90.0596 181.183 89.6458 181.559C89.4368 181.749 89.2525 182.024 89.1735 182.297C89.0394 182.737 89.2681 183.187 89.6614 183.418C90.0786 183.668 90.508 183.657 90.8964 183.378C91.3892 183.029 91.8598 182.651 92.3609 182.27C92.834 182.891 93.2824 183.478 93.7324 184.059C94.2483 184.72 94.6037 184.833 95.4035 184.613C95.5491 184.568 95.6931 184.536 95.865 184.495C95.8766 184.665 95.8897 184.802 95.8971 184.93C95.9992 186.988 96.093 189.05 96.2065 191.103C96.2583 192.076 97.0301 192.536 97.9129 192.119C98.7102 191.745 99.5066 191.348 100.288 190.926C102.089 189.95 103.728 188.755 105.036 187.166C106.672 185.167 107.578 182.933 107.154 180.295C107.136 180.191 107.223 180.013 107.314 179.96C108.117 179.444 108.941 178.961 109.745 178.442C111.562 177.263 113.022 175.73 114.164 173.9C115.716 171.411 116.572 168.68 116.902 165.781ZM90.8594 174.689C89.2048 174.152 87.4893 173.595 85.727 173.024C87.5477 171.096 89.4746 169.413 92.0696 168.702C93.1911 168.395 94.4869 168.421 95.2521 168.731C93.7991 170.706 92.3428 172.681 90.8594 174.689ZM104.776 183.16C104.356 184.496 103.553 185.585 102.564 186.555C101.335 187.747 99.904 188.637 98.3572 189.448C98.2642 187.555 98.1688 185.703 98.075 183.89C100.414 182.983 102.701 182.099 105 181.209C105.089 181.84 104.98 182.509 104.776 183.16ZM113.414 170.486C112.661 172.255 111.674 173.866 110.265 175.2C109.178 176.224 107.946 177.045 106.647 177.775C103.128 179.754 99.3552 181.118 95.4981 182.272C95.3097 182.326 95.1945 182.316 95.0703 182.144C94.8012 181.763 94.4993 181.396 94.2146 181.02C94.1957 180.999 94.1891 180.963 94.1619 180.896C94.2607 180.818 94.366 180.74 94.4721 180.659C96.673 178.975 98.8846 177.298 101.086 175.611C101.722 175.13 101.75 174.304 101.161 173.827C100.75 173.491 100.208 173.496 99.7329 173.852C98.4082 174.858 97.0868 175.865 95.7655 176.875C94.7798 177.626 93.8024 178.373 92.7789 179.155C92.4275 178.698 92.0886 178.28 91.7825 177.841C91.7307 177.763 91.7833 177.564 91.8541 177.467C93.0273 175.723 94.1907 173.97 95.4117 172.257C96.6195 170.555 97.9927 168.984 99.5033 167.541C100.919 166.178 102.455 164.975 104.31 164.258C105.5 163.797 106.727 163.483 107.995 163.348C108.11 163.332 108.277 163.446 108.359 163.552C109.648 165.212 110.922 166.875 112.199 168.541C112.583 169.037 112.961 169.542 113.356 170.032C113.475 170.18 113.489 170.306 113.414 170.486ZM114.178 168.163C112.904 166.501 111.66 164.884 110.415 163.26C110.416 163.223 110.427 163.18 110.433 163.14C111.883 163.313 113.337 163.49 114.806 163.665C114.779 165.241 114.545 166.684 114.178 168.163Z" fill="#00227B"/>
<path d="M113.358 170.032C112.962 169.542 112.585 169.036 112.201 168.54C110.924 166.874 109.65 165.212 108.361 163.551C108.279 163.446 108.112 163.331 107.997 163.347C106.729 163.482 105.502 163.796 104.312 164.258C102.456 164.975 100.921 166.178 99.5053 167.541C97.9947 168.983 96.6216 170.555 95.4137 172.256C94.1928 173.97 93.0294 175.723 91.8561 177.466C91.7854 177.564 91.7327 177.762 91.7845 177.84C92.0898 178.28 92.4288 178.697 92.7809 179.154C93.8044 178.372 94.7819 177.624 95.7675 176.874C97.0889 175.864 98.4102 174.857 99.7349 173.851C100.21 173.496 100.751 173.492 101.163 173.826C101.752 174.304 101.725 175.13 101.088 175.611C98.8866 177.297 96.675 178.975 94.4742 180.658C94.368 180.739 94.2619 180.817 94.164 180.895C94.1911 180.964 94.1977 180.998 94.2166 181.019C94.5013 181.395 94.8032 181.763 95.0723 182.144C95.1965 182.316 95.3117 182.325 95.5001 182.271C99.3572 181.118 103.13 179.753 106.649 177.774C107.947 177.045 109.18 176.223 110.267 175.199C111.675 173.865 112.663 172.254 113.416 170.485C113.49 170.306 113.475 170.18 113.358 170.032ZM109.495 172.569C107.813 173.832 105.432 173.523 104.168 171.87C102.896 170.219 103.217 167.849 104.884 166.569C106.52 165.314 108.902 165.639 110.178 167.29C111.44 168.931 111.132 171.336 109.495 172.569Z" fill="white"/>
<path d="M114.178 168.162C112.903 166.503 111.659 164.885 110.414 163.26C110.419 163.222 110.427 163.182 110.433 163.14C111.883 163.314 113.338 163.491 114.808 163.666C114.78 165.239 114.544 166.684 114.178 168.162Z" fill="#DB2C2C"/>
<path d="M95.2526 168.732C93.7979 170.704 92.3417 172.681 90.8599 174.69C89.2028 174.15 87.4874 173.595 85.7258 173.024C87.5482 171.094 89.4743 169.411 92.0693 168.702C93.1907 168.394 94.485 168.421 95.2526 168.732Z" fill="#DB2C2C"/>
<path d="M102.562 186.555C101.334 187.748 99.9044 188.639 98.356 189.448C98.2622 187.557 98.1676 185.705 98.0746 183.89C100.414 182.984 102.7 182.101 105.002 181.208C105.09 181.841 104.979 182.508 104.778 183.161C104.357 184.498 103.554 185.585 102.562 186.555Z" fill="#DB2C2C"/>
<path d="M110.177 167.29C108.902 165.639 106.519 165.315 104.883 166.569C103.216 167.85 102.895 170.219 104.167 171.87C105.43 173.523 107.812 173.832 109.494 172.569C111.131 171.336 111.439 168.931 110.177 167.29ZM108.36 171.175C107.508 171.818 106.256 171.649 105.592 170.8C104.905 169.926 105.092 168.641 106.001 167.969C106.853 167.333 108.129 167.518 108.77 168.37C109.44 169.257 109.255 170.501 108.36 171.175Z" fill="#00227B"/>
<path d="M108.359 171.175C107.507 171.818 106.255 171.648 105.589 170.798C104.905 169.926 105.09 168.641 106 167.969C106.853 167.335 108.127 167.517 108.768 168.368C109.438 169.255 109.256 170.502 108.359 171.175Z" fill="#22A7F0"/>
<path d="M164.722 145.728C164.722 145.728 156.641 141.908 149.052 145.334C141.785 148.615 136.643 171.975 146.059 177.893C151.87 181.545 155.826 178.319 159.114 179.266C163.99 180.671 173.995 156.618 164.722 145.728Z" fill="white"/>
<g opacity="0.35">
<path d="M168.369 160.93C167.411 170.721 162.221 180.161 159.115 179.266C155.826 178.32 151.871 181.547 146.059 177.895C141.561 175.066 140.386 168.261 141.18 161.559C141.714 165.469 143.23 168.819 146.059 170.597C151.871 174.245 155.74 172.55 159.115 171.969C163.287 171.249 166.688 166.71 168.369 160.93Z" fill="#00227B"/>
</g>
<path d="M152.018 181.17C150.057 181.17 147.788 180.743 145.26 179.154C142.996 177.731 141.361 175.429 140.401 172.312C139.595 169.696 139.294 166.509 139.529 163.094C139.808 159.05 140.807 154.901 142.34 151.411C143.511 148.746 145.52 145.292 148.433 143.976C156.561 140.307 165.007 144.212 165.363 144.38L165.654 144.518L165.862 144.763C170.106 149.747 170.351 156.633 169.809 161.531C169.199 167.05 167.243 172.905 164.705 176.81C162.162 180.722 160.034 181.084 158.696 180.699C157.828 180.449 156.731 180.623 155.461 180.826C154.457 180.986 153.304 181.17 152.018 181.17ZM155.969 145.394C153.695 145.394 151.586 145.828 149.67 146.693C148.095 147.404 146.422 149.56 145.084 152.608C143.705 155.745 142.769 159.641 142.516 163.3C142.071 169.759 143.653 174.619 146.857 176.633C150.088 178.664 152.58 178.266 154.99 177.882C156.547 177.634 158.018 177.399 159.53 177.835C159.703 177.865 160.949 177.386 162.705 174.355C166.802 167.287 169.4 153.939 163.796 146.951C163.16 146.688 161.526 146.069 159.386 145.699C158.211 145.496 157.07 145.394 155.969 145.394Z" fill="#00227B"/>
<path d="M187.322 60.6947C184.44 57.7274 182.472 53.8324 181.948 49.4162C180.673 38.6967 188.364 28.9777 199.127 27.7083C209.889 26.4389 219.647 34.0994 220.922 44.819C222.196 55.5385 214.505 65.2575 203.742 66.5269C200.749 66.8801 197.834 66.54 195.157 65.6378L186.74 69.5925L187.322 60.6947Z" fill="#FF0068"/>
<g opacity="0.5">
<path opacity="0.5" d="M199.571 31.4411C189.517 32.6269 182.145 41.1863 182.257 51.0463C182.103 50.3743 181.98 49.6892 181.896 48.9902C180.622 38.2706 188.313 28.5517 199.075 27.2823C209.838 26.0129 219.596 33.6734 220.87 44.393C220.954 45.0961 220.997 45.7934 221.005 46.4859C218.805 36.8677 209.627 30.2553 199.571 31.4411Z" fill="white"/>
</g>
<path d="M186.74 71.0267C186.455 71.0267 186.172 70.9431 185.929 70.7784C185.508 70.4924 185.269 70.0064 185.302 69.4992L185.844 61.2217C182.877 57.9774 181.039 53.9677 180.517 49.5843C179.856 44.0192 181.409 38.5312 184.892 34.1298C188.374 29.7292 193.369 26.9422 198.957 26.2833C204.544 25.6245 210.054 27.1716 214.472 30.6405C218.891 34.1093 221.689 39.0843 222.35 44.6494C223.012 50.2145 221.459 55.7025 217.976 60.1031C214.493 64.5037 209.498 67.2907 203.911 67.9496C200.969 68.2962 198.06 68.0356 195.255 67.1752L187.353 70.8882C187.158 70.9816 186.949 71.0267 186.74 71.0267ZM201.447 29.0056C200.736 29.0056 200.019 29.0474 199.296 29.1326C194.473 29.7013 190.161 32.1073 187.153 35.9064C184.147 39.7055 182.805 44.4437 183.377 49.2475C183.848 53.2154 185.57 56.8293 188.356 59.6974C188.639 59.9883 188.785 60.3842 188.758 60.7882L188.334 67.2579L194.541 64.3414C194.878 64.1832 195.264 64.1611 195.617 64.2799C198.186 65.1461 200.862 65.4231 203.572 65.1035C213.53 63.9292 220.67 54.9051 219.491 44.9887C218.398 35.7909 210.526 29.0056 201.447 29.0056Z" fill="#00227B"/>
<g opacity="0.3">
<path opacity="0.3" d="M187.173 60.5357C193.411 63.785 201.072 64.1095 207.847 60.7308C215.362 56.9841 219.869 49.6416 220.332 41.8459C220.601 42.8064 220.8 43.7979 220.921 44.819C222.196 55.5386 214.504 65.2576 203.742 66.5269C200.749 66.8801 197.833 66.54 195.156 65.6378L186.739 69.5926L187.322 60.6947C187.271 60.6423 187.223 60.5882 187.173 60.5357Z" fill="#00227B"/>
</g>
<path d="M195.228 41.6288C196.926 39.9374 199.68 40.2406 201.378 41.932L201.642 42.195L201.906 41.932C203.604 40.2406 206.358 39.9374 208.056 41.6288C209.754 43.3202 209.754 46.063 208.056 47.7544L207.792 48.0174L202.453 53.335C202.006 53.7808 201.28 53.7808 200.832 53.335L195.493 48.0174L195.229 47.7544C193.53 46.0622 193.53 43.3202 195.228 41.6288Z" fill="white"/>
</svg>
