<svg width="24" height="24" viewBox="0 0 24 24" fill="none" xmlns="http://www.w3.org/2000/svg">
<path d="M8.4445 9.9089C6.76905 8.69936 6.05641 8.04567 5.3848 8.11814C4.14569 8.25052 5.59378 10.2734 7.95751 11.7593C10.2772 13.1954 10.7138 11.5582 8.4445 9.9089Z" fill="#E55733"/>
<path d="M11.0962 15.049C10.5829 14.0502 9.5502 13.4055 9.03852 13.7883C8.38843 14.285 6.29861 17.3173 6.27819 17.8142C6.22198 18.7506 8.13208 20.4348 8.71437 19.9716C9.60494 19.2262 11.3826 15.6019 11.0962 15.049Z" fill="#E55733"/>
<path d="M15.0571 4.32848C14.1194 3.98085 11.3296 8.18353 11.5654 9.57921C11.7683 10.738 13.3492 12.7407 14.7002 10.2749C16.6413 6.74489 17.4182 5.23146 15.0571 4.32848Z" fill="#E55733"/>
<path d="M18.0938 15.4314C17.4315 14.5646 13.8966 12.548 13.5492 12.8561C12.7894 13.459 13.9071 14.8794 16.1779 16.1905C18.4669 17.512 19.4 17.1545 18.0938 15.4314Z" fill="#E55733"/>
</svg>
