<svg width="37" height="38" viewBox="0 0 37 38" fill="none" xmlns="http://www.w3.org/2000/svg">
<path d="M12.4195 21.7585C9.39577 23.1158 7.91626 23.5814 7.47831 24.5724C6.66848 26.3998 10.6397 26.0106 14.5992 23.9189C18.4545 21.8485 16.5304 19.929 12.4195 21.7585Z" fill="#00FFA3"/>
<path d="M21.6859 22.1972C19.8868 22.1092 18.1632 23.0267 18.2846 24.0445C18.4531 25.3458 20.9892 30.6804 21.663 31.1073C22.9186 31.9363 26.7898 30.6337 26.6135 29.4535C26.2923 27.6187 22.6835 22.2428 21.6859 22.1972Z" fill="#00FFA3"/>
<path d="M9.97146 8.09771C8.73656 9.12149 12.3369 16.367 14.4647 17.1588C16.237 17.8061 20.2867 17.2163 17.945 13.3623C14.5984 7.83504 13.1193 5.54216 9.97146 8.09771Z" fill="#00FFA3"/>
<path d="M27.829 12.784C26.0939 13.0087 20.458 16.3016 20.6073 17.0312C20.8353 18.5702 23.7047 18.1567 27.347 16.0539C31.0184 13.9342 31.2701 12.3513 27.829 12.784Z" fill="#00FFA3"/>
</svg>
