<svg width="32" height="26" viewBox="0 0 32 26" fill="none" xmlns="http://www.w3.org/2000/svg">
<path d="M24.8949 1.25812C20.0135 -1.22135 16.9916 0.928803 20.614 1.78112C29.7957 3.95065 31.0548 15.2826 22.2411 21.6168C11.7808 29.1133 -1.35254 18.963 5.31101 8.54154C8.13915 4.12499 11.3354 1.74239 14.5315 1.64553C17.3403 1.56805 16.4493 0.153966 13.5824 0.153966C6.51204 0.153966 -1.10069 9.16139 0.313383 15.8637C1.45626 21.3456 5.95031 24.9099 12.8269 25.7622C28.8466 27.7574 38.4932 8.15412 24.8949 1.25812Z" fill="#00FFA3"/>
<path d="M13.0399 16.29C12.1876 14.934 12.1101 14.8759 11.2578 14.934C9.03017 15.1083 10.5024 18.2851 13.3111 19.3312C15.6356 20.2029 19.2386 19.738 20.459 18.4401C22.2992 16.4837 21.8536 13.3843 19.9165 14.6628C19.8003 14.7403 19.5292 15.2052 19.3161 15.6701C17.8827 18.8469 14.8026 19.1375 13.0399 16.29Z" fill="#00FFA3"/>
<path d="M21.4664 10.0913C20.7691 8.42538 19.6843 8.01859 18.9095 9.14209C17.9797 10.5174 18.5027 11.7959 19.9943 11.7959C21.4859 11.7959 21.9507 11.2729 21.4664 10.0913Z" fill="#00FFA3"/>
<path d="M13.4274 10.3624C13.4274 9.00645 12.5557 8.38657 11.3547 8.89021C10.27 9.33574 9.76629 11.3891 10.5411 12.1058C11.7615 13.2099 13.4274 12.1833 13.4274 10.3624Z" fill="#00FFA3"/>
</svg>
