<svg width="33" height="14" viewBox="0 0 33 14" fill="none" xmlns="http://www.w3.org/2000/svg">
<path fill-rule="evenodd" clip-rule="evenodd" d="M31.0211 5.29166C32.7282 4.74664 32.8934 4.58 32.2424 4.10763C31.525 3.58313 30.3558 3.72166 21.5389 5.78791C31.5829 2.88571 32.4515 2.40815 31.8384 1.7508C31.0587 0.928318 27.7411 1.92251 11.454 6.25345C6.57269 7.54446 3.7908 7.99297 2.42184 8.42987C0.52336 9.04367 1.19734 9.66719 2.08833 9.79549L1.66979 9.9951C0.568505 10.5176 1.6281 11.6671 3.21725 11.6607C4.61388 11.6535 12.2131 10.0011 19.4563 8.12946C29.032 5.63254 29.0737 5.91858 31.0211 5.29166Z" fill="#00FFA3"/>
</svg>
