<svg width="51" height="62" viewBox="0 0 51 62" fill="none" xmlns="http://www.w3.org/2000/svg">
<path d="M26.6769 49.5348C23.9252 47.429 22.2196 45.4456 20.2603 42.0521C16.4855 35.514 16.5066 28.2165 11.9772 21.4499C6.60843 13.4451 4.25978 17.2503 5.61239 18.5865C8.40024 21.2941 9.13705 22.0311 10.4078 24.0164C15.6257 32.1913 14.409 37.8129 19.193 45.2004C20.8005 47.6971 23.3828 50.3366 25.2954 51.7438C28.4202 54.0286 29.3346 51.5496 26.6769 49.5348Z" fill="#00C2FF"/>
<path d="M22.7705 9.94626C27.6455 13.2132 28.9671 15.1069 30.6039 21.1774C33.8384 33.0711 34.6222 34.8601 38.2751 38.5628C40.0243 40.3342 43.8523 42.7942 44.3815 42.4886C45.5491 41.8146 44.824 40.1991 42.8211 39.0308C35.3774 34.694 34.0995 27.6276 32.9136 23.1648C31.823 19.0829 30.7763 13.8548 28.1549 10.968C25.2219 7.72145 21.2683 5.58306 20.6142 6.89472C20.0816 7.94945 20.3465 8.33617 22.7705 9.94626Z" fill="#00C2FF"/>
<path d="M43.5628 49.3749C39.9256 47.6766 38.0251 46.4699 36.0951 44.6369C30.7752 39.5928 27.2466 33.805 24.9681 26.2993C22.7351 19.0163 20.0269 14.6852 15.3368 10.8757C11.5955 7.84678 9.50465 6.95758 9.42845 8.37146C9.40231 9.00923 9.35988 8.97148 13.6913 12.8428C19.1375 17.7102 21.2632 20.9247 23.4649 27.686C26.2474 36.2084 29.8885 42.2633 35.0957 47.0403C38.0866 49.776 43.2878 52.7093 44.338 52.2275C45.4906 51.7074 45.062 50.0661 43.5628 49.3749Z" fill="#00C2FF"/>
</svg>
