<svg width="54" height="48" viewBox="0 0 54 48" fill="none" xmlns="http://www.w3.org/2000/svg">
<path d="M21.9983 12.8392C21.6342 12.935 19.9477 13.0883 18.242 13.1841C13.5276 13.4333 13.9108 13.7207 10.6529 17.017C9.52215 18.1669 9.73297 19.0677 9.17719 21.2716C7.83568 26.5993 12.9143 26.5801 15.6356 23.1497C17.8971 20.2942 19.3344 19.3743 23.1098 18.3969C26.5978 17.4962 27.556 16.7679 27.556 15.0431C27.556 13.165 24.9113 12.0918 21.9983 12.8392ZM22.6499 17.1321C18.7212 18.0712 16.0764 19.3935 14.4858 21.31C11.9752 24.3188 11.0745 24.9513 10.9403 23.7439C10.8637 23.1306 11.956 19.6234 12.3777 19.0677L13.7959 17.2087C15.7698 14.6023 15.6357 14.6981 19.0086 14.5256C20.6184 14.449 22.3241 14.2958 22.784 14.2C25.7737 13.5676 25.5054 16.4422 22.6499 17.1321Z" fill="#E55733"/>
<path d="M48.4838 15.2732C47.3339 13.7783 45.59 11.3253 44.6126 9.84964C38.7674 1.07227 34.5128 -0.422677 23.7232 2.54783C19.4112 3.73603 18.8746 3.69778 12.0328 1.37887C3.25546 -1.59164 -6.80593 4.46432 -4.54451 12.6476C-3.12634 17.8028 -3.1072 17.7263 -4.52538 22.6899C-6.49932 29.6658 -6.36517 32.6363 -3.85462 37.3508C3.69622 51.5134 21.6917 50.9767 26.617 36.4691C28.1502 31.9654 28.7251 30.8157 30.1625 29.3975C32.6922 26.9061 33.5929 26.8486 36.6784 29.11C41.0479 32.3105 44.9767 33.1346 48.7521 31.6398C54.5589 29.34 54.4823 23.0923 48.4838 15.2732ZM39.074 28.0943C32.4622 23.3607 26.9045 26.1395 23.7423 35.7792C21.8067 41.6819 20.7719 43.0426 16.7281 45.074C9.80974 48.5428 1.08983 43.3876 -2.18731 33.9011C-3.39468 30.3749 -3.1455 27.3468 -1.09489 21.0225C-0.0983362 17.9562 -0.0600257 17.2279 -0.730785 14.7173C-1.74651 10.9036 -1.804 10.4629 -1.49737 8.98723C-0.155849 2.58627 5.24857 1.03394 12.3203 3.33369C18.5871 5.38429 20.1203 5.40338 26.5021 3.64025C33.5929 1.6663 36.5059 2.85457 41.0096 9.56217C43.0411 12.5902 44.1718 14.1617 46.1265 16.6531C54.0032 26.7144 48.8287 35.0894 39.074 28.0943Z" fill="#E55733"/>
<path d="M35.8926 12.5326C31.0057 8.73802 32.0022 6.51486 23.7231 7.0898C19.8136 7.3581 21.5384 8.16301 13.9492 8.8146C8.42983 9.29372 3.792 10.4053 3.792 16.0013C3.792 17.592 3.69616 18.4161 3.38953 19.4318C1.08978 27.0018 4.44356 35.5109 9.69465 35.4917C13.1059 35.4725 15.1374 33.8436 17.9738 28.8225C19.6986 25.7753 22.0941 23.4372 24.3555 22.7473C24.7005 22.6514 26.8278 22.4981 29.0892 22.4214C35.6243 22.1915 37.6174 21.1565 38.5757 17.4961C39.0931 15.5413 38.614 14.6407 35.8926 12.5326ZM28.0352 21.6358C21.5192 21.6358 19.3727 23.0347 16.019 29.3781C10.0779 40.5894 1.56892 32.6171 5.99593 19.9493C6.64752 18.0904 6.68583 17.8986 6.55168 16.3846C6.22588 12.4175 8.73643 10.712 15.789 10.0412C19.7752 9.65792 20.7335 9.31296 23.1482 8.60387C24.4131 8.22058 26.5978 8.12479 27.7477 8.35477C28.8209 8.56558 31.0056 11.4402 34.0911 13.8358C39.3614 17.9178 36.4867 21.6166 28.0352 21.6358Z" fill="#E55733"/>
</svg>
