<svg width="41" height="41" viewBox="0 0 41 41" fill="none" xmlns="http://www.w3.org/2000/svg">
<path fill-rule="evenodd" clip-rule="evenodd" d="M17.8257 0.5L20.4377 20.6871L12.6062 1.89856L8.08198 4.51062L20.4377 20.6873L20.4377 20.6876L4.26087 8.33171L1.64881 12.8559L20.4377 20.6876L0.250244 18.0755L0.250244 23.2996L20.4377 20.6876L1.64887 28.5192L4.26092 33.0434L20.4377 20.6876L8.08189 36.8643L12.6061 39.4764L20.4377 20.6876L17.8257 40.875H23.0498L20.4377 20.6876L20.4379 20.6877L28.2695 39.4764L32.7937 36.8643L20.4381 20.6878L36.6146 33.0434L39.2266 28.5192L20.438 20.6877L20.4378 20.6875L40.6252 23.2996V18.0755L20.4382 20.6874L39.2267 12.8559L36.6146 8.33171L20.438 20.6874L20.4378 20.6874L20.4378 20.6874L32.7936 4.51062L28.2694 1.89856L20.4378 20.6874L20.4378 20.6874L23.0498 0.5L17.8257 0.5ZM20.4378 20.6875L20.4379 20.6876L20.4377 20.6876L20.4378 20.6875L20.4378 20.6875Z" fill="#E55733"/>
</svg>
