<svg width="29" height="32" viewBox="0 0 29 32" fill="none" xmlns="http://www.w3.org/2000/svg">
<path d="M14.5327 14.84C17.4935 15.3784 18.402 2.99675 15.5421 1.11259C14.4991 0.406024 13.3888 0.843288 12.8841 2.15548C10.5962 7.80798 11.4373 14.268 14.5327 14.84Z" fill="#00FFA3"/>
<path d="M1.94916 16.8925C3.56416 17.7337 9.51944 17.9692 9.82226 17.1953C10.4952 15.4121 5.75114 14.0999 1.61271 14.8738C0.468748 15.1093 0.670623 16.2196 1.94916 16.8925Z" fill="#00FFA3"/>
<path d="M14.2635 31.4947C16.4504 31.4947 16.8542 21.8047 14.7345 20.1897C13.8597 19.5504 12.0428 19.6177 11.6727 20.3242C9.21653 24.8664 10.7643 31.4947 14.2635 31.4947Z" fill="#00FFA3"/>
<path d="M24.7945 18.171C28.0245 18.4065 29.1349 17.9691 28.462 16.6906C27.7218 15.3111 18.3009 14.2007 17.8298 15.4456C17.2915 16.8251 19.8486 17.8009 24.7945 18.171Z" fill="#00FFA3"/>
</svg>
