<svg width="18" height="28" viewBox="0 0 18 28" fill="none" xmlns="http://www.w3.org/2000/svg">
<path fill-rule="evenodd" clip-rule="evenodd" d="M21.7223 14.6378C21.3263 14.5242 20.1886 14.203 19.7852 14.1188C19.5403 12.8504 18.912 11.7533 17.9198 10.9191C17.3132 10.409 16.4889 10.0871 16.0627 9.38744C15.8979 9.11736 15.8105 8.79219 15.7491 8.45749C15.5265 7.24119 15.563 6.0361 15.4717 4.80868C15.4266 4.19971 15.3642 3.45232 14.9377 2.97051C14.0664 1.98665 12.794 2.87269 12.3135 3.77159C11.3995 5.48206 11.398 7.57981 11.8065 9.43661C10.0239 8.76764 8.1435 8.2356 6.22727 8.20401C5.31824 8.18888 4.28251 8.43194 3.95018 9.39346C3.71633 10.0695 3.83137 10.8852 4.21521 11.4861C4.34102 11.6828 4.79068 12.186 4.78733 12.1874C4.76728 12.1956 4.22524 13.0607 4.05975 13.4166C3.56205 14.4873 4.09489 15.5378 5.0798 16.0753C4.00019 16.8139 4.11184 18.9045 5.50961 19.4857C4.86769 21.63 7.36559 22.4187 8.84194 22.9563C12.8305 24.4089 14.211 24.4515 17.1274 24.5098C17.4506 24.5162 18.7879 24.7812 19.1004 24.8642" fill="white"/>
<path d="M21.7223 14.6378C21.3263 14.5242 20.1886 14.203 19.7852 14.1188C19.5403 12.8504 18.912 11.7533 17.9198 10.9191C17.3132 10.409 16.4889 10.0871 16.0627 9.38744C15.8979 9.11736 15.8105 8.79219 15.7491 8.45749C15.5265 7.24119 15.563 6.0361 15.4717 4.80868C15.4266 4.19971 15.3642 3.45232 14.9377 2.97051C14.0664 1.98665 12.794 2.87269 12.3135 3.77159C11.3995 5.48206 11.398 7.57981 11.8065 9.43661C10.0239 8.76764 8.1435 8.2356 6.22727 8.20401C5.31824 8.18888 4.28251 8.43194 3.95018 9.39346C3.71633 10.0695 3.83137 10.8852 4.21521 11.4861C4.34102 11.6828 4.79068 12.186 4.78733 12.1874C4.76728 12.1956 4.22524 13.0607 4.05975 13.4166C3.56205 14.4873 4.09489 15.5378 5.0798 16.0753C4.00019 16.8139 4.11184 18.9045 5.50961 19.4857C4.86769 21.63 7.36559 22.4187 8.84194 22.9563C12.8305 24.4089 14.211 24.4515 17.1274 24.5098C17.4506 24.5162 18.7879 24.7812 19.1004 24.8642" stroke="#00FFA3" stroke-width="1.67708" stroke-miterlimit="1.5" stroke-linecap="round" stroke-linejoin="round"/>
<path fill-rule="evenodd" clip-rule="evenodd" d="M25.1224 13.8916C24.2804 13.6585 22.95 12.9017 22.0807 13.328C21.5398 13.5933 21.4566 15.0412 21.321 15.5823C20.7742 17.7613 20.1869 19.9299 19.6057 22.1C19.3632 23.0049 18.485 24.6665 19.0147 25.5765C19.507 26.4223 20.9349 26.6056 21.7821 26.8601" fill="white"/>
<path d="M25.1224 13.8916C24.2804 13.6585 22.95 12.9017 22.0807 13.328C21.5398 13.5933 21.4566 15.0412 21.321 15.5823C20.7742 17.7613 20.1869 19.9299 19.6057 22.1C19.3632 23.0049 18.485 24.6665 19.0147 25.5765C19.507 26.4223 20.9349 26.6056 21.7821 26.8601" stroke="#00FFA3" stroke-width="1.67708" stroke-miterlimit="1.5" stroke-linecap="round" stroke-linejoin="round"/>
</svg>
