<svg width="100" height="80" viewBox="0 0 100 80" fill="none" xmlns="http://www.w3.org/2000/svg">
<path d="M17.5242 45.9348C22.1372 50.3288 26.5195 55.0239 31.1052 59.4728" stroke="#00C2FF" stroke-width="1.67708" stroke-miterlimit="1.5" stroke-linecap="round" stroke-linejoin="round"/>
<path d="M46.2827 61.0769C42.9805 58.2018 40.0713 54.155 37.1434 50.8953C30.5414 43.5454 22.9852 36.9704 15.7993 30.2209" stroke="#2F2965" stroke-width="1.67708" stroke-miterlimit="1.5" stroke-linecap="round" stroke-linejoin="round"/>
<path d="M16.4939 13.7997C22.4474 19.4768 29.1353 24.3242 35.2448 29.8279C46.3345 39.8183 57.4707 51.1743 67.3335 62.4003" stroke="#00C2FF" stroke-width="1.67708" stroke-miterlimit="1.5" stroke-linecap="round" stroke-linejoin="round"/>
<path d="M32.3179 11.9989C42.417 21.4284 52.7005 30.6063 62.4943 40.3791" stroke="#2F2965" stroke-width="1.67708" stroke-miterlimit="1.5" stroke-linecap="round" stroke-linejoin="round"/>
<path d="M48.3855 12.1074C53.5147 17.0066 58.9783 21.5645 64.1489 26.4278" stroke="#00FFA3" stroke-width="1.67708" stroke-miterlimit="1.5" stroke-linecap="round" stroke-linejoin="round"/>
<path d="M50.3319 -1.52912C59.0912 7.39703 68.6389 15.4569 77.6088 24.15" stroke="#F5BD33" stroke-width="1.67708" stroke-miterlimit="1.5" stroke-linecap="round" stroke-linejoin="round"/>
<path d="M62.5969 -4.22302C68.466 1.26017 74.6226 6.58761 80.7497 11.7918" stroke="#00FFA3" stroke-width="1.67708" stroke-miterlimit="1.5" stroke-linecap="round" stroke-linejoin="round"/>
</svg>
