<svg width="92" height="49" viewBox="0 0 92 49" fill="none" xmlns="http://www.w3.org/2000/svg">
<path fill-rule="evenodd" clip-rule="evenodd" d="M14.9642 9.05056C13.0172 11.6056 10.979 13.9646 8.74455 16.2727C8.38608 16.643 6.94351 18.3102 6.31545 18.2027C5.25895 18.0217 4.85793 16.7384 4.81366 15.848C4.69156 13.4053 5.3667 11.1166 5.64405 8.72444C5.70149 8.23044 5.71388 6.55372 6.15301 6.21476C7.8855 4.87754 12.6697 8.18866 14.4334 9.07532" fill="#F5BD33"/>
<path d="M14.9642 9.05056C13.0172 11.6056 10.979 13.9646 8.74455 16.2727C8.38608 16.643 6.94351 18.3102 6.31545 18.2027C5.25895 18.0217 4.85793 16.7384 4.81366 15.848C4.69156 13.4053 5.3667 11.1166 5.64405 8.72444C5.70149 8.23044 5.71388 6.55372 6.15301 6.21476C7.8855 4.87754 12.6697 8.18866 14.4334 9.07532" stroke="#F5BD33" stroke-width="1.67708" stroke-miterlimit="1.5" stroke-linecap="round" stroke-linejoin="round"/>
<path d="M10.6597 8.12842C13.6732 -0.328595 18.2332 -7.95355 22.1137 -15.9964C24.3727 -20.6779 26.5122 -25.8945 31.6262 -28.1742C37.2908 -30.6997 44.0894 -28.7512 49.745 -26.654C64.2907 -21.2602 76.8063 -12.1466 90.8841 -5.94514" stroke="#F5BD33" stroke-width="1.67708" stroke-miterlimit="1.5" stroke-linecap="round" stroke-linejoin="round"/>
</svg>
