<svg width="147" height="52" viewBox="0 0 147 52" fill="none" xmlns="http://www.w3.org/2000/svg">
<path fill-rule="evenodd" clip-rule="evenodd" d="M90.9354 7.70562C87.0807 16.5153 77.1417 27.4219 68.5425 32.2866C60.3523 36.942 53.134 37.7809 35.0224 36.1577C18.8523 34.7117 -0.0942161 41.3875 -8.84504 51.643C-10.4102 53.4916 -10.1223 53.9463 -12.7916 45.5901L-11.9944 44.8444C-6.15141 39.4893 -9.40541 33.4168 -17.0091 35.4226C-25.6978 37.7193 -27.7924 47.5191 -19.6076 47.6837L-17.6993 47.7369C-15.8081 53.311 -21.5787 38.7081 -0.351286 98.8793C2.97446 108.322 9.1524 131.024 18.9982 162.213C20.0746 165.613 25.4913 167.849 23.5488 160.593C22.2372 155.695 19.4407 146.243 15.6552 133.966C13.3424 126.444 12.8772 124.708 13.1269 124.275C17.2357 117.159 37.9874 106.676 51.3943 104.875C69.2516 102.446 67.1761 104.498 84.6181 102.38C96.6527 100.914 112.371 93.4753 120.891 85.2092C123.427 82.7679 128.013 77.6833 130.421 75.0105C131.315 74.0065 131.094 72.4373 129.946 71.7482C127.327 70.1576 126.683 69.3665 122.525 62.7719C114.313 49.7212 110.13 45.3929 105.176 44.7608C104.076 44.6237 103.692 44.4279 103.724 44.0535C105.579 30.6293 101.806 14.4277 95.1503 7.43955C92.6129 4.66398 92.2864 4.68487 90.9354 7.70562ZM94.4022 11.5945C99.5364 22.5795 101.714 35.0555 100.06 43.7733C99.6102 46.187 100.006 46.5462 103.055 46.3931C106.276 46.2605 110.342 50.653 117.143 61.6565C121.527 68.7222 123.412 71.1741 125.291 72.2323C127.082 73.2141 127.078 73.4479 125.162 75.2246C119.281 80.6894 121.1 80.5339 109.736 88.5991C103.566 92.9788 93.1036 97.7116 86.7727 99.0105C75.0885 101.413 63.8103 100.615 52.4722 101.828C39.3233 103.227 21.0787 110.911 15.0552 117.578C14.13 118.59 14.1112 118.396 14.033 112.767C13.4341 71.1901 -8.37095 56.2678 -8.61999 55.3377C-8.703 55.0276 -3.59912 50.635 -1.32874 49.0625C7.50701 42.9712 24.0458 38.9683 38.371 39.4801C58.6399 40.2257 63.2308 39.626 70.766 35.3789C77.3446 31.6542 85.6462 22.9482 91.7453 13.3373C93.7473 10.1419 93.7247 10.181 94.4022 11.5945ZM-3.33198 65.2847C5.32286 78.25 9.61152 93.1506 9.96543 111.599L10.0525 115.895C10.2329 116.445 7.81663 108.785 -8.27102 58.9994C-7.67487 59.7368 -5.5599 61.9276 -3.33198 65.2847Z" fill="#E55733"/>
</svg>
