<svg width="92" height="40" viewBox="0 0 92 40" fill="none" xmlns="http://www.w3.org/2000/svg">
<path d="M26.072 33.8163C16.9049 15.0308 30.1103 -2.97584 43.9753 -22.2066C58.2494 -42.0049 73.2225 -63.1006 65.2017 -87.6794" stroke="#00C2FF" stroke-width="1.67708" stroke-miterlimit="1.5" stroke-linecap="round" stroke-linejoin="round"/>
<path fill-rule="evenodd" clip-rule="evenodd" d="M27.3006 27.3756C24.3597 28.354 21.5101 30.0507 19.179 32.0758C21.0773 33.7347 23.1158 35.2297 25.0098 36.9013C25.186 37.0569 26.6595 38.4936 26.7465 38.4385C27.4531 37.989 27.7296 36.5111 27.9148 35.7736C28.5587 33.2123 28.2084 29.9416 28.2857 27.2661" fill="#00C2FF"/>
<path d="M27.3006 27.3756C24.3597 28.354 21.5101 30.0507 19.179 32.0758C21.0773 33.7347 23.1158 35.2297 25.0098 36.9013C25.186 37.0569 26.6595 38.4936 26.7465 38.4385C27.4531 37.989 27.7296 36.5111 27.9148 35.7736C28.5587 33.2123 28.2084 29.9416 28.2857 27.2661" stroke="#00C2FF" stroke-width="1.67708" stroke-miterlimit="1.5" stroke-linecap="round" stroke-linejoin="round"/>
</svg>
