<svg width="29" height="28" viewBox="0 0 29 28" fill="none" xmlns="http://www.w3.org/2000/svg">
<path fill-rule="evenodd" clip-rule="evenodd" d="M18.1837 19.6894C17.8035 21.2634 17.5773 23.5522 16.4288 24.7379C14.5952 26.6307 12.6009 23.6386 11.9885 22.2079C11.8261 21.8282 11.6677 21.446 11.5268 21.0576C11.3591 20.5956 11.1994 20.1298 11.0576 19.659C9.55337 20.209 7.61687 20.6477 6.02146 20.3584C4.68469 20.1158 4.04419 19.0966 4.51928 17.7988C5.08639 16.2493 6.41635 14.8755 7.55726 13.7273C7.07425 12.0915 6.55884 10.4178 6.48444 8.71324C6.41312 7.07465 7.63129 6.28213 9.15042 6.74962C9.64118 6.90059 10.1136 7.10778 10.5699 7.34252C11.1838 7.65855 12.5922 8.53431 12.958 8.74551C13.0118 8.74555 13.3032 8.43998 13.3596 8.39191C13.7434 8.06564 14.1312 7.74905 14.5339 7.44618C14.8379 7.21775 15.1439 6.99157 15.4521 6.76915C16.5492 5.97748 19.2765 3.71673 20.2494 5.73949C20.3482 5.94511 20.4044 6.16452 20.4412 6.38869C20.5018 6.75896 20.492 7.14902 20.4739 7.52279C20.44 8.22456 20.3294 8.91917 20.2239 9.61255C20.0666 10.6482 19.8392 11.6819 19.7256 12.724C19.7243 12.7369 19.7214 12.7496 19.7179 12.7622C20.2544 13.0897 20.7948 13.4141 21.3229 13.7553C22.4753 14.4993 24.5086 15.2616 24.3463 16.7451C24.2586 17.5472 23.5562 18.0442 22.8746 18.3423C21.4898 18.9477 19.9703 19.1545 18.4876 19.3716" fill="white"/>
<path d="M18.1837 19.6894C17.8035 21.2634 17.5773 23.5522 16.4288 24.7379C14.5952 26.6307 12.6009 23.6386 11.9885 22.2079C11.8261 21.8282 11.6677 21.446 11.5268 21.0576C11.3591 20.5956 11.1994 20.1298 11.0576 19.659C9.55337 20.209 7.61687 20.6477 6.02146 20.3584C4.68469 20.1158 4.04419 19.0966 4.51928 17.7988C5.08639 16.2493 6.41635 14.8755 7.55726 13.7273C7.07425 12.0915 6.55884 10.4178 6.48444 8.71324C6.41312 7.07465 7.63129 6.28213 9.15042 6.74962C9.64118 6.90059 10.1136 7.10778 10.5699 7.34253C11.1838 7.65855 12.5922 8.53431 12.958 8.74551C13.0118 8.74555 13.3032 8.43998 13.3596 8.39191C13.7434 8.06564 14.1312 7.74906 14.5339 7.44618C14.8379 7.21775 15.1439 6.99158 15.4521 6.76915C16.5492 5.97748 19.2765 3.71673 20.2494 5.73949C20.3482 5.94511 20.4044 6.16452 20.4412 6.38869C20.5018 6.75896 20.492 7.14902 20.4739 7.52279C20.44 8.22456 20.3294 8.91917 20.2239 9.61255C20.0666 10.6482 19.8392 11.6819 19.7256 12.724C19.7243 12.7369 19.7214 12.7496 19.7179 12.7622C20.2544 13.0897 20.7948 13.4141 21.3229 13.7553C22.4753 14.4993 24.5086 15.2616 24.3463 16.7451C24.2586 17.5472 23.5562 18.0442 22.8746 18.3423C21.4898 18.9477 19.9703 19.1545 18.4876 19.3716" stroke="#2F2965" stroke-width="1.67708" stroke-miterlimit="1.5" stroke-linecap="round" stroke-linejoin="round"/>
</svg>
