<svg width="727" height="702" viewBox="0 0 727 702" fill="none" xmlns="http://www.w3.org/2000/svg">
<path d="M702.961 271.823C695.103 178.162 691.174 131.331 672.884 101.032C620.518 14.2777 468.267 -6.35602 372.109 1.55651C243.377 12.1467 96.1079 83.6853 31.2825 221.808C-27.5959 347.263 -0.446809 489.27 88.2703 582.164C250.903 752.454 586.377 722.05 668.327 610.309C701.032 565.715 703.389 494.487 706.854 389.857C708.519 339.491 705.27 299.354 702.961 271.823Z" fill="#F4F7FA"/>
<path d="M641.273 57.3022C632.951 50.6458 620.325 47.0204 609.653 46.2884C534.002 41.1061 522.962 193.969 534.557 228.131C546.153 262.293 538.64 273.51 479.058 291.384C419.477 309.257 448.06 343.67 455.322 363.795C462.584 383.92 476.965 400.92 433.531 420.917C390.097 440.914 405.192 453.305 405.192 453.305C405.192 453.305 485.29 532.508 480.866 507.15C476.441 481.793 484.458 443.504 556.273 440.593C587.206 439.34 634.574 425.077 645.063 393.058C647.506 385.602 649.204 374.214 647.348 366.497C644.77 355.792 637.502 347.358 633.467 337.282C624.063 313.802 647.651 296.608 661.226 280.914C668.314 272.72 675.397 264.319 680.822 254.977C692.091 235.582 687.871 214.783 675.601 196.905C669.717 188.333 661.542 179.237 658.974 169.01C656.217 158.026 658.622 143.019 659.275 131.719C659.789 122.856 660.663 114.029 660.147 105.143C659.192 88.6214 655.188 68.4314 641.273 57.3022Z" fill="url(#paint0_linear_251_43)"/>
<g opacity="0.8">
<g opacity="0.8">
<path opacity="0.8" d="M398.893 497.759C398.375 497.939 397.786 497.726 397.524 497.242C397.239 496.713 397.449 496.059 397.996 495.783C398.333 495.613 432.054 478.466 469.671 450.226C504.333 424.205 549.489 383.175 567.771 335.477C583.042 295.641 596.967 229.784 605.979 154.795C614.061 87.5511 615.337 37.8195 611.903 28.5883C611.693 28.0267 611.996 27.4074 612.577 27.2043C613.158 27.0012 613.799 27.2946 614.009 27.8562C618.026 38.6569 615.477 94.5235 608.204 155.046C599.174 230.2 585.202 296.238 569.872 336.229C551.401 384.416 505.918 425.761 471.014 451.958C433.242 480.309 399.373 497.528 399.036 497.699C398.987 497.721 398.94 497.741 398.893 497.759Z" fill="white"/>
</g>
<g opacity="0.8">
<path opacity="0.8" d="M605.857 167.83C605.279 168.031 604.69 167.875 604.477 167.316C604.197 166.577 575.995 93.2304 539.629 76.6707C539.068 76.4175 538.843 75.8058 539.105 75.2642C539.369 74.7227 540.041 74.5096 540.599 74.7628C577.798 91.701 605.414 163.508 606.573 166.564C606.786 167.126 606.443 167.627 605.862 167.828C605.86 167.83 605.857 167.83 605.857 167.83Z" fill="white"/>
</g>
<g opacity="0.8">
<path opacity="0.8" d="M592.102 252.889C591.672 253.039 591.169 252.921 590.86 252.558C590.469 252.096 590.536 251.414 591.013 251.036C591.221 250.87 611.985 234.406 637.603 220.589C672.219 201.921 698.749 196.709 716.452 205.1C717.007 205.363 717.235 206.01 716.963 206.547C716.691 207.083 716.022 207.304 715.467 207.041C674.733 187.736 593.251 252.051 592.434 252.703C592.333 252.786 592.219 252.849 592.102 252.889Z" fill="white"/>
</g>
<g opacity="0.8">
<path opacity="0.8" d="M501.704 426.752C501.59 426.792 501.471 426.812 501.344 426.815C500.727 426.825 500.218 426.349 500.208 425.749C500.203 425.436 499.627 393.966 492.814 360.807C486.566 330.405 473.666 292.325 447.689 283.55C447.105 283.351 446.797 282.735 447.002 282.173C447.204 281.609 447.845 281.311 448.425 281.509C470.087 288.825 485.759 315.373 495.013 360.416C501.863 393.763 502.438 425.401 502.444 425.717C502.454 426.193 502.143 426.599 501.704 426.752Z" fill="white"/>
</g>
<g opacity="0.8">
<path opacity="0.8" d="M547.93 375.909C547.476 376.067 546.952 375.927 546.651 375.533C546.283 375.052 546.389 374.375 546.884 374.021C550.487 371.446 635.461 311.057 668.599 316.823C669.208 316.929 669.61 317.493 669.502 318.08C669.393 318.669 668.812 319.06 668.202 318.952C636.003 313.349 549.089 375.134 548.215 375.759C548.127 375.826 548.028 375.874 547.93 375.909Z" fill="white"/>
</g>
</g>
<path d="M707.67 282.452C702.169 273.467 691.556 265.925 681.771 261.746C612.393 232.124 548.499 372.358 547.451 408.298C546.404 444.238 535.407 452.336 473.087 449.666C410.764 446.996 425.615 488.73 425.405 510.043C425.195 531.356 432.776 552.057 384.904 556.668C337.033 561.279 346.898 577.873 346.898 577.873C346.898 577.873 394.549 678.605 399.262 653.295C403.974 627.986 424.92 594.578 493.516 615.332C523.062 624.27 572.629 626.344 593.707 599.645C598.617 593.428 604.2 583.269 605.152 575.399C606.472 564.483 602.587 554.168 602.315 543.368C601.682 518.196 629.9 509.732 648.166 499.405C657.702 494.015 667.309 488.424 675.686 481.409C693.078 466.845 696.39 445.893 691.102 425.056C688.566 415.065 684.055 403.83 685.22 393.368C686.47 382.131 693.986 368.793 698.556 358.373C702.14 350.203 706.054 342.18 708.678 333.651C713.567 317.783 716.869 297.475 707.67 282.452Z" fill="url(#paint1_linear_251_43)"/>
<g opacity="0.8">
<g opacity="0.8">
<path opacity="0.8" d="M325.41 617.641C324.861 617.641 324.381 617.247 324.303 616.706C324.22 616.114 324.648 615.567 325.26 615.487C325.636 615.437 363.369 610.333 408.652 596.062C450.377 582.914 507.233 559.074 541.133 520.171C569.446 487.678 605.603 430.262 640.33 362.645C671.471 302.012 690.08 255.63 690.08 245.82C690.08 245.223 690.58 244.739 691.197 244.739C691.815 244.739 692.315 245.223 692.315 245.82C692.315 257.297 670.361 309.035 642.333 363.608C607.527 431.373 571.265 488.947 542.842 521.565C508.594 560.867 451.321 584.895 409.306 598.13C363.839 612.454 325.939 617.578 325.561 617.628C325.514 617.638 325.462 617.641 325.41 617.641Z" fill="white"/>
</g>
<g opacity="0.8">
<path opacity="0.8" d="M635.655 375.096C635.04 375.096 634.54 374.644 634.537 374.05C634.532 373.263 633.668 294.962 605.243 267.484C604.805 267.063 604.805 266.384 605.243 265.962C605.679 265.541 606.387 265.544 606.825 265.965C635.902 294.072 636.752 370.781 636.776 374.035C636.781 374.632 636.283 375.096 635.663 375.096C635.658 375.096 635.655 375.096 635.655 375.096Z" fill="white"/>
</g>
<g opacity="0.8">
<path opacity="0.8" d="M592.939 450.417C592.48 450.417 592.049 450.141 591.886 449.7C591.679 449.138 591.979 448.519 592.563 448.316C592.815 448.228 618.117 439.526 647.064 434.905C686.171 428.66 712.96 432.436 726.685 446.122C727.116 446.551 727.103 447.236 726.659 447.652C726.216 448.068 725.508 448.055 725.077 447.627C693.503 416.137 594.316 450.006 593.318 450.352C593.191 450.397 593.064 450.417 592.939 450.417Z" fill="white"/>
</g>
<g opacity="0.8">
<path opacity="0.8" d="M447.014 584.454C446.895 584.454 446.773 584.434 446.651 584.397C446.068 584.204 445.754 583.589 445.956 583.023C446.06 582.725 456.535 552.925 461.73 519.492C466.492 488.84 467.682 448.786 446.309 432.031C445.829 431.654 445.756 430.972 446.145 430.509C446.534 430.045 447.24 429.972 447.72 430.351C465.542 444.321 470.999 474.431 463.937 519.84C458.711 553.461 448.179 583.422 448.072 583.722C447.914 584.171 447.478 584.454 447.014 584.454Z" fill="white"/>
</g>
<g opacity="0.8">
<path opacity="0.8" d="M508.307 551.731C507.824 551.731 507.381 551.428 507.235 550.961C507.057 550.39 507.394 549.786 507.985 549.615C512.275 548.372 613.376 519.339 642.54 535.605C643.074 535.904 643.259 536.565 642.95 537.082C642.641 537.598 641.957 537.776 641.422 537.478C613.083 521.673 509.668 551.385 508.628 551.686C508.522 551.716 508.413 551.731 508.307 551.731Z" fill="white"/>
</g>
</g>
<path d="M475.111 29.8246L474.312 35.3553C471.659 35.4732 469.05 35.8041 466.511 36.3557L464.348 31.196C463.759 29.7895 462.091 29.1201 460.626 29.7042L451.453 33.3571C449.985 33.9413 449.269 35.5609 449.855 36.9699L452.028 42.1948C449.806 43.5637 447.705 45.1131 445.749 46.828L441.143 43.3731C439.898 42.4405 438.093 42.6711 437.11 43.8896L430.948 51.5113C429.96 52.7323 430.17 54.4823 431.415 55.4174L436.039 58.8923C434.807 61.1287 433.772 63.4904 432.937 65.9549L427.068 65.2103C425.491 65.0097 424.023 66.0903 423.79 67.6247L422.314 77.237C422.078 78.7764 423.167 80.1905 424.747 80.391L430.634 81.1382C430.704 83.733 430.997 86.2853 431.519 88.7699L425.994 90.9962C424.506 91.5954 423.774 93.2526 424.361 94.6942L428.041 103.735C428.629 105.184 430.318 105.869 431.812 105.264L437.339 103.028C438.729 105.214 440.313 107.275 442.072 109.191L438.389 113.814C437.393 115.065 437.606 116.855 438.866 117.813L446.761 123.8C448.024 124.757 449.858 124.517 450.851 123.261L454.49 118.667C456.813 119.863 459.272 120.859 461.837 121.653L461.01 127.385C460.784 128.954 461.892 130.391 463.484 130.591L473.451 131.855C475.046 132.058 476.517 130.947 476.74 129.378L477.544 123.689C480.254 123.576 482.917 123.238 485.508 122.674L487.695 127.929C488.302 129.388 490 130.077 491.489 129.468L500.784 125.66C502.27 125.051 502.978 123.378 502.369 121.924L500.183 116.707C502.452 115.29 504.589 113.683 506.57 111.906L511.114 115.32C512.385 116.276 514.206 116.035 515.181 114.784L521.268 106.982C522.241 105.736 521.999 103.958 520.731 103.008L516.229 99.6333C517.455 97.3343 518.475 94.9048 519.284 92.3751L524.912 93.0897C526.491 93.2902 527.939 92.1997 528.143 90.6553L529.422 81.0178C529.627 79.4809 528.514 78.0719 526.937 77.8713L521.325 77.1593C521.208 74.5318 520.866 71.9545 520.29 69.4499L525.495 67.3439C526.958 66.7522 527.651 65.1175 527.044 63.6935L523.242 54.8082C522.635 53.3891 520.959 52.7172 519.497 53.3064L514.26 55.4174C512.834 53.2538 511.221 51.213 509.428 49.3251L512.888 44.9602C513.85 43.7442 513.614 42.0068 512.364 41.0766L504.545 35.2676C503.295 34.3399 501.503 34.5681 500.538 35.779L497.057 40.149C494.749 38.9907 492.311 38.0279 489.767 37.2658L490.542 31.7776C490.755 30.2683 489.663 28.8819 488.099 28.6838L478.329 27.4453C476.773 27.2522 475.329 28.3128 475.111 29.8246ZM440.666 74.6246C443.49 55.6305 461.523 42.3151 480.962 44.7796C500.4 47.2442 514.053 64.5785 511.441 83.5977C508.814 102.735 490.742 116.311 471.091 113.821C451.44 111.329 437.826 93.734 440.666 74.6246Z" fill="#D8DEE8"/>
<path d="M325.303 26.8258L324.068 35.3776C319.968 35.5581 315.933 36.0696 312.006 36.922L308.663 28.9443C307.75 26.7681 305.175 25.7352 302.91 26.6377L288.726 32.2863C286.457 33.1914 285.35 35.691 286.257 37.8747L289.619 45.9527C286.182 48.0687 282.932 50.463 279.911 53.1181L272.779 47.7754C270.857 46.3338 268.064 46.6923 266.544 48.5727L257.015 60.3562C255.488 62.2441 255.812 64.9493 257.736 66.3959L264.887 71.7712C262.983 75.2286 261.38 78.8815 260.089 82.6898L251.014 81.539C248.578 81.2306 246.309 82.9004 245.943 85.2721L243.664 100.137C243.298 102.519 244.984 104.702 247.427 105.011L256.528 106.164C256.637 110.176 257.088 114.124 257.897 117.965L249.356 121.408C247.053 122.335 245.923 124.895 246.83 127.126L252.521 141.104C253.431 143.342 256.043 144.403 258.351 143.468L266.897 140.01C269.044 143.39 271.495 146.577 274.216 149.538L268.523 156.685C266.982 158.621 267.312 161.389 269.262 162.868L281.47 172.124C283.423 173.606 286.257 173.233 287.795 171.292L293.421 164.192C297.013 166.042 300.817 167.581 304.783 168.81L303.502 177.673C303.152 180.1 304.863 182.321 307.33 182.632L322.741 184.585C325.204 184.898 327.482 183.181 327.824 180.754L329.069 171.959C333.26 171.786 337.378 171.262 341.383 170.389L344.762 178.515C345.701 180.772 348.328 181.837 350.629 180.894L365.002 175.008C367.298 174.067 368.395 171.48 367.451 169.229L364.069 161.161C367.578 158.972 370.882 156.485 373.947 153.737L380.971 159.017C382.934 160.494 385.748 160.12 387.257 158.19L396.669 146.128C398.171 144.202 397.8 141.452 395.839 139.983L388.878 134.768C390.777 131.21 392.351 127.455 393.601 123.546L402.305 124.649C404.748 124.96 406.986 123.273 407.303 120.886L409.279 105.984C409.596 103.604 407.873 101.428 405.438 101.12L396.76 100.019C396.581 95.9576 396.052 91.9712 395.16 88.1002L403.21 84.8434C405.474 83.9283 406.545 81.4011 405.601 79.1999L399.722 65.4607C398.783 63.267 396.192 62.2291 393.933 63.1391L385.839 66.4009C383.634 63.0539 381.137 59.8999 378.369 56.9841L383.717 50.2349C385.206 48.3571 384.843 45.6694 382.905 44.2303L370.814 35.2497C368.882 33.8156 366.11 34.1692 364.618 36.042L359.234 42.7987C355.663 41.0086 351.895 39.5194 347.963 38.3385L349.164 29.8519C349.493 27.5177 347.802 25.3766 345.387 25.0708L330.28 23.1553C327.871 22.8494 325.64 24.4916 325.303 26.8258ZM272.045 96.0954C276.41 66.7268 304.293 46.1382 334.347 49.9491C364.401 53.7599 385.509 80.5612 381.474 109.97C377.412 139.557 349.472 160.551 319.089 156.698C288.703 152.847 267.651 125.64 272.045 96.0954Z" fill="#D8DEE8"/>
<path d="M310.849 109.636L244.776 640.533C243.785 648.493 249.46 655.628 257.412 656.39L532.617 685.599C549.475 686.611 558.705 678.285 559.748 669.821L629.117 105.389C630.152 96.9728 621.881 89.3486 604.951 89.3486L327.243 95.0022C319.2 95.1351 311.834 101.719 310.849 109.636Z" fill="url(#paint2_linear_251_43)"/>
<path d="M298.462 108.724L232.026 642.275C231.03 650.275 236.726 657.448 244.703 658.216L530.013 685.676C538.958 686.536 547.156 680.281 548.201 671.774L617.96 104.426C619 95.9648 612.43 89.1655 603.387 89.3134L314.913 94.0193C306.847 94.1472 299.453 100.766 298.462 108.724Z" fill="url(#paint3_linear_251_43)"/>
<path d="M303.877 138.152L242.299 632.861C241.368 640.335 246.703 647.024 254.169 647.726L522.494 672.94C530.809 673.722 538.429 667.883 539.404 659.963L603.871 135.866C604.841 127.989 598.741 121.613 590.341 121.701L319.262 124.491C311.717 124.566 304.803 130.716 303.877 138.152Z" fill="#D8DEE8"/>
<path d="M447.767 108.355C447.414 111.196 449.523 113.47 452.479 113.432C455.438 113.397 458.125 111.06 458.478 108.215C458.831 105.369 456.715 103.095 453.755 103.138C450.796 103.18 448.117 105.517 447.767 108.355Z" fill="url(#paint4_linear_251_43)"/>
<path d="M350.267 470.233C405.198 372.056 487.26 342.667 511.966 241.484C525.32 186.791 516.222 134.442 500.897 90.9835L603.391 89.3112C612.435 89.1633 619.004 95.9652 617.964 104.424L548.206 671.772C547.161 680.281 538.962 686.536 530.017 685.674L305.736 664.088C304.074 576.117 325.779 513.995 350.267 470.233Z" fill="white"/>
<path d="M27.5874 165.027C27.5874 112.859 74.6627 70.5758 131.155 70.5808C185.977 70.5858 229.243 110.645 229.243 160.053C229.243 209.461 185.977 251.654 131.155 254.364C74.6601 257.157 27.5874 217.196 27.5874 165.027Z" fill="url(#paint5_linear_251_43)"/>
<path d="M33.6771 160.868C33.6771 108.699 79.3907 66.4161 134.247 66.4211C187.481 66.4262 229.497 106.485 229.497 155.893C229.497 205.302 187.481 247.494 134.247 250.204C79.3881 252.997 33.6771 213.034 33.6771 160.868Z" fill="url(#paint6_linear_251_43)"/>
<g opacity="0.5">
<path opacity="0.5" d="M49.3267 160.469C49.3267 116.639 87.7318 81.1126 133.821 81.1201C178.547 81.1251 213.848 114.781 213.848 156.292C213.848 197.802 178.55 233.251 133.821 235.527C87.7318 237.874 49.3267 204.298 49.3267 160.469Z" fill="white"/>
</g>
<path opacity="0.5" d="M130.65 87.8543C175.375 87.8593 210.676 121.515 210.676 163.026C210.676 172.896 208.661 182.416 205.017 191.236C210.66 180.616 213.85 168.73 213.85 156.292C213.85 114.781 178.552 81.1251 133.824 81.1201C98.2772 81.1176 67.3207 102.258 55.0092 132.033C68.9495 105.856 97.8466 87.8518 130.65 87.8543Z" fill="white"/>
<path d="M95.6071 149.741V187.995C95.6071 199.054 105.232 207.779 117.069 207.481L146.42 206.741C158.114 206.445 167.565 197.337 167.565 186.393V148.543L95.6071 149.741ZM122.637 189.289L128.091 173.311C125.754 172.145 124.172 169.848 124.172 167.173C124.172 163.247 127.58 160 131.777 159.925C135.968 159.847 139.363 162.961 139.363 166.88C139.363 169.55 137.786 171.904 135.457 173.163L140.89 188.878L122.637 189.289Z" fill="white"/>
<path d="M159.221 145.226C156.106 145.276 153.58 142.947 153.58 140.021C153.58 128.776 143.816 119.751 131.774 119.901C119.691 120.051 109.827 129.38 109.827 140.695C109.827 143.639 107.268 146.065 104.106 146.118C100.942 146.168 98.3743 143.822 98.3743 140.873C98.3743 123.652 113.399 109.476 131.776 109.278C150.056 109.08 164.852 122.794 164.852 139.85C164.852 142.769 162.333 145.175 159.221 145.226Z" fill="white"/>
<path d="M227.203 363.414C227.203 363.414 225.206 356.178 226.622 354.328C228.035 352.478 236.685 345.082 235.855 347.494C235.022 349.906 233.775 351.513 233.775 351.513C233.775 351.513 238.433 353.604 235.437 356.737C232.444 359.874 231.443 360.596 231.277 363.411C231.114 366.227 229.2 367.192 227.203 363.414Z" fill="url(#paint7_linear_251_43)"/>
<path d="M144.119 675.745C144.119 675.745 143.06 682.003 143.195 684.229C143.33 686.456 168.897 687.594 169.154 685.927C169.411 684.26 164.929 681.605 161.773 680.669C158.617 679.732 149.378 677.235 149.378 677.235L144.119 675.745Z" fill="url(#paint8_linear_251_43)"/>
<path d="M150.324 669.508L149.509 677.29C149.509 677.29 146.54 679.188 143.923 677.724L142.613 669.255L150.324 669.508Z" fill="url(#paint9_linear_251_43)"/>
<path d="M98.5014 685.89C98.5014 685.89 97.4432 692.147 97.578 694.374C97.7129 696.6 123.28 697.738 123.537 696.071C123.796 694.404 119.312 691.749 116.156 690.814C112.999 689.878 103.761 687.379 103.761 687.379L98.5014 685.89Z" fill="url(#paint10_linear_251_43)"/>
<path d="M104.709 679.652L103.894 687.434C103.894 687.434 100.925 689.332 98.3078 687.867L96.998 679.398L104.709 679.652Z" fill="url(#paint11_linear_251_43)"/>
<path d="M145.686 466.364C148.64 472.156 151.596 477.947 154.55 483.739C156.926 516.791 158.109 552.733 157.349 591.17C156.783 619.766 155.204 646.856 152.932 672.283C148.925 672.105 144.918 671.927 140.911 671.749C135.117 660.633 128.278 643.792 127.648 623.003C126.991 601.319 133.792 598.438 133.361 577.676C132.801 550.765 121.127 543.584 114.908 511.215C112.53 498.834 110.93 482.666 112.831 463.05C123.783 464.156 134.733 465.261 145.686 466.364Z" fill="url(#paint12_linear_251_43)"/>
<path opacity="0.3" d="M112.833 463.05C118.746 463.647 124.66 464.243 130.575 464.84C141.222 482.749 144.194 501.387 142.324 509.633C139.681 521.298 132.689 525.034 133.076 536.745C133.457 548.333 140.519 551.339 144.998 564.995C148.1 574.452 147.28 583.147 145.517 600.15C141.964 634.4 133.408 644.875 140.573 656.105C142.609 659.296 146.279 663.095 153.468 665.995C153.292 668.096 153.118 670.202 152.934 672.281C148.927 672.105 144.92 671.925 140.913 671.749C135.119 660.633 128.28 643.792 127.65 623.003C126.994 601.319 133.794 598.438 133.363 577.676C132.803 550.765 121.13 543.587 114.91 511.217C112.532 498.837 110.929 482.668 112.833 463.05Z" fill="url(#paint13_linear_251_43)"/>
<path d="M129.784 476.792C124.236 506.035 119.337 537.331 115.514 570.523C110.898 610.6 108.434 648.383 107.467 683.46C103.068 683.58 98.6718 683.701 94.2732 683.821C76.9432 650.679 75.8851 628.21 78.3826 613.581C79.3448 607.945 81.9617 596.891 82.5582 580.369C82.9732 568.854 82.2133 560.089 81.264 549.554C79.184 526.455 76.6579 521.414 76.2948 503.746C75.9525 487.164 75.8825 478.775 80.7791 473.878C93.6793 460.974 127.24 475.648 129.784 476.792Z" fill="url(#paint14_linear_251_43)"/>
<path d="M224.903 362.299C227.828 362.1 230.751 361.905 233.677 361.707C240.576 388.661 235.627 414.806 220.056 424.42C195.726 439.443 150.507 411.14 140.709 380.32C136.409 366.791 137.387 347.271 145.984 343.477C148.37 342.424 152.074 342.261 160.096 346.614C184.052 359.616 184.682 384.191 196.862 386.272C202.272 387.199 211.017 383.862 224.903 362.299Z" fill="url(#paint15_linear_251_43)"/>
<path d="M157.917 489.668C162.131 482.909 156.838 476.39 155.634 463.586C154.27 449.073 160.054 446.656 165.773 422.605C169.577 406.609 173.226 391.253 168.869 373.277C166.781 364.662 163.239 350.051 150.727 342.993C144.272 339.35 135.457 339.716 118.093 340.594C96.6185 341.679 85.8839 342.221 77.875 346.298C76.7027 346.894 52.3443 359.703 50.6662 380.583C48.9597 401.833 72.898 404.689 76.0907 433.027C77.5249 445.748 74.9703 465.314 73.313 478.003C71.7231 490.187 70.6261 493.306 73.1159 496.997C79.1121 505.889 97.4666 503.355 134.175 498.288C148.575 496.297 154.771 494.713 157.917 489.668Z" fill="url(#paint16_linear_251_43)"/>
<path d="M102.061 428.467C100.508 433.99 94.9262 438.114 91.0411 451.55C90.2034 454.451 84.2253 475.107 91.9774 480.191C96.4538 483.127 100.474 477.564 111.341 476.837C130.17 475.578 139.141 490.877 151.442 486.697C153.576 485.97 156.393 484.426 159.207 480.876C159.767 484.075 159.671 486.855 157.918 489.671C154.775 494.715 148.576 496.3 134.177 498.288C97.4679 503.355 79.1134 505.89 73.1172 496.997C70.63 493.309 71.7245 490.187 73.3143 478.003C74.9716 465.312 77.5262 445.746 76.092 433.027C72.8993 404.689 48.9584 401.833 50.6675 380.583C51.124 374.902 53.2844 369.845 56.1762 365.44C86.5439 377.319 106.939 411.11 102.061 428.467Z" fill="url(#paint17_linear_251_43)"/>
<path d="M63.707 470.265L69.7836 474.016C70.8755 472.798 73.4016 470.341 77.3438 469.503C81.7865 468.558 86.888 469.914 87.0047 471.283C87.1007 472.381 83.9936 473.49 83.5138 473.66C79.6365 475.044 76.7602 473.893 75.1937 475.4C74.6387 475.932 73.9488 476.924 72.359 477.842C71.9414 478.083 71.5057 478.296 71.2749 478.384C68.6866 479.356 64.249 475.001 63.8678 474.62L63.707 470.265Z" fill="url(#paint18_linear_251_43)"/>
<path d="M81.6564 393.231C86.0525 383.054 89.0973 367.473 82.1544 344.334C36.4096 361.759 13.0808 403.066 22.1893 435.81C29.6975 462.804 57.0179 475.951 63.1127 478.719C64.5313 475.598 65.95 472.479 67.3661 469.36C60.3039 461.759 52.3443 450.517 53.4699 437.687C55.0312 419.902 72.758 413.832 81.6564 393.231Z" fill="url(#paint19_linear_251_43)"/>
<path d="M116.967 319.659C116.967 319.659 116.606 327.393 114.122 333.187C111.876 338.422 100.07 341.714 97.676 342.883C95.2822 344.051 102.16 347.468 109.067 348.138C115.973 348.809 135.695 347.293 139.25 344.763C142.806 342.233 136.392 342.424 131.465 340.674C126.534 338.924 123.684 329.605 124.555 325.375C125.427 321.143 116.967 319.659 116.967 319.659Z" fill="url(#paint20_linear_251_43)"/>
<path d="M127.891 316.854C131.475 313.449 131.975 313.053 132.364 311.877C133.931 307.156 130.142 300.688 125.173 299.096C124.913 299.013 121.58 297.982 120.31 299.379C119.228 300.565 120.818 302.204 120.063 304.494C119.355 306.635 117.436 306.795 113.875 309.603C110.942 311.915 109.121 313.354 108.701 315.377C107.835 319.546 113.056 325.589 117.677 325.426C119.34 325.365 119.794 324.546 127.891 316.854Z" fill="url(#paint21_linear_251_43)"/>
<path d="M118.132 326.07C118.132 326.07 121.942 330.239 127.743 328.86C132.938 327.627 131.613 316.099 127.811 314.259C126.543 313.644 124.237 313.695 122.505 314.502C121.48 314.978 121.195 315.475 119.506 316.222C117.95 316.911 117.455 316.816 117.037 317.302C116.513 317.909 116.288 319.218 117.93 322.372C116.747 321.562 115.473 321.392 114.693 321.928C114.568 322.013 114.252 322.314 114.114 322.708C113.619 324.134 115.154 325.586 118.132 326.07Z" fill="url(#paint22_linear_251_43)"/>
<path d="M552.616 169.988L553.957 176.985L526.354 177.048L286.815 177.597C280.653 177.612 274.986 182.536 274.14 188.596L216.958 558.03C216.108 564.145 225.953 573.479 232.078 573.935L338.349 581.83V581.705L497.312 593.493C497.314 593.493 497.317 593.493 497.319 593.493L497.703 593.649C504.491 594.155 510.718 589.394 511.599 582.936C511.599 582.933 511.599 582.963 511.602 582.961L565.153 188.526C566.025 182.127 559.442 169.97 552.616 169.988Z" fill="url(#paint23_linear_251_43)"/>
<path d="M506.184 575.25C505.307 581.711 499.083 586.54 492.295 586.036L226.396 566.299C220.272 565.846 216.011 560.521 216.862 554.406L268.844 181.043C269.687 174.983 275.354 170.059 281.511 170.041L548.912 169.329C555.736 169.312 560.575 174.484 559.709 180.882L506.184 575.25Z" fill="url(#paint24_linear_251_43)"/>
<path d="M509.716 369.921C509.281 373.12 506.189 375.507 502.812 375.387L268.79 367.131C265.701 367.023 263.528 364.564 263.953 361.507L268.554 328.541C268.979 325.487 271.798 323.421 274.89 323.504L509.117 329.792C512.499 329.882 514.893 332.191 514.46 335.388L509.716 369.921Z" fill="white"/>
<path d="M500.655 436.905C500.219 440.111 497.125 442.847 493.748 442.684L259.902 431.517C256.816 431.369 254.668 428.513 255.093 425.455L259.731 391.852C260.156 388.795 263.001 386.175 266.09 386.296L500.079 395.419C503.456 395.552 505.844 398.505 505.408 401.707L500.655 436.905Z" fill="white"/>
<path opacity="0.1" d="M514.479 335.255C513.924 335.082 513.327 334.987 512.692 334.97L278.459 328.684C275.37 328.599 272.549 330.67 272.129 333.716L267.52 366.682C267.509 366.768 267.502 366.848 267.494 366.933C265.118 366.286 263.591 364.11 263.948 361.503L268.557 328.536C268.977 325.49 271.799 323.417 274.888 323.504L509.121 329.79C512.443 329.885 514.826 332.121 514.479 335.255Z" fill="url(#paint25_linear_251_43)"/>
<path opacity="0.1" d="M505.459 400.965C504.896 400.749 504.289 400.619 503.646 400.594L269.662 391.468C266.573 391.347 263.723 393.972 263.303 397.028L258.658 430.634C258.632 430.85 258.614 431.058 258.614 431.273C256.238 430.531 254.729 428.062 255.087 425.454L259.732 391.849C260.152 388.793 263 386.168 266.091 386.288L500.075 395.414C503.2 395.544 505.467 398.064 505.459 400.965Z" fill="url(#paint26_linear_251_43)"/>
<path d="M438.462 491.197C439.152 486.14 435.454 481.482 430.196 481.189L309.143 474.47C304.13 474.191 299.5 478.273 298.818 483.197L293.823 519.596C293.141 524.527 296.619 529.246 301.63 529.577L422.621 537.579C427.875 537.928 432.715 533.638 433.407 528.574L438.462 491.197Z" fill="url(#paint27_linear_251_43)"/>
<path d="M447.604 245.966C446.009 257.602 439.826 268.104 431.034 275.829C421.56 284.16 409.08 289.23 396.102 288.986C383.189 288.746 372.319 283.293 365.34 274.776C358.903 266.926 355.749 256.466 357.329 245.026C360.615 221.226 383.236 201.986 408.058 202.044C433.117 202.096 450.919 221.76 447.604 245.966Z" fill="url(#paint28_linear_251_43)"/>
<path d="M423.466 232.741C422.034 243.166 412.081 251.52 401.273 251.395C390.51 251.269 382.973 242.777 384.397 232.428C385.824 222.081 395.676 213.735 406.445 213.782C417.26 213.83 424.898 222.317 423.466 232.741Z" fill="white"/>
<path d="M431.036 275.829C421.562 284.161 409.082 289.23 396.104 288.987C383.191 288.746 372.321 283.293 365.342 274.776C373.33 264.018 386.505 256.863 400.497 257.038C414.565 257.214 425.904 264.75 431.036 275.829Z" fill="white"/>
<path opacity="0.4" d="M559.707 180.881L506.184 575.249C505.307 581.707 498.686 586.508 491.901 586.004L332.199 574.151C324.613 566.642 318.365 557.631 313.907 546.818C311.718 541.515 310.115 535.794 309.049 529.777C306.085 513.124 307.234 494.196 311.557 475.615C314.882 461.312 320.095 447.192 326.768 434.45C332.106 424.264 338.382 414.95 345.393 407.123C350.44 401.489 355.899 396.016 361.657 390.648C368.599 384.17 375.978 377.847 383.59 371.581C401.327 356.972 420.32 342.689 437.904 327.606C478.477 292.812 511.394 253.934 503.474 198.461C503.22 196.714 500.748 183.333 497.589 169.464L548.516 169.328C555.337 169.311 560.576 174.485 559.707 180.881Z" fill="white"/>
<defs>
<linearGradient id="paint0_linear_251_43" x1="486.29" y1="506.345" x2="664.718" y2="7.84344" gradientUnits="userSpaceOnUse">
<stop offset="0.00359712" stop-color="#E38DDD"/>
<stop offset="1" stop-color="#9571F6"/>
</linearGradient>
<linearGradient id="paint1_linear_251_43" x1="346.059" y1="457.521" x2="713.491" y2="457.521" gradientUnits="userSpaceOnUse">
<stop stop-color="#FF9085"/>
<stop offset="1" stop-color="#FB6FBB"/>
</linearGradient>
<linearGradient id="paint2_linear_251_43" x1="440.351" y1="373.786" x2="548.718" y2="386.015" gradientUnits="userSpaceOnUse">
<stop stop-color="#444B8C"/>
<stop offset="0.9964" stop-color="#26264F"/>
</linearGradient>
<linearGradient id="paint3_linear_251_43" x1="344.791" y1="109.506" x2="596.713" y2="996.711" gradientUnits="userSpaceOnUse">
<stop stop-color="#444B8C"/>
<stop offset="0.9964" stop-color="#26264F"/>
</linearGradient>
<linearGradient id="paint4_linear_251_43" x1="445.285" y1="87.7677" x2="742.154" y2="919.497" gradientUnits="userSpaceOnUse">
<stop stop-color="#FFC444"/>
<stop offset="0.9964" stop-color="#F36F56"/>
</linearGradient>
<linearGradient id="paint5_linear_251_43" x1="-2308.4" y1="2383.76" x2="-2099.7" y2="2180.18" gradientUnits="userSpaceOnUse">
<stop stop-color="#311944"/>
<stop offset="1" stop-color="#893976"/>
</linearGradient>
<linearGradient id="paint6_linear_251_43" x1="66.0634" y1="215.796" x2="233.52" y2="58.5972" gradientUnits="userSpaceOnUse">
<stop stop-color="#FF9085"/>
<stop offset="1" stop-color="#FB6FBB"/>
</linearGradient>
<linearGradient id="paint7_linear_251_43" x1="241.098" y1="347.575" x2="208.043" y2="382.38" gradientUnits="userSpaceOnUse">
<stop stop-color="#FFC444"/>
<stop offset="0.9964" stop-color="#F36F56"/>
</linearGradient>
<linearGradient id="paint8_linear_251_43" x1="156.24" y1="667.544" x2="156.51" y2="592.814" gradientUnits="userSpaceOnUse">
<stop stop-color="#AA80F9"/>
<stop offset="0.9964" stop-color="#6165D7"/>
</linearGradient>
<linearGradient id="paint9_linear_251_43" x1="148.583" y1="691.558" x2="145.142" y2="652.922" gradientUnits="userSpaceOnUse">
<stop stop-color="#FFC444"/>
<stop offset="0.9964" stop-color="#F36F56"/>
</linearGradient>
<linearGradient id="paint10_linear_251_43" x1="110.665" y1="667.38" x2="110.934" y2="592.65" gradientUnits="userSpaceOnUse">
<stop stop-color="#AA80F9"/>
<stop offset="0.9964" stop-color="#6165D7"/>
</linearGradient>
<linearGradient id="paint11_linear_251_43" x1="102.393" y1="695.672" x2="98.951" y2="657.035" gradientUnits="userSpaceOnUse">
<stop stop-color="#FFC444"/>
<stop offset="0.9964" stop-color="#F36F56"/>
</linearGradient>
<linearGradient id="paint12_linear_251_43" x1="147.185" y1="496.986" x2="120.642" y2="637.363" gradientUnits="userSpaceOnUse">
<stop stop-color="#311944"/>
<stop offset="1" stop-color="#893976"/>
</linearGradient>
<linearGradient id="paint13_linear_251_43" x1="161.326" y1="565.464" x2="118.774" y2="568.992" gradientUnits="userSpaceOnUse">
<stop stop-color="#311944"/>
<stop offset="1" stop-color="#893976"/>
</linearGradient>
<linearGradient id="paint14_linear_251_43" x1="137.779" y1="573.204" x2="73.182" y2="578.561" gradientUnits="userSpaceOnUse">
<stop stop-color="#311944"/>
<stop offset="1" stop-color="#893976"/>
</linearGradient>
<linearGradient id="paint15_linear_251_43" x1="188.826" y1="367.006" x2="144.076" y2="664.306" gradientUnits="userSpaceOnUse">
<stop stop-color="#AA80F9"/>
<stop offset="0.9964" stop-color="#6165D7"/>
</linearGradient>
<linearGradient id="paint16_linear_251_43" x1="87.1354" y1="692.83" x2="65.5171" y2="992.52" gradientUnits="userSpaceOnUse">
<stop stop-color="#AA80F9"/>
<stop offset="0.9964" stop-color="#6165D7"/>
</linearGradient>
<linearGradient id="paint17_linear_251_43" x1="8.51141" y1="590.683" x2="129.803" y2="375.762" gradientUnits="userSpaceOnUse">
<stop stop-color="#AA80F9"/>
<stop offset="0.9964" stop-color="#6165D7"/>
</linearGradient>
<linearGradient id="paint18_linear_251_43" x1="53.7572" y1="444.556" x2="79.5096" y2="480.543" gradientUnits="userSpaceOnUse">
<stop stop-color="#FFC444"/>
<stop offset="0.9964" stop-color="#F36F56"/>
</linearGradient>
<linearGradient id="paint19_linear_251_43" x1="30.6346" y1="688.754" x2="9.01636" y2="988.445" gradientUnits="userSpaceOnUse">
<stop stop-color="#AA80F9"/>
<stop offset="0.9964" stop-color="#6165D7"/>
</linearGradient>
<linearGradient id="paint20_linear_251_43" x1="130.2" y1="356.961" x2="105.345" y2="324.97" gradientUnits="userSpaceOnUse">
<stop stop-color="#FFC444"/>
<stop offset="0.9964" stop-color="#F36F56"/>
</linearGradient>
<linearGradient id="paint21_linear_251_43" x1="110.495" y1="345.513" x2="123.402" y2="301.591" gradientUnits="userSpaceOnUse">
<stop stop-color="#444B8C"/>
<stop offset="0.9964" stop-color="#3E4177"/>
</linearGradient>
<linearGradient id="paint22_linear_251_43" x1="145.524" y1="330.271" x2="107.333" y2="312.686" gradientUnits="userSpaceOnUse">
<stop stop-color="#FFC444"/>
<stop offset="0.9964" stop-color="#F36F56"/>
</linearGradient>
<linearGradient id="paint23_linear_251_43" x1="216.908" y1="381.838" x2="565.232" y2="381.838" gradientUnits="userSpaceOnUse">
<stop stop-color="#311944"/>
<stop offset="1" stop-color="#893976"/>
</linearGradient>
<linearGradient id="paint24_linear_251_43" x1="428.678" y1="1044.11" x2="389.857" y2="348.499" gradientUnits="userSpaceOnUse">
<stop offset="0.003597" stop-color="#F36F56"/>
<stop offset="1" stop-color="#FFC444"/>
</linearGradient>
<linearGradient id="paint25_linear_251_43" x1="263.896" y1="345.22" x2="514.511" y2="345.22" gradientUnits="userSpaceOnUse">
<stop offset="0.003597" stop-color="#F36F56"/>
<stop offset="1" stop-color="#FFC444"/>
</linearGradient>
<linearGradient id="paint26_linear_251_43" x1="255.037" y1="408.78" x2="505.458" y2="408.78" gradientUnits="userSpaceOnUse">
<stop offset="0.003597" stop-color="#F36F56"/>
<stop offset="1" stop-color="#FFC444"/>
</linearGradient>
<linearGradient id="paint27_linear_251_43" x1="378.125" y1="432.248" x2="325.729" y2="775.967" gradientUnits="userSpaceOnUse">
<stop offset="0.003597" stop-color="#F36F56"/>
<stop offset="1" stop-color="#FFC444"/>
</linearGradient>
<linearGradient id="paint28_linear_251_43" x1="396.539" y1="74.9425" x2="407.712" y2="419.118" gradientUnits="userSpaceOnUse">
<stop offset="0.003597" stop-color="#F36F56"/>
<stop offset="1" stop-color="#FFC444"/>
</linearGradient>
</defs>
</svg>
