<svg width="41" height="41" viewBox="0 0 41 41" fill="none" xmlns="http://www.w3.org/2000/svg">
<path fill-rule="evenodd" clip-rule="evenodd" d="M3.98624 25.8105C-0.985316 24.1003 -0.985332 17.1463 3.98624 15.4361L5.26383 14.9966L4.57076 13.8477C1.87378 9.37691 6.39316 4.04977 11.3131 5.90039L12.5774 6.37596L12.7931 5.05523C13.6327 -0.0842177 20.5568 -1.2918 23.1229 3.25373L23.7824 4.42183L24.806 3.54725C28.7892 0.143943 34.8782 3.62095 33.8899 8.73447L33.6359 10.0485L34.9884 10.0293C40.2515 9.95461 42.6563 16.4893 38.5759 19.7781L37.5274 20.6233L38.5759 21.4685C42.6563 24.7573 40.2516 31.292 34.9884 31.2173L33.6359 31.1981L33.8899 32.5121C34.8782 37.6256 28.7892 41.1027 24.806 37.6993L23.7824 36.8248L23.1229 37.9929C20.5568 42.5384 13.6327 41.3308 12.7931 36.1914L12.5774 34.8706L11.3131 35.3462C6.39319 37.1968 1.87376 31.8697 4.57076 27.3989L5.26383 26.25L3.98624 25.8105ZM10.2049 20.6233C12.635 21.9395 13.7119 24.8658 12.7057 27.419C15.4226 26.8823 18.1494 28.4394 19.0379 31.0349C20.7704 28.8965 23.8711 28.3557 26.2386 29.7791C26.176 27.0395 28.1999 24.654 30.9385 24.2392C29.1101 22.1804 29.1101 19.0662 30.9385 17.0074C28.1999 16.5926 26.176 14.2071 26.2386 11.4675C23.8711 12.8909 20.7704 12.3501 19.0379 10.2117C18.1494 12.8072 15.4226 14.3643 12.7057 13.8276C13.7119 16.3808 12.635 19.3071 10.2049 20.6233Z" fill="#2F2965"/>
</svg>
