<svg width="41" height="41" viewBox="0 0 41 41" fill="none" xmlns="http://www.w3.org/2000/svg">
<path fill-rule="evenodd" clip-rule="evenodd" d="M24.1207 4.05825C24.1207 2.16212 22.5836 0.625 20.6875 0.625C18.7913 0.625 17.2542 2.16212 17.2542 4.05825V7.82193L15.3947 4.5497C14.4579 2.90116 12.3621 2.3242 10.7135 3.26101C9.06497 4.19783 8.48801 6.29367 9.42482 7.94221L11.5409 11.6659L7.81717 9.54983C6.16863 8.61302 4.07278 9.18998 3.13597 10.8385C2.19915 12.4871 2.77612 14.5829 4.42466 15.5197L7.69689 17.3792H3.93325C2.03712 17.3792 0.5 18.9164 0.5 20.8125C0.5 22.7086 2.03712 24.2457 3.93325 24.2457H7.69704L4.42474 26.1053C2.7762 27.0421 2.19923 29.1379 3.13605 30.7865C4.07286 32.435 6.16871 33.012 7.81725 32.0752L11.5408 29.9592L9.42481 33.6828C8.488 35.3313 9.06496 37.4272 10.7135 38.364C12.362 39.3008 14.4579 38.7238 15.3947 37.0753L17.2542 33.803V37.5667C17.2542 39.4629 18.7913 41 20.6875 41C22.5836 41 24.1207 39.4629 24.1207 37.5667V33.803L25.9803 37.0753C26.9171 38.7238 29.0129 39.3008 30.6615 38.364C32.31 37.4272 32.887 35.3313 31.9502 33.6828L29.8342 29.9592L33.5577 32.0752C35.2063 33.012 37.3021 32.435 38.2389 30.7865C39.1758 29.1379 38.5988 27.0421 36.9502 26.1053L33.678 24.2457H37.4417C39.3379 24.2457 40.875 22.7086 40.875 20.8125C40.875 18.9164 39.3379 17.3792 37.4417 17.3792H33.6781L36.9503 15.5197C38.5989 14.5829 39.1758 12.4871 38.239 10.8385C37.3022 9.18998 35.2064 8.61302 33.5578 9.54983L29.8341 11.6659L31.9502 7.94221C32.887 6.29367 32.31 4.19783 30.6615 3.26101C29.0129 2.3242 26.9171 2.90116 25.9803 4.5497L24.1207 7.82199V4.05825Z" fill="#E55733"/>
</svg>
