<svg width="44" height="34" viewBox="0 0 44 34" fill="none" xmlns="http://www.w3.org/2000/svg">
<path d="M0.875773 20.7794C0.573057 19.3816 2.36172 18.6773 3.7633 18.3734C4.53771 18.2055 5.38459 18.0154 6.26085 17.8124L7.10567 17.6148C9.29458 17.0979 11.0583 17.2089 12.7962 16.7096C13.767 15.0111 17.772 9.3057 18.9965 7.78039C16.2234 8.01892 10.2703 11.1411 7.51644 11.5491C6.86036 11.6433 6.2052 11.7439 5.54898 11.8372C4.12915 12.039 2.81572 11.0546 2.61535 9.63837C2.41499 8.22216 3.40356 6.91048 4.8234 6.70866C5.41167 6.62504 5.99952 6.53814 6.58713 6.45002C9.00101 6.09186 12.2709 5.60669 14.2315 5.45958C15.7956 5.34222 17.356 5.18057 18.9203 5.06456C19.6011 5.01407 20.3144 4.96872 21.0032 4.94768C21.8951 4.03131 25.5294 0.095585 26.4098 -0.831893C23.4251 -0.734938 13.3761 1.512 10.9811 2.66222C9.6587 3.01656 8.16178 3.47303 7.34094 2.30121C6.5201 1.12939 6.29059 0.371568 7.4663 -0.448937C9.08522 -1.57875 11.1187 -2.1074 13.0685 -2.32636C13.712 -2.39863 14.5085 -2.47142 15.3927 -2.54129C17.1638 -2.68124 19.3441 -2.81391 21.4701 -2.90833C23.5897 -3.00246 25.6926 -3.06026 27.298 -3.04627C27.5877 -3.04374 27.8697 -3.03884 28.1391 -3.03086C29.1826 -4.41167 31.5551 -8.37208 32.537 -9.79163C28.3553 -9.99258 21.3919 -7.74809 17.6842 -5.81184C16.4131 -5.14804 14.8447 -5.63718 14.1811 -6.90437C13.5174 -8.17155 14.0099 -9.73692 15.281 -10.4007C18.6302 -12.1498 22.477 -12.5359 25.9976 -12.5591C28.8632 -12.578 31.7174 -12.3395 34.5801 -12.2716C34.775 -12.6089 34.9581 -12.9497 35.1281 -13.2985L37.5342 -18.2564C38.1597 -19.5445 39.7128 -20.0842 41.003 -19.4619C42.2933 -18.8396 42.8322 -17.291 42.2066 -16.0029C41.1042 -13.7329 40.1068 -11.3789 38.795 -9.2176C39.3871 -7.47371 40.3874 -4.41904 41.3198 -1.33348C41.9793 0.848837 42.6217 3.10116 43.0724 4.96607C43.2969 5.89484 43.484 6.76869 43.5998 7.50972C43.6944 8.11452 43.8171 9.04214 43.6506 9.83972C43.3582 11.2406 41.9831 12.1412 40.5794 11.8514C38.6395 11.4509 39.037 8.47972 38.8024 6.97905C38.1405 2.74521 38.7062 -3.74199 37.4447 -7.67588C36.6481 -6.5356 33.9554 -2.77292 33.1217 -1.65854C34.5124 0.886672 36.3115 12.7839 36.8962 16.1103C37.1285 17.4318 37.0307 18.6887 36.9338 19.6637C36.7923 21.0875 35.5209 22.1288 34.094 21.9896C32.6671 21.8503 31.625 20.5833 31.7665 19.1596C31.858 18.2389 31.8827 17.5869 31.7816 17.0118C31.047 12.8327 32.2744 4.53144 31.0219 0.42314C31.0219 0.42314 26.9038 5.47017 26.0597 6.34137C26.4516 8.27749 26.9323 10.8902 27.4381 12.8054C27.804 14.1906 28.1471 15.5886 28.4843 16.9627L28.4844 16.9633L28.8917 18.616C29.0515 19.2586 29.2122 19.8092 29.3936 20.4305L29.3936 20.4306C29.4357 20.5747 29.479 20.7229 29.5236 20.8767C29.7576 21.6844 30.0082 22.5855 30.2675 23.7584C30.5762 25.155 29.6913 26.5383 28.291 26.8482C26.8907 27.1581 25.5053 26.2771 25.1966 24.8806C24.4015 21.2834 24.5527 19.8725 23.6125 16.3129C23.3866 15.4578 22.9613 10.5407 22.7835 9.68107C23.7398 7.95186 18.2428 15.0848 18.5325 15.5585C19.064 16.4277 18.617 15.4802 19.3703 17.4496C20.2902 19.8547 21.0968 22.3019 22.0373 24.6994C22.6696 26.311 22.5662 28.1975 20.9296 29.7022C20.5261 30.0732 19.652 30.534 18.681 29.4827C16.6989 27.1575 16.8766 21.6317 15.7189 18.4279C15.0437 20.0281 12.3648 23.9717 11.7303 25.6444C11.7767 27.4487 12.3146 27.8253 13.4641 30.1123C14.1065 31.3904 13.9977 32.7502 13.139 33.6177C12.2691 34.4964 10.324 33.2124 9.93287 31.8367C9.81527 31.4231 9.51193 30.6205 9.15825 29.7393C8.45984 30.1148 7.74054 30.4918 7.39387 30.6377C6.07207 31.194 5.18858 31.2016 4.63279 29.8837C4.06721 28.5425 4.83331 27.7463 6.11473 27.1491C7.17494 26.655 8.13679 26.2907 8.47496 25.4006C8.81313 24.5104 10.9 20.6113 11.2582 19.708C9.27292 20.2015 6.42321 21.6601 4.74167 22.0247C3.34009 22.3287 1.17849 22.1773 0.875773 20.7794Z" fill="#F4ADB3"/>
</svg>
