<svg width="42" height="41" viewBox="0 0 42 41" fill="none" xmlns="http://www.w3.org/2000/svg">
<path d="M26.4643 18.2C34.9907 18.4717 41.25 19.3706 41.25 20.4376C41.25 21.5046 34.9907 22.4034 26.4643 22.6751C32.3013 28.8962 36.0917 33.9578 35.3372 34.7123C34.5827 35.4668 29.5211 31.6764 23.3 25.8394C23.0284 34.3657 22.1295 40.6251 21.0625 40.6251C19.9955 40.6251 19.0966 34.3657 18.825 25.8394C12.6039 31.6763 7.54226 35.4667 6.78778 34.7123C6.0333 33.9578 9.8237 28.8962 15.6606 22.6751C7.13432 22.4034 0.875 21.5046 0.875 20.4376C0.875 19.3706 7.13432 18.4717 15.6606 18.2C9.8237 11.9789 6.03329 6.91733 6.78777 6.16284C7.54226 5.40836 12.6039 9.19877 18.825 15.0357C19.0966 6.50939 19.9955 0.250061 21.0625 0.250061C22.1295 0.250061 23.0284 6.50938 23.3 15.0357C29.5211 9.19876 34.5827 5.40835 35.3372 6.16283C36.0917 6.91732 32.3013 11.9789 26.4643 18.2Z" fill="#2F2965"/>
</svg>
