<svg width="68" height="45" viewBox="0 0 68 45" fill="none" xmlns="http://www.w3.org/2000/svg">
<path fill-rule="evenodd" clip-rule="evenodd" d="M63.1377 4.36547C60.1377 4.05001 54.057 2.85764 48.4828 1.98095C38.3499 0.371106 39.0056 0.418248 38.6779 1.64133C38.1895 3.46396 39.8243 7.24353 42.7704 11.1174L43.4011 11.929C34.7314 17.1372 32.8041 18.5742 21.1771 26.6656C7.27064 36.3568 6.43617 38.7036 2.07923 41.7258C-0.979582 43.8365 1.82839 45.5398 5.28674 43.6648C9.91815 41.153 19.8264 36.7908 27.7002 33.7855C29.785 33.0076 50.8741 24.5212 50.8741 24.5212C54.5831 31.0157 54.8892 31.7918 56.1718 31.8013C56.6836 31.8099 56.8005 31.6613 57.1779 30.3487C58.3967 26.2799 64.7411 14.3055 66.5771 8.98838C67.9847 4.79028 66.4622 4.7165 63.1377 4.36547ZM63.6795 8.6746C61.6189 11.9523 57.2066 21.1287 55.9035 24.8407L55.138 27.0261C53.105 21.8547 52.7841 20.175 47.7326 22.24C41.529 24.7675 22.589 32.2361 20.7761 32.9584C15.2462 35.178 15.2462 35.178 18.6155 32.8678C25.7495 28.0193 43.8819 15.2193 45.6245 14.3753C45.7993 14.0109 48.4419 14.7962 44.3008 8.5715C43.1433 6.84766 42.3118 5.4424 42.4446 5.42657C42.9388 5.40477 57.5392 7.80048 62.1416 8.08267C63.856 8.20787 63.9519 8.23351 63.6795 8.6746Z" fill="#00FFA3"/>
</svg>
