<svg width="33" height="28" viewBox="0 0 33 28" fill="none" xmlns="http://www.w3.org/2000/svg">
<path fill-rule="evenodd" clip-rule="evenodd" d="M15.5944 15.6177C22.2844 13.8656 21.9171 14.7426 27.4767 16.2753C28.5976 16.5843 32.2102 18.7661 32.5753 18.2825C33.3529 17.2529 31.1825 12.6084 30.0982 10.7343C26.3311 4.22428 21.7995 0.473023 13.9583 0.563258C7.41844 0.638626 2.57158 7.22038 1.2505 13.0878C0.807845 15.0541 0.622113 17.8033 0.400633 19.7783C-0.018851 23.5191 0.334201 26.9449 0.97802 27.4833C1.48225 27.9047 2.36396 26.317 2.5932 25.9357C3.87016 23.8106 5.2742 21.5857 7.1019 19.8344C7.65137 19.3078 8.64242 18.6239 9.24899 18.1726C11.1398 16.7662 13.283 16.2231 15.5944 15.6177Z" fill="#939878"/>
</svg>
