<svg width="30" height="32" viewBox="0 0 30 32" fill="none" xmlns="http://www.w3.org/2000/svg">
<path fill-rule="evenodd" clip-rule="evenodd" d="M7.02927 2.99995C3.64888 5.33386 2.28359 9.07833 3.65699 12.1239C4.09814 13.1204 4.05056 13.2029 2.47443 14.6005C-3.03334 19.5247 1.75089 29.3197 8.20597 26.3709C8.52226 26.2513 8.75205 26.329 8.78922 26.5977C8.91938 28.5134 11.6856 30.9072 14.4365 31.4241C17.4498 32.01 26.4052 30.2026 25.7492 21.7746C25.6284 20.4137 25.7386 20.1752 26.6678 19.6127C32.4525 16.1121 29.3722 6.6966 22.502 6.79585C21.7022 6.80114 21.5113 6.60841 20.9221 5.05948C19.1371 0.347695 12.3456 -0.688692 7.02927 2.99995ZM13.9729 4.3441C15.0878 5.12516 16.5738 8.07095 16.3191 8.94035C16.127 9.65362 17.5344 10.3562 18.8866 10.2029C22.4384 9.8085 24.8042 12.658 23.8916 16.142C23.4925 17.6422 23.0532 18.2128 21.0133 19.6998C19.9653 20.4683 19.9264 20.5832 20.3008 21.9807C21.8596 27.7981 16.4793 30.5981 14.039 25.2607C13.1828 23.3653 12.5497 23.0822 10.385 23.4532C5.45313 24.287 3.36141 16.8708 7.86016 14.5507C8.96047 13.9772 9.14617 13.3703 8.85521 11.1144C8.26801 5.80304 10.9577 2.19122 13.9729 4.3441Z" fill="#00FFA3"/>
</svg>
