<svg width="50" height="28" viewBox="0 0 50 28" fill="none" xmlns="http://www.w3.org/2000/svg">
<path fill-rule="evenodd" clip-rule="evenodd" d="M5.92995 19.3425C18.0159 31.4761 29.6022 29.7869 42.0688 14.0847C44.0196 11.6104 43.9958 11.5866 43.4724 14.5843C42.8776 17.9864 42.7587 26.4323 43.3296 26.575C44.8761 26.9319 45.8515 24.196 46.0894 18.962C46.3036 13.9896 47.3027 8.80312 48.635 5.85301C50.919 0.761692 50.0149 -0.856225 46.3987 1.80839C43.5199 3.92581 41.1171 4.80617 34.4794 6.06711C29.0788 7.09013 28.1747 7.61346 27.4372 9.92121C26.4379 13.0616 29.0311 13.3235 38.0718 10.9919C40.9743 10.2306 40.9029 10.5399 37.0012 14.4417C26.2237 25.2191 13.9237 23.054 3.9314 8.68414C2.36118 6.40018 -2.849 10.516 5.92995 19.3425Z" fill="#E55733"/>
</svg>
