<svg width="40" height="42" viewBox="0 0 40 42" fill="none" xmlns="http://www.w3.org/2000/svg">
<path d="M2.71879 23.0311C5.10319 20.768 8.1499 19.3246 11.0424 17.8306C13.0573 16.7899 15.8738 15.7723 16.4624 13.4536C16.5347 12.8259 16.7348 12.3383 16.6907 11.684C16.6345 10.8494 16.5814 10.2814 16.1351 9.55104C15.3861 8.3254 14.1165 7.44542 13.6535 6.04129C13.4038 5.28374 13.1042 4.59758 13.2264 3.77983C13.3715 2.8094 13.6283 2.08608 14.33 1.40156C15.07 0.679632 16.211 0.57351 17.19 0.5695C18.5268 0.564026 20.0675 0.682259 21.3539 1.02371C23.0353 1.47 24.5036 2.47776 26.2074 2.8336C27.654 3.1357 29.2224 3.1081 30.6977 3.12938C32.0766 3.14927 33.5298 2.88836 34.8897 3.12094C35.8669 3.28808 36.3623 3.92586 36.9953 4.65409C38.4369 6.31251 39.4079 8.50127 39.6323 10.7086C39.7337 11.7065 39.5138 12.6346 39.1784 13.5729C38.5973 15.1987 37.9855 16.8115 37.413 18.4382C36.9007 19.8942 36.5863 21.4325 36.2921 22.943C35.9726 24.5834 35.7611 26.4157 35.8405 28.088C35.9882 31.2006 36.4981 34.4581 35.5401 37.5086C35.0551 39.053 33.3846 40.3689 31.9188 40.9445C30.3601 41.5564 28.8539 41.3571 27.2821 40.8878C25.2255 40.2737 23.4898 39.207 21.7845 37.9373C20.8573 37.247 19.9703 36.5042 19.1056 35.7374C18.4276 35.1363 17.7729 34.4768 17.0008 33.9948C15.653 33.1536 14.0332 32.8048 12.4499 32.8557C11.7004 32.8798 10.9539 32.838 10.2041 32.8649C9.55015 32.8883 8.88724 32.9515 8.23466 32.8817C6.9451 32.7436 5.68931 32.379 4.39737 32.2458C3.04656 32.1065 1.88681 31.191 1.43099 29.9162C1.00225 28.7171 0.921204 27.6886 0.939109 26.4274C0.948087 25.7949 1.09471 25.0752 1.37172 24.4998C1.64326 23.9358 2.27162 23.4555 2.71879 23.0311Z" fill="#939878"/>
</svg>
