<svg width="28" height="16" viewBox="0 0 28 16" fill="none" xmlns="http://www.w3.org/2000/svg">
<path d="M11.1138 14.4826C15.325 12.8823 20.976 13.1918 24.5778 15.2713C26.1572 16.1832 29.1798 15.1293 25.1479 11.7486C20.1374 7.57179 18.9827 6.05768 18.0626 2.62477C17.3247 -0.189428 17.4514 -0.141934 15.5341 1.75555C13.7442 3.5212 10.0699 3.47984 4.49193 1.62038C1.02394 0.465547 -0.434072 2.67956 2.66917 4.59962C7.04067 7.30326 8.93605 9.75855 9.06558 12.9148C9.16431 14.9234 9.43099 15.1288 11.1138 14.4826ZM11.4273 11.582C11.5853 10.7745 11.043 8.02193 10.5942 7.19789C9.94551 6.05296 9.93441 6.0722 11.4022 6.02087C12.6603 5.97687 14.4707 5.19883 15.1666 4.39373C15.721 3.78936 15.7483 3.83083 16.2013 5.58174C16.41 6.42125 17.0358 7.784 17.5838 8.61401C18.7592 10.4482 18.8066 10.3215 16.9994 10.3823C15.6309 10.4396 13.9326 10.8458 12.1364 11.5549C11.6747 11.7763 11.3961 11.7695 11.4273 11.582Z" fill="#00FFA3"/>
</svg>
