<svg width="37" height="37" viewBox="0 0 37 37" fill="none" xmlns="http://www.w3.org/2000/svg">
<path d="M2.0511 15.6319C2.0511 12.4173 2.18054 9.51748 0.903263 6.54325C0.585821 5.90602 0.544874 4.87231 0.711956 4.16798C0.982452 3.02769 1.12706 1.95763 2.17864 1.238C2.94695 0.712212 3.84716 0.429733 4.75774 0.782848C6.4785 1.45014 8.17202 2.06204 9.51915 3.41415C10.513 4.41168 11.5898 5.39968 12.6863 6.28012C13.9612 7.30378 14.6623 8.86293 15.9527 9.84304C16.9454 10.597 18.0957 11.4859 19.2687 11.9196C20.6401 12.4268 21.8492 12.6296 23.2862 12.8157C24.5397 12.978 25.5396 13.5585 26.7368 13.8469C28.008 14.1531 29.2686 14.7263 30.4637 15.2479C31.7463 15.8076 32.8347 16.7949 33.9072 17.68C35.0732 18.6422 35.622 19.7182 36.2312 21.0723C36.9448 22.658 36.8689 24.2777 36.8689 25.9722C36.8689 27.5417 36.5855 29.2415 36.047 30.7156C34.8843 33.8983 32.2179 35.8139 28.9332 36.4973C27.9629 36.6993 26.9497 36.6253 25.9644 36.6253C24.9797 36.6253 23.9658 36.6968 22.9956 36.4973C21.332 36.1553 19.866 35.4973 18.5177 34.4563C15.1064 31.8226 14.634 26.8646 10.915 24.5925C9.60695 23.7934 8.4359 23.8026 6.99674 23.54C5.67137 23.2981 4.14722 22.3726 3.38317 21.2572C2.12942 19.4268 2.0511 17.8136 2.0511 15.6319Z" fill="#939878"/>
</svg>
