<svg width="44" height="20" viewBox="0 0 44 20" fill="none" xmlns="http://www.w3.org/2000/svg">
<path d="M42.0302 18.9243C42.5195 18.3381 43.5089 17.7471 43.356 16.7707C43.3009 16.4185 43.1626 16.192 43.0073 15.9254C42.3377 14.7764 41.5217 13.8932 40.3687 13.1986C39.64 12.7596 38.9404 12.2455 38.2081 11.8226C37.2663 11.2787 36.2292 10.8328 35.2492 10.3595C33.7459 9.63351 32.3529 8.82661 30.7577 8.27746L30.665 8.24554C28.7946 7.6017 26.946 6.96538 25.1434 6.14361C23.0794 5.20265 20.933 4.85801 18.7678 4.22696C17.5869 3.88276 16.4125 3.5279 15.2261 3.20096C14.2453 2.93071 13.3319 2.48315 12.3598 2.19291C11.4051 1.90788 10.3956 1.58023 9.40117 1.49526C8.3665 1.40684 7.32845 1.40567 6.29337 1.33731C5.31805 1.2729 4.34367 1.19667 3.36783 1.14668C2.74008 1.11452 2.12954 0.940279 1.5063 0.869794C1.09888 0.823717 0.121215 0.721004 0.354673 1.45338C0.562283 2.10467 1.0036 2.6468 1.58129 3.00934C2.01273 3.28011 2.48473 3.47372 2.9208 3.73509C3.50565 4.08564 3.94269 4.62787 4.47825 5.04458C5.59813 5.91592 7.21842 6.09898 8.53654 6.56222C10.471 7.24206 12.4162 7.90974 14.3974 8.44058C16.1999 8.92358 18.2018 9.24404 19.89 10.0573C20.1341 10.1748 22.1502 11.2226 21.0351 11.134C20.2604 11.0724 19.4891 10.8941 18.7136 10.8018C18.3285 10.7559 17.9499 10.673 17.5613 10.6379C16.9041 10.5787 16.3163 10.6332 15.6665 10.6556C14.7785 10.6862 13.8976 10.5096 13.0131 10.642C12.3065 10.7478 11.565 10.8625 10.8813 11.0671C10.0113 11.3275 9.23683 11.8475 8.56007 12.4378C8.092 12.8461 7.22887 13.0441 7.05524 13.6921C6.69331 15.0428 8.76492 14.5818 9.4991 14.7092C11.0245 14.974 12.5742 14.8424 14.1036 15.0916C15 15.2376 15.8803 15.4718 16.7795 15.6003C18.0327 15.7793 19.2353 15.8448 20.5015 15.8685C21.7683 15.8922 22.9774 15.9218 24.2343 16.1305C25.4176 16.3269 26.5831 16.6251 27.7567 16.8705C30.0686 17.3539 32.3542 17.9311 34.6856 18.324C36.3533 18.6051 38.0756 18.7706 39.7251 19.1445C40.2544 19.2645 40.8144 19.403 41.36 19.415C41.6891 19.4223 41.8276 19.1671 42.0302 18.9243Z" fill="#F4ADB3"/>
</svg>
