<svg width="33" height="31" viewBox="0 0 33 31" fill="none" xmlns="http://www.w3.org/2000/svg">
<path fill-rule="evenodd" clip-rule="evenodd" d="M7.63684 -3.42909C8.00578 -2.73811 11.3791 0.218847 12.6615 1.65325C16.5083 5.95624 18.7701 9.08711 17.6889 11.242C17.1808 12.2548 14.4363 14.8657 13.4433 15.4877C8.16878 18.7916 4.35998 14.2998 0.96135 10.9011C-0.184976 9.75481 -2.4959 6.61152 -4.26103 7.32093C-5.81326 7.94477 -10.7794 12.364 -11.0192 14.0162C-11.1362 14.8228 -8.46968 17.7352 -7.90968 18.3889C-4.94831 21.8463 -2.03436 24.7912 1.82804 27.1029C3.35118 28.0147 5.95242 30.0113 7.82908 30.1321C11.3802 30.3609 16.0355 26.9257 18.7118 24.7824C22.2284 21.9663 26.088 19.3723 28.5714 15.6543C31.3506 11.4933 33.5627 9.11541 31.7247 4.49896C31.2571 3.3242 28.6292 -0.359081 27.8094 -1.34365C24.7041 -5.0732 20.6187 -9.138 16.2682 -11.3059C15.6146 -11.6315 14.8509 -10.6431 14.4698 -10.262C14.1241 -9.91639 7.40019 -3.87237 7.63684 -3.42909Z" fill="#939878"/>
</svg>
