<svg width="40" height="39" viewBox="0 0 40 39" fill="none" xmlns="http://www.w3.org/2000/svg">
<path d="M7.34136 37.6132C6.30521 37.1312 5.3072 36.367 4.9053 35.0278C4.10113 32.3479 4.09314 29.1216 5.6347 27.0554C5.65457 27.029 8.21019 24.4799 8.59752 23.8564L8.60512 23.8442C8.74538 23.6188 8.93047 23.3215 8.83252 23.045C8.38197 21.7737 5.42404 20.9354 4.78754 20.5204C4.0895 20.0651 3.4297 19.5066 2.8178 18.8908C2.21147 18.2805 1.59537 17.6419 1.15343 16.8623C-0.630653 13.7147 0.902735 11.1468 2.65164 8.97559C5.06665 5.97719 9.01027 4.28872 12.2956 3.17852L13.2096 2.88254C17.1092 1.67296 21.3514 1.01815 25.4071 0.648359C27.5319 0.45457 32.0766 -0.170014 32.9713 3.47594C33.6536 6.25572 31.7085 9.02595 30.2732 10.7112C27.0876 14.4514 26.971 14.528 23.3827 17.6862C21.6737 19.1917 20.8875 19.725 21.0971 20.5071C21.2574 21.1053 26.3927 21.453 27.7683 21.4918C30.8007 21.9121 33.2873 21.488 37.2232 24.3702C38.2268 25.1049 39.7387 27.1657 39.5418 28.7441C39.2068 31.4258 36.7555 33.0912 34.9451 34.0635C29.0914 37.2074 22.4141 37.769 15.9241 38.393C13.236 38.6514 10.0632 38.8792 7.34136 37.6132Z" fill="#42535D"/>
</svg>
