<svg width="68" height="49" viewBox="0 0 68 49" fill="none" xmlns="http://www.w3.org/2000/svg">
<path fill-rule="evenodd" clip-rule="evenodd" d="M39.8236 0.564815C37.5094 1.46492 41.1195 3.97905 46.5501 5.25162L49.358 5.90345C40.6566 9.4418 32.4489 12.6076 26.4937 19.9016C24.9201 21.8259 24.4572 22.1984 23.1921 22.5398C14.5216 24.8677 4.46265 34.2102 1.22277 42.9009C0.0193919 46.0978 0.235353 47.5256 1.96329 47.9911C3.81464 48.4878 4.18494 48.2084 5.85116 44.8873C9.76986 37.0036 19.0266 26.9162 22.3282 26.9162C22.3899 26.9162 22.2356 27.444 22.0196 28.0958C18.8106 37.221 27.6355 43.6149 37.2008 39.0833C45.3468 35.2035 42.3845 23.3468 32.9735 22.0742C28.8696 21.5156 38.9904 14.1286 49.8209 9.78323C52.2276 8.82104 54.3258 8.04506 54.4801 8.04506C54.6653 8.04506 53.2458 9.62791 51.3328 11.5212C45.4393 17.4495 44.0199 20.0568 46.0873 21.019C47.8769 21.826 49.8516 20.8949 52.0424 18.1325C56.0845 13.0422 59.8799 9.62791 64.9711 6.39994C71.0189 2.58224 65.835 1.55807 62.41 2.76856C57.5348 4.53774 46.9821 3.69971 43.4645 1.21665C42.508 0.502769 40.7492 0.192356 39.8236 0.564815ZM33.9609 25.3643C38.7745 28.5613 36.5836 36.3518 30.4432 37.7485C26.5863 38.6176 25.7841 31.0753 29.1474 25.3333C29.9188 24.0296 31.9553 24.0297 33.9609 25.3643Z" fill="#00C2FF"/>
</svg>
