<svg width="47" height="66" viewBox="0 0 47 66" fill="none" xmlns="http://www.w3.org/2000/svg">
<path fill-rule="evenodd" clip-rule="evenodd" d="M-58.2885 54.982C-57.4612 55.2037 -50.2869 53.4314 -46.5951 52.1547C-39.6698 49.7492 -34.3552 43.6118 -26.1337 28.6473C-21.1866 19.6527 -18.8898 16.2287 -15.6279 13.0633C-1.78679 -0.444666 11.5209 1.27372 14.9257 17.0628L15.2793 18.6847L12.9982 18.0983C0.125803 14.8462 -12.967 26.7565 -12.0109 40.9289C-10.8428 58.631 13.5992 49.9586 19.6355 29.7288L20.0462 28.287C20.8258 29.9738 23.5383 32.7203 25.7378 43.9993C27.8946 55.0697 27.7969 54.6988 30.2743 59.0572C33.2565 64.2897 36.6546 66.4071 41.1425 65.8362C48.4415 64.8856 47.8145 59.9639 43.3059 62.4504C37.4984 65.6479 32.9176 59.3961 30.8415 44.899C29.2564 33.8092 27.1787 28.3264 23.0503 24.3385L20.9041 22.2361L21.009 20.4664C22.4221 -1.44551 -1.39861 -6.03043 -19.8203 12.5309C-24.7104 17.4522 -25.5273 18.6619 -32.5232 31.4424C-40.2149 45.4405 -43.6134 48.8404 -52.4297 51.1332C-58.5617 52.6921 -61.0416 54.3182 -58.2885 54.982ZM15.1423 24.4363C15.4005 32.7567 7.15819 45.8683 0.911755 47.0271C-9.53782 48.9808 -9.9715 28.4459 0.389362 22.5029C5.82588 19.4029 15.0335 20.614 15.1423 24.4363Z" fill="#00C2FF"/>
</svg>
