<svg width="35" height="28" viewBox="0 0 35 28" fill="none" xmlns="http://www.w3.org/2000/svg">
<path d="M34.559 17.3426C32.1662 8.44954 29.4745 4.61015 22.0452 1.34191C21.056 0.906648 17.9719 0.11248 16.9429 0.139744C14.4389 0.206177 12.4321 0.215152 10.0488 1.00742C6.89769 2.05523 4.72785 4.60314 3.12193 7.41324L2.68214 8.21449C2.28377 8.96936 1.92224 9.73445 1.58978 10.4867C0.932608 11.9738 0.350318 14.1986 0.83935 15.9319C1.2351 17.3354 2.21305 17.9001 2.58874 18.0948C5.7282 19.7216 7.56496 16.1083 9.044 14.0916C9.51075 13.4552 10.5259 12.9388 11.3207 13.2178C13.0144 13.8125 13.0712 15.378 12.9569 16.9123C12.7933 19.1086 11.2163 21.389 11.4572 23.599C11.6177 25.0735 13.9033 28.8942 17.9882 26.9152C20.295 25.7976 21.2654 22.6882 22.0516 20.4618C22.3677 19.567 22.8476 17.077 24.1218 16.9365C26.5484 16.669 26.9441 21.9911 29.4803 23.4985C31.0254 24.4169 32.2322 24.3238 33.268 23.3325C34.9542 21.7183 35.1318 19.472 34.559 17.3426Z" fill="#F4ADB3"/>
</svg>
