<svg width="48" height="51" viewBox="0 0 48 51" fill="none" xmlns="http://www.w3.org/2000/svg">
<path fill-rule="evenodd" clip-rule="evenodd" d="M45.8777 35.7864C45.9348 35.7978 45.3617 36.868 45.2199 36.9158C44.8017 37.0567 44.3926 36.9648 43.9676 37.0313C42.989 37.1847 40.4782 38.5189 40.1433 39.7689C39.2834 42.9781 39.3452 44.859 38.7872 48.093C38.6895 48.6589 38.8085 51.4522 37.8093 50.8983C36.9552 50.4249 36.9772 49.4745 36.4653 48.8241C34.8121 46.7238 34.4073 45.0249 34.1525 42.4306C34.042 41.3051 33.4399 40.3556 33.9374 39.3508C34.4424 38.3307 36.8479 37.0167 37.7211 36.0342C38.0121 35.7067 39.1077 35.2889 38.791 34.7421C38.6557 34.5084 37.2545 34.8953 37.0716 34.9129C36.6087 34.9575 36.146 34.9816 35.6814 35.0366C34.8649 35.1332 34.0495 35.2405 33.2388 35.3745C31.9789 35.5826 30.7345 35.6054 29.4903 35.8586C28.9304 35.9726 28.0384 36.362 27.6945 36.8209C26.4053 38.5405 26.6939 44.6209 26.9944 46.6924C27.0896 47.3474 26.8666 47.8862 26.8275 48.497C26.8197 48.6193 26.886 49.6988 26.8185 49.7125C26.4937 49.7787 25.8902 49.3621 25.6509 49.1741C22.9092 47.0212 24.237 46.2919 23.2338 43.3391C22.9548 42.5178 21.4401 37.8252 21.4923 37.0085C21.5632 35.9004 22.5657 34.4343 23.1374 33.5699C24.6101 31.3435 26.941 30.4761 29.4453 30.1179C30.3627 29.9866 31.3687 29.9776 32.2595 29.7442C32.3515 29.7201 33.1454 29.4886 33.1123 29.4315C33.0094 29.2538 31.5573 29.3663 31.3226 29.3579C29.9827 29.3101 28.63 29.1706 27.2958 29.3615C26.5754 29.4645 25.8806 29.7196 25.1485 29.7785C20.1713 30.1792 15.1495 30.7982 10.1524 30.5417C8.93959 30.4795 7.75601 30.5862 6.52795 30.5629C3.77712 30.5109 0.213715 29.3447 0.0252829 29.0193C-0.0167046 28.9468 0.889036 28.0097 0.974427 27.9923C2.21864 27.7391 3.4663 27.9368 4.68068 27.4968C5.34628 27.2556 6.06988 27.1607 6.73518 26.9196C8.52624 26.2707 10.2703 25.3249 12.1503 24.9424C13.1883 24.7312 14.5277 25.2165 15.6001 25.2352C17.07 25.2609 18.5223 25.0327 19.99 25.0583C21.5244 25.0851 22.8205 24.6421 24.3013 24.4994C24.7558 24.4556 25.2744 24.3571 25.7337 24.387C25.9418 24.4005 26.1217 24.3779 26.3275 24.3657C26.3734 24.363 26.5099 24.3694 26.4654 24.3575C24.5051 23.8323 22.4956 23.4852 20.5342 22.8585C16.1115 21.4455 12.0768 19.1038 7.5698 17.8962C7.28673 17.8203 2.54096 15.9246 2.51699 15.4143C2.48591 14.7529 4.2701 14.5088 4.41426 14.4795C5.13666 14.3325 7.64896 15.1383 8.42851 15.0268C10.382 14.7474 13.0953 15.1228 15.0111 15.7852C16.7306 16.3797 18.5498 16.7178 20.2189 17.4513C21.9749 18.2229 23.8143 18.7922 25.6123 19.4377C25.97 19.5662 26.3297 19.6751 26.6984 19.7739C26.9375 19.838 27.352 20.2046 27.4159 19.9661C27.469 19.7678 26.1998 18.7544 26.0602 18.6105C24.8455 17.3574 23.927 15.7138 22.7587 14.3879C20.7045 12.0565 18.7732 9.54502 16.6644 7.25172C16.0869 6.62374 14.9942 5.30034 14.5598 4.55039C13.8182 3.27001 12.6586 1.11242 13.1562 0.312292C13.5211 -0.27444 15.8223 1.49675 16.6451 2.34555C17.142 2.85826 18.8138 4.12465 19.2538 4.68375C20.1072 5.76786 20.6948 6.06722 21.5494 7.25257C22.5926 8.69953 24.2797 9.8244 25.6109 11.0022C26.6246 11.8991 27.5086 12.9155 28.522 13.8121C29.8378 14.9763 30.5359 16.9208 31.618 18.2954C31.695 18.3932 32.5373 19.6173 32.636 19.5605C32.8527 19.4358 32.1495 18.3233 32.0964 18.198C31.5582 16.9273 31.2618 15.4368 30.8377 14.1168C30.4491 12.907 29.9138 11.7631 29.6774 10.513C29.5418 9.79657 29.1999 7.42472 29.7823 6.76119C30.5141 5.92765 33.1285 4.9582 34.0567 4.76934C34.635 4.65163 36.7901 4.23222 36.8887 4.71148C36.9507 5.0128 35.0427 6.20681 35.0651 6.57503C35.1253 7.56242 35.3025 8.20812 35.6688 9.5924C35.9278 10.5712 36.3478 11.7292 36.5508 12.7156C37.0989 15.3785 37.9463 17.949 38.6068 20.574C39.0104 22.1782 39.683 23.6674 40.1634 25.2312C40.1851 25.3019 40.7561 26.5339 40.8973 26.3752C41.5075 25.6885 41.1239 22.3892 41.0601 21.5471C40.855 18.8449 41.3168 17.0346 41.36 15.6451C41.422 13.6475 39.6179 11.3253 39.807 10.4937C40.0424 9.4586 43.8628 12.0564 44.3681 13.5128C45.6724 17.271 47.4825 24.1163 47.4192 28.0325C47.4065 28.8177 47.7635 29.6814 47.7501 30.5118C47.7293 31.8013 46.2548 34.3793 45.8777 35.7864Z" fill="#42535D"/>
</svg>
