<svg width="27" height="19" viewBox="0 0 27 19" fill="none" xmlns="http://www.w3.org/2000/svg">
<path d="M17.1451 15.4882C17.9055 10.7895 21.174 5.78225 24.9796 3.58509C26.6483 2.62163 27.2808 -0.700879 22.0574 1.20246C15.5886 3.58063 13.5932 3.83732 9.96595 2.86561C7.00108 2.05413 7.11148 1.96327 7.83482 4.72006C8.50487 7.29056 6.52592 10.6308 1.87774 14.7524C-1.01104 17.3156 0.244575 19.8193 3.64084 17.9941C8.42411 15.4224 11.672 14.9852 14.6285 16.5341C16.5186 17.5049 16.8473 17.3694 17.1451 15.4882ZM14.6566 13.6691C14.0012 13.0978 11.1961 12.1399 10.205 12.1152C8.81466 12.104 8.82639 12.1243 9.55484 10.7541C10.1792 9.57966 10.4237 7.51216 10.0547 6.45002C9.79452 5.62346 9.84692 5.62036 11.6883 6.13087C12.5667 6.3834 14.1443 6.53074 15.1933 6.46774C17.4924 6.36122 17.4016 6.25095 16.5025 7.93667C15.832 9.21915 15.3065 10.9877 15.0064 13.0059C14.9651 13.5453 14.8117 13.7966 14.6566 13.6691Z" fill="#00C2FF"/>
</svg>
