<svg width="35" height="43" viewBox="0 0 35 43" fill="none" xmlns="http://www.w3.org/2000/svg">
<path d="M21.1335 33.3934C21.1331 33.3919 21.192 36.9159 21.115 37.6926C20.8612 40.2561 19.374 42.4483 17.7014 42.6967C14.3077 43.2006 11.5014 35.5024 14.5079 32.466C14.7688 32.2028 13.7757 32.5772 13.4068 32.5772C12.7679 32.5772 12.162 32.6067 11.5347 32.466C9.41243 31.9897 6.94933 31.2992 6.02874 29.1299C5.26235 27.324 7.24116 24.57 8.78173 23.7922C9.57516 23.3917 11.2044 22.6802 11.2044 22.6802C11.2044 22.6802 10.8456 22.5063 10.6538 22.4579C9.66773 22.2089 8.58149 21.9624 7.68039 21.4569C5.64433 20.3147 1.27987 17.4539 0.963184 14.896C0.51982 11.3144 4.25333 9.39636 7.28915 9.78086C9.29671 10.0352 12.0984 10.5363 12.0984 10.5363C12.0984 10.5363 11.8473 9.3338 11.6793 8.51001L11.5347 7.77914C11.2032 5.77053 11.6975 1.33904 14.3978 0.884426C17.9503 0.286636 20.8644 3.71444 22.2164 6.44458C22.7954 7.61457 23.0973 8.92822 23.0973 10.2254L23.0973 10.8928C23.0973 10.8928 23.2656 10.6052 23.3175 10.448C23.6839 9.33806 25.069 7.82761 26.4322 8.05319C28.6734 8.42416 31.3253 12.2128 29.5745 17.8456C29.5039 18.0724 28.4447 20.6616 28.4931 20.6785C30.0639 21.2279 35.5395 22.7966 34.5497 26.7946C34.0352 28.8734 31.4517 28.9791 29.7044 28.6852C28.6902 28.5144 27.1716 27.6958 27.1716 27.7956C27.1716 29.0259 33.9338 34.5073 29.0437 37.4702C27.3979 38.4672 24.3579 36.6672 22.9871 35.802C22.2015 35.3063 21.4159 34.2485 21.1335 33.3934Z" fill="#F4ADB3"/>
</svg>
