<svg width="34" height="39" viewBox="0 0 34 39" fill="none" xmlns="http://www.w3.org/2000/svg">
<path d="M15.8161 36.484C13.6189 34.169 12.2175 31.2109 10.7669 28.4026C9.75648 26.4463 8.76851 23.7117 6.51725 23.1403C5.90783 23.0701 5.43436 22.8758 4.79911 22.9186C3.98881 22.9731 3.4373 23.0247 2.72822 23.458C1.53824 24.1852 0.683858 25.4179 -0.679425 25.8674C-1.41494 26.1099 -2.08114 26.4007 -2.8751 26.2821C-3.8173 26.1412 -4.51958 25.8919 -5.18419 25.2106C-5.88512 24.4921 -5.98815 23.3843 -5.99205 22.4338C-5.99736 21.1358 -5.88257 19.64 -5.55105 18.391C-5.11774 16.7585 -4.1393 15.3329 -3.79381 13.6787C-3.50049 12.2742 -3.52729 10.7514 -3.50663 9.319C-3.48732 7.98025 -3.74064 6.56937 -3.51483 5.24902C-3.35255 4.30017 -2.73332 3.81923 -2.02627 3.20461C-0.416094 1.80493 1.70899 0.862193 3.85209 0.644367C4.821 0.545891 5.72204 0.759432 6.6331 1.08507C8.21164 1.64927 9.77752 2.24327 11.3569 2.79905C12.7705 3.29653 14.264 3.60173 15.7306 3.8874C17.3233 4.19763 19.1023 4.40293 20.726 4.32587C23.748 4.18245 26.9108 3.68741 29.8725 4.61753C31.372 5.08842 32.6496 6.71028 33.2084 8.13344C33.8026 9.64678 33.6091 11.1093 33.1534 12.6353C32.5572 14.632 31.5215 16.3173 30.2888 17.973C29.6185 18.8732 28.8973 19.7344 28.1529 20.5739C27.5692 21.2322 26.9289 21.8678 26.461 22.6175C25.6442 23.926 25.3056 25.4988 25.3549 27.036C25.3783 27.7637 25.3378 28.4885 25.3639 29.2165C25.3866 29.8514 25.448 30.495 25.3802 31.1286C25.2461 32.3807 24.8921 33.5999 24.7628 34.8543C24.6276 36.1658 23.7387 37.2918 22.5009 37.7344C21.3367 38.1506 20.3382 38.2293 19.1136 38.212C18.4995 38.2032 17.8008 38.0609 17.2422 37.7919C16.6945 37.5283 16.2282 36.9182 15.8161 36.484Z" fill="#F4ADB3"/>
</svg>
