<svg width="85" height="20" viewBox="0 0 85 20" fill="none" xmlns="http://www.w3.org/2000/svg">
<path fill-rule="evenodd" clip-rule="evenodd" d="M75.3165 2.53569C68.4314 6.60982 57.0057 10.5072 53 10.1175C48.9206 9.7128 46.8118 11.4623 49.1525 13.3082C53.3459 16.6083 56.7748 18.6155 57.072 18.8145C56.1836 20.829 58.8131 26.7427 44.5308 30.6393C34.4972 33.3627 33.1836 36.7799 36.8608 50.6334C39.8152 61.7894 41.105 65.6934 24.4035 72.781C9.92227 78.9253 5.38024 83.0334 2.46359 92.558C-2.01378 107.308 4.37711 121.409 10.3974 110.078C11.6322 107.796 16.0353 99.7892 16.0353 99.7892L16.6448 102.064C19.2463 111.643 25.2418 123.099 29.2692 127.21C32.0012 129.996 35.4578 129.766 33.2326 121.201C30.8157 111.922 31.3436 102.062 34.4992 96.5487C36.0218 93.9114 35.8292 94.1024 50.0754 81.7511C58.9002 74.1268 59.9716 69.4158 56.4122 54.3116C55.1988 49.1332 54.7494 46.676 54.8851 46.0126C55.6463 42.7434 56.6484 41.6737 61.1512 39.1087C64.6599 37.1236 68.0698 34.12 69.6122 31.6864L70.9081 29.6324L74.5732 31.6112C83.0399 36.1697 85.5249 35.4341 83.7746 28.9018C82.3812 23.7019 82.088 15.978 82.8834 5.03641C83.2363 -0.666237 81.5951 -1.20178 75.3165 2.53569ZM77.0647 25.4399C77.6668 28.727 77.578 28.7856 75.1358 27.2108C70.5309 24.195 68.765 24.4941 65.9784 28.6543C63.4234 32.5087 61.0616 34.7439 56.6673 37.454C48.299 42.6222 47.7697 44.1574 50.4253 55.4979C54.2768 71.952 53.1354 74.4521 35.203 88.9058C22.4888 99.1746 26.6402 112.588 25.1019 109.447C24.1134 107.448 22.5414 103.271 21.1272 98.7731C18.3425 89.9403 14.7736 92.2203 10.067 100.135C8.40794 102.913 6.99954 105.067 6.94729 104.872C6.6338 103.702 6.91833 98.7836 7.41374 96.2126C11.1972 77.5735 25.1972 76.783 32.1322 72.7652C48.3375 65.7757 43.2506 58.3609 40.3858 42.3391C39.2227 35.7887 40.8639 34.3736 47.3638 32.632C57.2436 29.9847 61.3034 26.8068 62.5791 20.648C63.2515 17.4374 63.173 17.1449 61.7267 16.5571C60.3216 15.9932 57.198 13.6952 55.8921 12.7214C84.1666 5.14533 74.6846 5.24775 77.132 5.67178C77.312 5.69324 75.9499 19.3294 77.0647 25.4399Z" fill="#00C2FF"/>
</svg>
