<svg width="35" height="26" viewBox="0 0 35 26" fill="none" xmlns="http://www.w3.org/2000/svg">
<path d="M27.4815 13.0942C27.4802 13.0942 30.2861 13.7996 30.8853 14.0268C32.8634 14.7766 34.2849 16.4307 34.1264 17.8176C33.8043 20.6316 27.1058 21.226 25.338 18.1799C25.1848 17.9157 25.2705 18.7877 25.1921 19.0818C25.0563 19.5914 24.9509 20.0808 24.706 20.551C23.8774 22.1418 22.8065 23.9587 20.8913 24.2297C19.297 24.4553 17.5346 22.2892 17.2455 20.8946C17.0967 20.1763 16.8791 18.7251 16.8791 18.7251C16.8791 18.7251 16.6649 18.9742 16.5858 19.1167C16.1788 19.85 15.7525 20.6636 15.1603 21.2743C13.8221 22.6541 10.6268 25.5239 8.53189 25.2303C5.59869 24.8192 4.87191 21.4322 5.82199 19.0933C6.45035 17.5466 7.4431 15.4193 7.4431 15.4193C7.4431 15.4193 6.43651 15.3628 5.74782 15.3209L5.13775 15.2802C3.47513 15.1157 0.067523 13.7754 0.281167 11.5248C0.562455 8.5641 3.89896 6.97208 6.35042 6.47678C7.4009 6.2648 8.50634 6.30458 9.53455 6.58153L10.0636 6.72403C10.0636 6.72403 9.87141 6.52839 9.75784 6.45345C8.95589 5.92427 8.05305 4.49715 8.52163 3.45817C9.29207 1.75007 12.8589 0.444145 16.9516 3.04302C17.1164 3.14778 18.9435 4.54529 18.9673 4.51025C19.7366 3.37487 22.144 -0.656831 25.1027 0.986113C26.6411 1.84024 26.1758 3.92308 25.5713 5.25382C25.2204 6.02613 24.2487 7.06242 24.3278 7.08374C25.303 7.34642 31.0853 3.12396 32.3944 7.65637C32.8349 9.18175 30.7619 11.2218 29.7847 12.1302C29.2248 12.6509 28.2193 13.0516 27.4815 13.0942Z" fill="#F4ADB3"/>
</svg>
