<svg width="31" height="20" viewBox="0 0 31 20" fill="none" xmlns="http://www.w3.org/2000/svg">
<path fill-rule="evenodd" clip-rule="evenodd" d="M15.8571 1.48418C14.9339 1.88662 13.6082 2.57322 12.898 2.99934C9.01566 5.29561 4.37584 5.76916 2.90812 4.04104C2.00854 2.97576 0.824829 2.83358 0.824829 3.7805C0.824829 5.34291 3.23947 6.50288 6.50633 6.50288H8.75526L7.57161 8.15999C4.18638 12.8709 3.87871 17.2504 6.81415 18.7418C9.06308 19.9018 12.3063 19.2627 18.6506 16.351C20.4498 15.5224 20.5918 15.4749 20.4261 15.9247C19.2424 19.0258 26.4389 19.4994 29.6821 16.5403C31.0315 15.3093 29.8716 14.9305 27.883 15.9485C24.2374 17.8186 22.7933 16.3036 25.35 13.2735C26.3206 12.1372 25.35 10.4562 18.9583 13.439C10.4597 17.3924 9.03936 17.795 8.77895 16.351C8.06877 12.1609 12.4719 5.81632 17.964 3.14128C22.7459 0.797663 19.1713 0.0164562 15.8571 1.48418Z" fill="#00C2FF"/>
</svg>
