<svg width="23" height="22" viewBox="0 0 23 22" fill="none" xmlns="http://www.w3.org/2000/svg">
<path fill-rule="evenodd" clip-rule="evenodd" d="M12.6888 20.9355C15.7594 20.4842 18.8436 17.9818 20.5419 14.5768C22.7294 10.1737 23.5718 6.044 22.2675 6.044C22.1859 6.044 22.0501 6.57731 21.9549 7.30206C21.8055 8.45071 21.1533 10.789 21.0175 10.6523C20.9903 10.6249 21.0582 10.201 21.1669 9.72242C22.9875 1.95535 13.1779 -2.44782 5.69155 2.76214C-4.56649 9.88651 0.3927 22.7542 12.6888 20.9355ZM8.19151 19.9646C7.66163 19.8825 7.63445 19.527 8.87085 19.4586C10.4333 19.3629 13.0963 18.8022 14.7132 17.8724C15.6914 17.3117 16.0039 17.8724 15.1751 18.4467C13.1779 19.8142 10.5828 20.3475 8.19151 19.9646ZM7.34914 18.1459C5.99046 17.8997 4.56385 17.1476 3.76223 16.2588C-2.27031 9.51731 10.1616 -1.42223 16.5474 5.00475C21.9006 10.3651 15.4333 19.5954 7.34914 18.1459ZM17.7702 4.74493C16.33 3.32279 14.3735 2.39293 12.1725 2.07842C11.0176 1.91432 11.004 1.85962 12.0366 1.68186C18.9794 0.464831 19.4821 7.31572 19.4957 7.34307C19.2512 6.91916 18.9115 5.86623 17.7702 4.74493Z" fill="#E55733"/>
</svg>
