<svg width="28" height="27" viewBox="0 0 28 27" fill="none" xmlns="http://www.w3.org/2000/svg">
<path fill-rule="evenodd" clip-rule="evenodd" d="M2.92193 2.7325C2.80729 3.57305 2.50677 5.96701 2.28075 7.15017C2.05006 8.35802 1.67747 9.53599 1.44657 10.7438C0.980139 13.184 0.772166 16.3308 0.549843 18.633C0.498889 19.1608 0.42979 19.687 0.394279 20.2159C0.316601 21.3716 0.236739 22.588 0.531645 23.7276C0.689808 24.339 0.959446 25.0276 1.47725 25.4303C1.82867 25.7035 2.31132 25.8715 2.71848 25.9848C4.20793 26.399 5.86096 26.3682 7.37885 26.3807C11.1673 26.4117 14.9669 26.4539 18.7549 26.3349C19.8142 26.3016 20.8712 26.2139 21.9305 26.1809C22.7627 26.155 24.2718 26.2324 25.058 26.2306C25.8296 26.2288 26.7123 26.1708 27.4183 25.8219C27.6178 25.7233 27.9701 25.6653 27.9678 25.4431C27.9517 23.8692 27.3832 22.8456 25.7823 20.581C23.2556 17.0066 8.51355 2.63396 7.61074 2.03519C6.90254 1.56552 4.26669 -0.90899 3.43916 0.698828C3.30653 0.956485 3.2184 1.2367 3.14696 1.51744C3.04542 1.91668 2.97757 2.32438 2.92193 2.7325Z" fill="#939878"/>
</svg>
