<svg width="81" height="48" viewBox="0 0 81 48" fill="none" xmlns="http://www.w3.org/2000/svg">
<path fill-rule="evenodd" clip-rule="evenodd" d="M40.4751 2.46213C26.0418 -0.329205 7.58775 -0.271621 1.17483 2.60515C-0.411197 3.31441 0.240953 4.24536 2.25334 4.11567C5.23389 3.95457 12.3065 4.80265 21.2673 6.41846C25.6491 7.21448 37.0529 10.241 40.7771 11.6461C67.5395 21.609 68.8247 25.8213 46.5036 30.5429C40.554 31.7989 40.9213 31.8391 39.4654 29.675C37.3845 26.5872 35.3098 24.3444 34.8208 24.6497C34.58 24.7887 32.4787 26.5524 30.1348 28.5709C25.3707 32.6747 22.0906 35.2567 19.0517 37.2635C14.7379 40.121 17.429 41.3656 36.5765 45.4492C39.8763 46.1589 43.9901 47.0866 45.7142 47.4903C49.9147 48.5286 50.194 46.5096 46.505 41.3913C45.6 40.1018 45.332 40.2336 49.5937 40.0668C53.8554 39.9 57.7048 39.5354 62.1948 39.168C95.9936 36.3295 80.535 10.2297 40.4751 2.46213ZM59.2259 11.4999C77.671 18.8562 83.4002 27.8656 73.0413 33.204C68.9999 35.2621 50.4632 37.7987 44.1233 37.1469C42.1438 36.9364 42.2078 38.0005 44.4418 41.711L46.2837 44.822C46.2566 44.8147 28.8812 40.3044 21.6352 39.2353L20.262 39.0419C24.0655 36.1349 30.2978 31.4356 32.8846 29.1623C34.7105 27.5576 35.0546 27.3589 35.293 27.7718C35.7174 28.4672 39.9788 33.1861 40.1391 33.7817C40.7427 35.9792 60.7996 30.1566 63.496 27.0401C68.8053 20.9012 55.1085 11.9961 33.2597 6.05453C26.8089 4.29696 26.2735 4.12447 27.9816 4.26224C36.9851 4.95884 51.103 8.27641 59.2259 11.4999Z" fill="#E55733"/>
</svg>
