<svg width="32" height="36" viewBox="0 0 32 36" fill="none" xmlns="http://www.w3.org/2000/svg">
<path d="M25.4084 27.8959C26.6778 26.761 27.8914 25.6686 28.6946 24.1397C29.6394 22.3413 31.5726 17.4895 31.0907 15.5585C29.8424 10.5566 25.2514 5.97564 20.5554 4.36927C18.3461 3.61354 16.1338 2.78544 14.0806 1.65748C11.8617 0.438529 9.51959 0.409896 7.10583 1.15665C5.87655 1.53695 5.01178 2.56449 4.2891 3.56306C3.50411 4.64773 2.7956 5.66327 2.25277 6.89783C1.68157 8.1969 1.16939 9.68067 1.05779 11.106C0.928367 12.7591 1.03361 14.4748 1.0456 16.1326C1.0881 22.0073 1.50812 28.7126 5.39872 33.4416C6.05661 34.2413 7.36289 35.6004 8.45322 35.6709C9.25294 35.7226 10.0696 35.6921 10.8615 35.5915C13.3435 35.2763 15.3895 34.5181 17.5679 33.2828C18.7625 32.6054 20.0514 32.0757 21.1773 31.2795C22.6527 30.2362 24.061 29.1006 25.4084 27.8959Z" fill="#42535D"/>
</svg>
