<svg width="40" height="36" viewBox="0 0 40 36" fill="none" xmlns="http://www.w3.org/2000/svg">
<path fill-rule="evenodd" clip-rule="evenodd" d="M37.096 15.6345C42.2784 11.4127 37.5198 4.32557 33.5141 4.29588C27.2799 4.24956 21.3945 5.85126 15.4613 5.22113C13.8098 5.04581 11.4929 4.30539 10.1441 3.28303C8.56421 2.08562 7.42406 0.493891 5.17934 0.358313C2.8085 0.215069 0.641066 1.71183 0.152179 4.10732C-0.344002 6.53838 1.57848 9.8286 3.48538 11.1753C3.95326 11.5057 7.16839 13.2716 7.12279 13.4949C7.06286 13.7885 6.47862 14.3308 6.32265 14.6015C4.7027 17.4115 3.11689 22.5963 6.76873 24.7078C8.02008 25.4314 9.91754 24.8511 11.0222 25.4898C11.0621 25.5129 10.0727 26.5436 9.96627 26.6649C9.2524 27.4782 8.27945 28.395 7.97441 29.4634C7.245 32.0188 8.62503 33.9047 10.8959 34.9946C13.4361 36.2137 15.8294 33.8403 17.4001 32.1537C19.7692 29.6098 21.054 26.1361 23.6658 23.8177C27.6062 20.3199 33.0983 18.8912 37.096 15.6345Z" fill="#F4ADB3"/>
</svg>
