<svg width="28" height="43" viewBox="0 0 28 43" fill="none" xmlns="http://www.w3.org/2000/svg">
<path d="M2.03668 12.3255C3.56674 9.67536 5.05388 7.34635 5.41504 4.28549C5.45626 3.60883 5.91448 2.7371 6.38768 2.23607C7.15375 1.42493 7.78247 0.611669 8.99319 0.519632C9.87777 0.45239 10.7554 0.648603 11.3391 1.37376C12.4422 2.74411 13.5491 4.05582 14.0177 5.81265C14.3635 7.10878 14.7822 8.43659 15.2684 9.6851C15.8337 11.1367 15.6705 12.7563 16.2693 14.1794C16.7299 15.2742 17.2566 16.5553 18.0185 17.472C18.9094 18.5438 19.8111 19.2874 20.9088 20.1257C21.8665 20.8571 22.4158 21.8122 23.2669 22.6206C24.1707 23.479 24.9385 24.5525 25.677 25.5521C26.4695 26.625 26.8981 27.9577 27.3623 29.1986C27.8669 30.5477 27.8079 31.6963 27.6664 33.1031C27.5007 34.7505 26.6671 36.0496 25.8606 37.4466C25.1135 38.7406 24.0705 40.0069 22.9242 40.9654C20.4494 43.0351 17.3363 43.3434 14.2991 42.3412C13.4018 42.0451 12.6006 41.5012 11.7871 41.0316C10.9741 40.5622 10.103 40.1378 9.39699 39.5109C8.18625 38.436 7.28911 37.1947 6.67143 35.6938C5.10872 31.8965 7.07857 27.5838 5.08963 23.9379C4.39009 22.6556 3.41886 22.105 2.35569 21.2025C1.37659 20.3714 0.558771 18.8819 0.458902 17.5981C0.295025 15.4915 0.998214 14.1242 2.03668 12.3255Z" fill="#42535D"/>
</svg>
