<svg width="11" height="14" viewBox="0 0 11 14" fill="none" xmlns="http://www.w3.org/2000/svg">
<path d="M3.76366 1.96439C4.128 1.71151 4.54546 1.45247 4.96001 1.23248C6.55886 0.350583 6.7829 0.712124 7.46938 0.776953C8.14967 0.841197 8.34026 0.828169 8.7642 1.35785C9.20629 1.9102 9.66381 2.25368 10.0189 2.89184C10.4319 3.63412 10.5982 4.74599 10.5731 5.59038C10.5105 7.69847 9.93581 9.37015 9.19539 11.3085C8.68883 12.6346 7.32632 13.471 5.91973 13.6499C5.07767 13.757 4.12675 13.7507 3.27979 13.6537C2.12187 13.5212 1.55496 12.3316 1.16313 11.3554C0.48021 9.65396 0.6313 7.90198 1.26539 6.18915C1.84798 4.61543 2.32097 2.96573 3.76366 1.96439Z" fill="#42535D"/>
</svg>
