<svg width="41" height="38" viewBox="0 0 41 38" fill="none" xmlns="http://www.w3.org/2000/svg">
<path d="M-5.67852 20.7674C-6.62298 21.6666 -7.88836 23.4033 -9.00498 24.0759C-11.4154 26.1572 -10.9952 28.8297 -10.5295 31.5349C-10.0301 34.436 -8.19331 36.1158 -5.52059 37.1213C-3.92154 37.7228 -1.8038 37.6224 -0.113959 37.5347C1.85065 37.4327 3.11016 37.297 4.85942 36.2862C6.37615 35.4098 7.71783 34.5698 9.05091 33.434C10.3804 32.3012 11.3454 30.9147 12.6066 29.7444C14.747 27.7582 18.0028 26.2125 20.9055 25.9146C22.7399 25.7263 24.7103 25.6139 26.5564 25.6419C28.2321 25.6672 30.0058 26.1262 31.6681 25.958C35.1436 25.6064 38.9285 23.4108 39.9898 19.8491C40.4443 18.3236 41.0444 16.6429 40.1989 15.1772C37.942 11.2648 32.8678 8.54527 29.1085 6.71645C26.6739 5.53207 24.1728 4.63312 21.8657 3.23531C20.775 2.5745 19.6708 1.93534 18.5855 1.2585C17.8628 0.807786 16.9233 0.294172 16.0544 0.216042C14.0745 0.037992 13.0193 0.421006 11.3148 1.40594C8.85034 2.83 6.14561 4.61788 4.55073 7.03549C2.4028 10.2915 -0.134803 13.2626 -2.4224 16.4095C-3.49526 17.8854 -4.34511 19.4978 -5.67852 20.7674Z" fill="#F4ADB3"/>
</svg>
