<svg width="21" height="41" viewBox="0 0 21 41" fill="none" xmlns="http://www.w3.org/2000/svg">
<path d="M19.6074 6.3317C18.4954 7.10947 17.1303 8.06419 15.9421 8.78961C15.9421 8.78961 15.1169 9.36091 14.4788 10.0902C13.878 10.7769 13.3391 11.5504 12.9595 12.1725C10.1076 16.8466 8.28395 23.2082 8.00096 28.7846C7.91854 30.4088 8.00561 32.3898 8.57313 33.9047C8.57313 33.9047 10.1116 36.7165 9.96604 38.0947C9.675 40.8511 6.66175 41.7615 4.63128 39.8749C3.61605 38.9315 2.12602 36.2826 2.12602 36.2826C1.21333 33.8464 0.641611 30.7963 0.772622 28.2146C1.10933 21.5797 3.37254 14.2586 6.90091 8.4758C7.44529 7.58362 8.21766 6.46791 9.13736 5.41674C10.0199 4.40806 12.686 2.48323 12.686 2.48323C12.686 2.48323 15.5595 0.9037 16.9452 0.885734C19.7166 0.849803 21.9287 4.70824 19.6574 6.29675L19.6074 6.3317Z" fill="#939878"/>
</svg>
