<svg width="31" height="8" viewBox="0 0 31 8" fill="none" xmlns="http://www.w3.org/2000/svg">
<path d="M1.4846 -7.419C0.833091 -8.60964 0.368937 -9.09694 0.368937 -9.95864C0.368937 -10.4092 0.328755 -10.8668 0.436027 -11.3066C0.62881 -12.0971 1.22127 -12.6771 1.76705 -13.2348C2.49134 -13.975 3.77726 -13.7837 4.7186 -13.7733C5.85442 -13.7608 7.12157 -13.4573 8.18562 -13.0715C8.84979 -12.8307 9.43847 -12.5851 10.1627 -12.5851C10.7912 -12.5851 11.3897 -12.6615 11.9951 -12.8353C13.589 -13.2927 14.9659 -13.9904 16.4189 -14.7739C17.6257 -15.4246 18.9469 -15.8967 20.3025 -16.1393C21.4833 -16.3505 22.7015 -16.2748 23.8966 -16.2748C25.3307 -16.2748 26.8312 -15.8875 27.5967 -14.5932C28.8671 -12.4451 29.3119 -9.97309 29.7256 -7.55102C30.2343 -4.57282 30.1088 -1.59396 29.5703 1.36728C29.3691 2.47357 28.8698 3.57006 28.2039 4.48017C27.6159 5.28387 26.5629 5.79261 25.6619 6.17558C22.5498 7.49839 19.0706 7.80151 15.7198 7.80151C14.0032 7.80151 12.2967 7.69413 10.5864 7.55137C9.25526 7.44026 7.80512 7.20805 6.66041 6.48131C5.08673 5.48224 4.23291 3.64353 3.96306 1.85714C3.62717 -0.366423 3.566 -2.62397 2.78385 -4.75428C2.44145 -5.68688 1.96089 -6.54859 1.4846 -7.419Z" fill="#939878"/>
</svg>
