<svg width="23" height="29" viewBox="0 0 23 29" fill="none" xmlns="http://www.w3.org/2000/svg">
<path d="M5.0492 3.49935C3.47847 4.05245 1.15393 4.59769 0.239676 5.46344C-0.0513453 5.73917 0.352419 8.70901 0.516962 9.68337C0.893864 11.9129 1.31471 14.1355 1.76524 16.3514C2.34638 19.2102 5.6426 28.3454 7.41669 28.8617C9.94014 29.5957 20.3898 26.5987 22.0372 25.1143C22.2496 24.9228 22.4559 24.7096 22.5866 24.4547C23.7121 22.2582 20.019 21.3031 18.7515 20.8761L18.1938 20.698C17.8195 20.5843 17.4423 20.4797 17.0653 20.3756C16.9963 20.3567 15.2661 20.1355 15.3358 19.6418C15.407 19.1372 16.0847 18.3246 16.356 18.0083C17.7182 16.4199 18.5737 15.7636 19.6038 13.9291C19.7973 13.5846 19.9856 12.4725 19.6701 11.9813C18.1275 9.57856 12.5489 9.24982 12.7828 8.52487C13.4996 6.3028 15.2268 4.49596 16.1143 2.32793C16.2498 1.99694 16.4352 1.21526 16.0201 0.901766C15.5169 0.521823 14.404 0.633548 13.9202 0.731255C10.7378 1.37497 8.19961 2.38975 5.0492 3.49935Z" fill="#42535D"/>
</svg>
