<svg width="23" height="31" viewBox="0 0 23 31" fill="none" xmlns="http://www.w3.org/2000/svg">
<path fill-rule="evenodd" clip-rule="evenodd" d="M-11.7624 29.1943C-12.9202 27.2604 -9.06009 20.8194 -8.11108 18.8378C-6.72751 15.9488 -6.72663 15.9639 -5.39427 13.0416C-4.40775 10.8778 -3.48736 8.47551 -2.06893 6.54021C-1.67728 6.00589 -0.566695 4.76293 -0.294119 4.45458C1.22876 2.73184 3.01329 0.722657 5.36897 0.193853C6.96136 -0.163578 8.16127 1.30952 8.83997 2.52611C10.4713 5.45043 10.0238 8.99935 8.66363 11.9611C7.9186 13.5835 6.84292 14.9743 5.836 16.4432C5.56278 16.8418 5.30152 17.2482 5.0332 17.6501C4.91244 17.8308 4.78448 18.0069 4.6688 18.1908C4.59375 18.3101 4.51443 18.4286 4.46134 18.5589C4.43964 18.6122 4.39176 18.7245 4.449 18.7307C4.70756 18.7587 4.96847 18.6853 5.22531 18.6416C6.18653 18.4776 7.52921 18.1113 8.40448 17.9337C9.10026 17.7925 10.2032 17.6579 10.9035 17.6506C11.824 17.6411 12.7465 17.6369 13.6639 17.7056C14.5822 17.7744 15.4934 17.918 16.4023 18.0623C16.8314 18.1304 17.2541 18.2348 17.6747 18.3423C19.5 18.8089 21.8107 19.7202 22.2845 21.7724C22.835 24.156 20.4696 26.089 18.5957 27.0715C17.9547 27.4075 17.3059 27.7323 16.6363 28.0069C10.2639 30.6191 3.20887 30.6772 -3.53959 30.3634C-4.48249 30.3196 -11.0353 30.408 -11.7624 29.1943Z" fill="#42535D"/>
</svg>
