<svg width="32" height="28" viewBox="0 0 32 28" fill="none" xmlns="http://www.w3.org/2000/svg">
<path fill-rule="evenodd" clip-rule="evenodd" d="M2.09349 21.494C2.62988 20.7949 4.12762 19.971 3.74364 19.1777C2.12634 15.8373 0.483194 11.7114 2.686 8.22491C3.57861 6.81161 5.03339 5.26569 6.68154 4.77981C7.79675 4.45135 9.16776 5.06094 9.33277 6.32579C9.5067 7.66327 8.05448 8.81436 7.38673 9.81166C6.88858 10.5562 6.72622 11.3587 7.52105 11.9641C7.76199 12.1477 8.0346 12.2928 8.31245 12.4125C8.69594 12.5779 9.09916 12.6723 9.51778 12.6629C10.9115 12.6309 12.441 11.2676 13.1318 10.141C13.571 9.42435 13.741 8.52584 13.1226 7.86717C12.1614 6.84399 10.1646 7.61883 9.43984 6.32373C9.32003 6.10949 9.23354 5.87436 9.20744 5.62935C9.02916 3.95608 10.7508 3.29346 12.1151 3.15507C13.4243 3.02212 14.9745 3.11629 16.1562 3.74778C18.7954 5.15884 18.8191 8.67109 17.8608 11.1256C19.3145 9.0385 19.8416 6.40886 20.9393 4.13954C21.423 3.14001 21.9554 1.98499 22.9392 1.37677C23.797 0.846801 24.7496 1.12817 25.1568 2.08755C25.577 3.07743 25.4887 4.29717 25.3189 5.32976C24.8133 8.40669 23.349 11.2264 21.2611 13.4966C23.0338 12.1476 24.7921 10.7705 26.5508 9.40292C27.3658 8.76964 28.2084 7.93285 29.0547 7.77268C30.2275 7.55018 31.0997 8.36785 31.1116 9.55578C31.122 10.5883 30.6263 11.5132 30.0311 12.327C28.8359 13.9615 27.1176 15.1885 25.4204 16.2493C23.5339 17.4286 21.5877 18.5791 19.4581 19.24C21.0915 18.9794 22.6805 18.6719 24.2832 18.2582C25.8012 17.8662 27.9974 16.7134 29.6133 17.1673C30.8024 17.5014 30.7802 18.6529 30.2443 19.6338C29.5645 20.8781 28.067 21.5623 26.7918 22.0175C24.2083 22.9403 21.4815 23.4506 18.746 23.6253C17.824 23.6844 16.8994 23.7044 15.9755 23.6858C15.5702 23.6776 14.9335 23.5212 14.5507 23.637C14.1118 23.7697 13.6877 24.2611 13.3603 24.5566C12.5135 25.3204 11.6499 26.1138 10.9139 26.9875" fill="white"/>
<path d="M2.09349 21.494C2.62988 20.7949 4.12762 19.971 3.74364 19.1777C2.12634 15.8373 0.483194 11.7114 2.686 8.22491C3.57861 6.81161 5.03339 5.26569 6.68154 4.77981C7.79675 4.45135 9.16776 5.06094 9.33277 6.32579C9.5067 7.66327 8.05448 8.81436 7.38673 9.81166C6.88858 10.5562 6.72622 11.3587 7.52105 11.9641C7.76199 12.1477 8.0346 12.2928 8.31245 12.4125C8.69594 12.5779 9.09916 12.6723 9.51778 12.6629C10.9115 12.6309 12.441 11.2676 13.1318 10.141C13.571 9.42435 13.741 8.52584 13.1226 7.86717C12.1614 6.84399 10.1646 7.61883 9.43984 6.32373C9.32003 6.1095 9.23354 5.87436 9.20744 5.62935C9.02916 3.95608 10.7508 3.29346 12.1151 3.15507C13.4243 3.02212 14.9745 3.11629 16.1562 3.74778C18.7954 5.15884 18.8191 8.67109 17.8608 11.1256C19.3145 9.0385 19.8416 6.40886 20.9393 4.13954C21.423 3.14001 21.9554 1.98499 22.9392 1.37677C23.797 0.846801 24.7496 1.12817 25.1568 2.08755C25.577 3.07743 25.4887 4.29717 25.3189 5.32976C24.8133 8.40669 23.349 11.2264 21.2611 13.4966C23.0338 12.1476 24.7921 10.7705 26.5508 9.40292C27.3658 8.76964 28.2084 7.93285 29.0547 7.77268C30.2275 7.55018 31.0998 8.36785 31.1116 9.55578C31.122 10.5883 30.6263 11.5132 30.0311 12.327C28.8359 13.9615 27.1176 15.1885 25.4204 16.2493C23.5339 17.4286 21.5877 18.5791 19.4581 19.24C21.0915 18.9794 22.6805 18.6719 24.2832 18.2582C25.8012 17.8662 27.9974 16.7134 29.6133 17.1673C30.8024 17.5014 30.7802 18.6529 30.2443 19.6338C29.5645 20.8781 28.067 21.5623 26.7918 22.0175C24.2083 22.9403 21.4815 23.4506 18.746 23.6253C17.824 23.6844 16.8994 23.7044 15.9755 23.6858C15.5702 23.6776 14.9335 23.5212 14.5507 23.637C14.1118 23.7697 13.6877 24.2611 13.3603 24.5566C12.5135 25.3204 11.6499 26.1138 10.9139 26.9875" stroke="#E55733" stroke-width="1.67708" stroke-miterlimit="1.5" stroke-linecap="round" stroke-linejoin="round"/>
</svg>
