<svg width="1581" height="111" viewBox="0 0 1581 111" fill="none" xmlns="http://www.w3.org/2000/svg">
<path fill-rule="evenodd" clip-rule="evenodd" d="M0 13L65.4633 16.6821C132.162 20.3642 177.245 10.5377 309.407 23.0001C560.761 0.809372 658.338 71.0636 790.5 74.7456C922.662 78.4277 1053.59 67.3815 1185.75 63.9827C1317.91 60.3006 1448.84 63.9826 1515.54 65.6821L1581 67.3815V111H1515.54C1448.84 111 1317.91 111 1185.75 111C1053.59 111 922.662 111 790.5 111C658.338 111 527.412 111 395.25 111C263.088 111 132.162 111 65.4633 111H0V13Z" fill="#FF8C32"/>
<path fill-rule="evenodd" clip-rule="evenodd" d="M0 44.4L52.7 53.28C105.4 62.16 210.8 79.92 316.2 75.48C421.6 71.04 527 44.4 632.4 26.64C737.8 8.88 843.2 0 948.6 0C1054 0 1159.4 8.88 1264.8 24.42C1370.2 39.96 1475.6 62.16 1528.3 73.26L1581 84.36V111H1528.3C1475.6 111 1370.2 111 1264.8 111C1159.4 111 1054 111 948.6 111C843.2 111 737.8 111 632.4 111C527 111 421.6 111 316.2 111C210.8 111 105.4 111 52.7 111H0V44.4Z" fill="#FF5F00"/>
</svg>
