<svg width="57" height="23" viewBox="0 0 57 23" fill="none" xmlns="http://www.w3.org/2000/svg">
<path fill-rule="evenodd" clip-rule="evenodd" d="M3.45122 8.10392C10.4737 14.3317 16.5002 17.5497 23.2399 18.6859C24.6086 18.9057 26.2445 19.4315 27.1659 19.9478C36.3578 24.9315 59.6178 21.7549 55.824 16.0278C55.172 15.0435 54.9932 15.0652 50.6278 16.4442C36.3917 20.9498 30.7296 17.8445 30.6552 17.8294L32.1994 16.6133C36.2649 13.4696 36.2006 7.49307 32.0614 2.79952C25.6894 -4.43852 15.6168 4.06854 20.4667 12.6046L21.5108 14.4237L19.7259 13.9644C13.635 12.3985 5.9084 7.73167 2.6159 3.63601C1.47394 2.20368 0.827767 1.76264 0.357968 2.07385C-0.544436 2.70382 1.15748 6.05047 3.45122 8.10392ZM21.2644 9.62993C20.735 4.89488 26.5367 1.01938 30.2205 3.66488C33.5998 6.09365 33.6393 10.3807 30.9821 12.9778C27.571 16.3319 22.0043 16.1891 21.2644 9.62993Z" fill="#00C2FF"/>
</svg>
