<svg width="23" height="24" viewBox="0 0 23 24" fill="none" xmlns="http://www.w3.org/2000/svg">
<path fill-rule="evenodd" clip-rule="evenodd" d="M5.41319 1.76136C2.87227 3.51568 1.84604 6.33026 2.87837 8.61954C3.20997 9.36853 3.17421 9.43053 1.98948 10.4811C-2.15052 14.1825 1.44562 21.545 6.29768 19.3285C6.53542 19.2386 6.70815 19.2969 6.73609 19.4989C6.83393 20.9389 8.91319 22.7383 10.981 23.1268C13.246 23.5672 19.9774 22.2086 19.4843 15.8736C19.3935 14.8507 19.4764 14.6714 20.1748 14.2486C24.5229 11.6173 22.2076 4.54 17.0435 4.6146C16.4423 4.61858 16.2988 4.47371 15.8559 3.30944C14.5142 -0.232246 9.40931 -1.01126 5.41319 1.76136ZM10.6325 2.77171C11.4705 3.35881 12.5875 5.57305 12.396 6.22655C12.2517 6.76269 13.3095 7.29079 14.3259 7.17554C16.9957 6.87911 18.774 9.02096 18.088 11.6397C17.788 12.7674 17.4578 13.1963 15.9245 14.3141C15.1367 14.8917 15.1075 14.9781 15.389 16.0285C16.5606 20.4012 12.5164 22.5059 10.6822 18.494C10.0386 17.0693 9.56268 16.8564 7.93554 17.1353C4.22847 17.7621 2.65619 12.1876 6.03774 10.4437C6.86481 10.0126 7.00439 9.55637 6.78569 7.86074C6.34431 3.86835 8.36607 1.15347 10.6325 2.77171Z" fill="#E55733"/>
</svg>
