<svg width="34" height="44" viewBox="0 0 34 44" fill="none" xmlns="http://www.w3.org/2000/svg">
<path fill-rule="evenodd" clip-rule="evenodd" d="M19.1873 1.39897C14.6668 3.70902 4.47721 15.1118 1.15401 21.5013C-0.849682 25.3596 -0.605258 25.5808 5.87009 25.9494L10.4883 26.2197C2.10703 40.9647 2.96224 39.3919 2.88894 39.5393C1.05629 42.7095 3.54869 44.823 6.1877 42.3409C6.21213 42.3163 28.8636 24.6223 32.9199 18.7489C33.3841 18.0854 33.262 17.3236 32.2357 16.5617C30.5497 15.3084 28.2772 14.9152 19.9936 14.2271C18.6986 14.1288 18.1122 13.9814 18.2099 13.7848C18.8208 12.2857 21.1665 5.99448 22.2905 3.53698C23.61 0.661704 23.4879 -0.812783 19.1873 1.39897ZM17.5012 6.90377C17.2813 7.41985 14.5689 13.9568 14.4468 14.2271C13.8115 15.505 14.2269 16.1686 15.8152 16.3406C21.0932 16.9058 23.1946 17.1024 25.3205 17.2007C28.8391 17.3727 28.8637 17.2253 25.1495 20.9852C21.191 25.0155 11.0748 34.354 10.8549 34.1328C10.6594 33.9362 13.9093 27.6942 14.789 26.5392C16.3773 24.4503 15.8885 24.1554 10.8304 24.1554C8.55792 24.1554 7.14067 24.1063 6.06552 24.0325C5.06368 23.9588 4.45277 22.8775 4.94148 21.9682C6.77412 18.6015 10.0485 14.3991 15.4976 8.37827C17.99 5.67502 18.0388 5.62587 17.5012 6.90377Z" fill="#E55733"/>
</svg>
