<svg width="47" height="35" viewBox="0 0 47 35" fill="none" xmlns="http://www.w3.org/2000/svg">
<path fill-rule="evenodd" clip-rule="evenodd" d="M46.4774 17.2193C46.1378 17.0233 42.7554 16.9569 40.9716 17.0841C37.6243 17.3272 34.547 19.4114 29.1384 25.0545C25.8851 28.4457 24.4638 29.6877 22.6463 30.7009C14.9254 35.0341 9.24436 32.6974 9.60957 25.3122L9.64537 24.5531L10.5846 25.0827C15.8914 28.0459 23.0922 24.3306 24.3486 17.9503C25.9295 9.98413 14.0938 10.923 9.02766 19.1533L8.67521 19.7421C8.53034 18.9039 7.65631 17.368 8.02012 12.1199C8.37808 6.96906 8.37733 7.14467 7.79821 4.92385C7.0995 2.2567 5.84777 0.917812 3.7956 0.638488C0.455366 0.194018 0.149476 2.44467 2.43777 1.87936C5.38469 1.15352 6.66953 4.4608 5.86986 11.1173C5.25683 16.209 5.52593 18.8796 6.87899 21.1323L7.57891 22.3162L7.32285 23.0863C4.10171 32.6082 14.0919 37.4581 24.4371 31.433C27.1826 29.8363 27.6871 29.3982 32.295 24.5756C37.3548 19.2971 39.2604 18.1963 43.4306 18.2271C46.3269 18.2643 47.6162 17.839 46.4774 17.2193ZM10.3874 22.026C11.2591 18.3161 16.4574 13.4948 19.3568 13.7225C24.209 14.0967 21.9677 23.2286 16.682 24.6289C13.9107 25.3556 9.98268 23.7291 10.3874 22.026Z" fill="#00C2FF"/>
</svg>
