<svg width="39" height="27" viewBox="0 0 39 27" fill="none" xmlns="http://www.w3.org/2000/svg">
<path fill-rule="evenodd" clip-rule="evenodd" d="M1.15134 8.64316C0.844709 8.22867 0.321169 7.18931 0.528143 6.83082L1.37225 5.36877C2.10236 4.10419 2.69758 2.7689 3.4253 1.50845C3.6607 1.10073 3.91196 0.43345 4.44995 0.494629C5.36961 0.599257 5.89017 1.82902 6.32653 2.41898C7.15378 3.53728 8.75044 5.17211 10.147 5.61856C12.4898 6.3676 14.5391 4.83322 16.9422 5.8723C20.3608 7.35043 20.0222 9.37893 22.4576 11.0825C23.362 11.7151 24.4317 12.213 25.5233 12.2409C26.8886 12.2757 28.2571 11.6793 29.6468 12.3281C31.48 13.184 32.1255 15.4343 34.0596 16.2519C35.6304 16.916 36.983 16.5088 38.1964 17.914C38.3742 18.1199 38.5568 18.3588 38.4919 18.6197C38.2156 19.7309 37.3684 20.7941 36.8032 21.773C36.4125 22.4497 36.1205 23.1837 35.7269 23.8655C35.4651 24.319 35.1094 24.7068 34.8501 25.1559C33.4794 27.53 32.0574 25.3378 30.8276 24.0567C29.9974 23.1918 29.071 22.1505 28.0616 21.4659C25.9909 20.0615 23.5048 20.8502 21.3187 19.7517C20.2131 19.1961 18.9991 18.477 18.2056 17.5338C16.9862 16.0844 16.0092 14.4768 14.1888 13.6093C11.486 12.3214 10.2251 13.1764 7.69093 13.0687C5.61491 12.9803 2.33771 10.247 1.15134 8.64316Z" fill="#939878"/>
</svg>
