<svg width="368" height="122" viewBox="0 0 368 122" fill="none" xmlns="http://www.w3.org/2000/svg">
<path d="M-8.43963e-05 80.1896L5.78806 80.1896L5.78806 85.1732L9.51166 85.1732L9.51166 80.1896L15.2998 80.1896L15.2998 76.9836L9.51166 76.9836L9.51166 72L5.78807 72L5.78806 76.9836L-8.4087e-05 76.9836L-8.43963e-05 80.1896Z" fill="#F6F8FF"/>
<path d="M358 33.6031L361.763 33.6031L361.763 37.0133L364.182 37.0133L364.182 33.6031L367.945 33.6031L367.945 31.4103L364.182 31.4103L364.182 28L361.763 28L361.763 31.4103L358 31.4103L358 33.6031Z" fill="#F6F8FF"/>
<path d="M172 8.61539L177.499 8.61539L177.499 13.8666L181.036 13.8666L181.036 8.61539L186.535 8.61539L186.535 5.2512L181.036 5.2512L181.036 1.29158e-05L177.499 1.26355e-05L177.499 5.2512L172 5.2512L172 8.61539Z" fill="#F6F8FF"/>
<path d="M187.001 116.19L192.499 116.19L192.499 121.173L196.037 121.173L196.037 116.19L201.536 116.19L201.536 112.984L196.037 112.984L196.037 108L192.499 108L192.499 112.984L187.001 112.984L187.001 116.19Z" fill="#F6F8FF"/>
</svg>
