<svg width="41" height="42" viewBox="0 0 41 42" fill="none" xmlns="http://www.w3.org/2000/svg">
<path d="M14.8155 6.09557C20.3901 11.67 20.4377 21.0664 20.4377 21.0664C20.4377 21.0664 11.4471 21.4249 5.87252 15.8505C0.297898 10.2761 0.250244 0.879656 0.250244 0.879656C0.250244 0.879656 9.24084 0.521151 14.8155 6.09557Z" fill="#F5BD33"/>
<path d="M26.06 6.09557C20.4854 11.67 20.4377 21.0664 20.4377 21.0664C20.4377 21.0664 29.4283 21.4249 35.003 15.8505C40.5776 10.2761 40.6252 0.879656 40.6252 0.879656C40.6252 0.879656 31.6346 0.521151 26.06 6.09557Z" fill="#F5BD33"/>
<path d="M14.8155 36.0294C20.3901 30.455 20.4377 21.0586 20.4377 21.0586C20.4377 21.0586 11.4471 20.7001 5.87252 26.2745C0.297898 31.8489 0.250244 41.2453 0.250244 41.2453C0.250244 41.2453 9.24084 41.6038 14.8155 36.0294Z" fill="#F5BD33"/>
<path d="M26.06 36.0294C20.4854 30.455 20.4377 21.0586 20.4377 21.0586C20.4377 21.0586 29.4283 20.7001 35.003 26.2745C40.5776 31.8489 40.6252 41.2453 40.6252 41.2453C40.6252 41.2453 31.6346 41.6038 26.06 36.0294Z" fill="#F5BD33"/>
</svg>
