<svg width="22" height="26" viewBox="0 0 22 26" fill="none" xmlns="http://www.w3.org/2000/svg">
<path fill-rule="evenodd" clip-rule="evenodd" d="M10.3282 15.4821C10.0386 15.5313 10.4655 14.2828 10.4524 13.6799C10.4449 13.339 10.4244 11.2976 10.3692 10.8814C9.99235 8.04244 8.73217 5.27593 6.62926 3.29047C5.92727 2.62771 4.91728 1.91286 4.1184 1.40044C3.64163 1.09463 3.14567 0.819208 2.65638 0.533471C2.60458 0.503224 1.82925 0.0621565 1.74174 0.0636022C1.59923 0.0659957 1.34164 0.534881 1.30915 0.604158C1.11358 1.02145 0.831031 1.83291 0.718507 2.22779C0.171545 4.14798 -0.0398843 6.27608 0.0445812 8.26721C0.175159 11.346 1.14721 14.428 3.2113 16.7723C3.8134 17.4563 4.72313 18.2533 5.45531 18.7953C5.51604 18.8402 7.3524 20.0033 7.39514 20.0956C7.56633 20.4658 7.36722 20.9122 7.31393 21.3168C7.25221 21.7855 6.91172 22.9695 6.8084 23.3613C6.71915 23.6994 6.61863 24.0352 6.54601 24.3773C6.50973 24.5483 6.35018 24.7827 6.48231 24.8976C6.55441 24.9603 8.91887 25.911 9.04186 25.8475C9.41746 25.6535 9.39158 24.1071 9.49994 23.7009C9.85473 22.3716 10.1558 21.9611 10.7144 20.708C13.0231 15.5277 16.1329 10.7094 19.4034 6.08281C20.1182 5.07159 20.8723 4.08789 21.5804 3.07201C21.6637 2.95246 21.6439 2.80466 21.5355 2.70743C21.2173 2.4221 20.9186 2.29894 20.5162 2.16349C20.4115 2.12821 20.2988 2.05968 20.1925 2.09068C20.0187 2.14135 19.8765 2.27155 19.7399 2.38978C18.8891 3.12544 17.2899 5.10857 16.9545 5.5248C16.1188 6.56215 15.3082 7.61976 14.5165 8.69053C12.9503 10.8087 11.0156 14.2837 10.3282 15.4821Z" fill="#939878"/>
</svg>
