<svg width="32" height="32" viewBox="0 0 32 32" fill="none" xmlns="http://www.w3.org/2000/svg">
<path d="M32 0.0179329C30.6071 1.22255 29.0649 2.14389 27.4327 2.74647C26.5567 1.51151 25.3925 0.636209 24.0975 0.238938C22.8025 -0.158333 21.4393 -0.0584026 20.1921 0.525215C18.945 1.10883 17.8741 2.14798 17.1243 3.50211C16.3746 4.85624 15.9821 6.46002 16 8.09654V9.8799C13.4438 9.96116 10.9109 9.26609 8.62692 7.85658C6.3429 6.44708 4.37864 4.36689 2.90909 1.80129C2.90909 1.80129 -2.90909 17.8515 10.1818 24.9849C7.18622 27.478 3.61768 28.7281 0 28.5517C13.0909 37.4684 29.0909 28.5517 29.0909 8.04304C29.0896 7.54629 29.0506 7.05077 28.9745 6.56286C30.4591 4.76789 31.5067 2.50164 32 0.0179329V0.0179329Z" fill="#253685"/>
</svg>
