<svg width="78" height="45" viewBox="0 0 78 45" fill="none" xmlns="http://www.w3.org/2000/svg">
<path d="M94.1631 43.3696C93.8275 40.2515 94.2282 37.0459 94.0716 33.9166C93.8178 28.8439 92.9767 23.7881 92.8354 18.7126C89.392 21.2365 86.3449 24.1275 82.8456 26.6012C78.8938 29.3945 74.3926 32.1082 71.0414 35.3849C70.4024 27.8482 69.7808 20.3069 69.1963 12.7662C62.0598 17.7717 54.6157 23.0161 48.0644 28.4864L44.8743 6.0805C36.7548 10.7099 29.6624 16.5569 21.4876 21.2004C21.3219 14.7739 20.3997 8.1402 20.636 1.75781C13.9966 5.74165 7.71389 10.9239 1.67651 15.4748" stroke="#00C2FF" stroke-width="1.67708" stroke-miterlimit="1.5" stroke-linecap="round" stroke-linejoin="round"/>
</svg>
