<svg width="14" height="14" viewBox="0 0 14 14" fill="none" xmlns="http://www.w3.org/2000/svg">
<path d="M12.3333 6.16004C12.4979 7.2697 12.3084 8.40299 11.7917 9.39872C11.275 10.3945 10.4575 11.2019 9.45552 11.7063C8.45349 12.2106 7.31795 12.3862 6.2104 12.2079C5.10285 12.0297 4.0797 11.5068 3.28647 10.7136C2.49324 9.92035 1.97033 8.8972 1.79211 7.78965C1.61389 6.68211 1.78944 5.54656 2.29378 4.54453C2.79813 3.54251 3.6056 2.72502 4.60133 2.20836C5.59706 1.69169 6.73035 1.50215 7.84002 1.6667C8.97191 1.83455 10.0198 2.36199 10.8289 3.17111C11.6381 3.98024 12.1655 5.02814 12.3333 6.16004Z" stroke="#253685" stroke-width="2.97042" stroke-linecap="round" stroke-linejoin="round"/>
</svg>
