<svg width="26" height="30" viewBox="0 0 26 30" fill="none" xmlns="http://www.w3.org/2000/svg">
<path d="M20.574 23.3695C21.6284 22.4238 22.6364 21.5134 23.3037 20.2393C24.0885 18.7407 25.6942 14.6975 25.2939 13.0883C24.2571 8.92009 20.4436 5.10263 16.5428 3.76398C14.7077 3.13421 12.8701 2.44412 11.1646 1.50416C9.3215 0.488369 7.37601 0.46451 5.37103 1.0868C4.34994 1.40372 3.63163 2.26 3.03134 3.09215C2.37929 3.99603 1.79076 4.84232 1.33986 5.87112C0.865406 6.95367 0.439959 8.19015 0.347265 9.37792C0.239758 10.7555 0.327176 12.1853 0.337137 13.5667C0.372435 18.4623 0.721326 24.0501 3.95304 27.9909C4.49951 28.6573 5.58457 29.79 6.49024 29.8487C7.15452 29.8918 7.83284 29.8663 8.49063 29.7825C10.5524 29.5199 12.2518 28.888 14.0613 27.8586C15.0536 27.2941 16.1242 26.8526 17.0594 26.1892C18.285 25.3197 19.4548 24.3734 20.574 23.3695Z" fill="#42535D"/>
</svg>
