<svg width="31" height="32" viewBox="0 0 31 32" fill="none" xmlns="http://www.w3.org/2000/svg">
<path d="M20.1189 28.4293C19.4773 28.4438 19.3233 31.1293 18.3705 30.6538C18.2351 30.5861 17.8658 30.2428 17.7776 30.1108C17.6248 29.8817 17.2113 28.8571 16.8505 29.0372C15.9329 29.4952 16.8176 31.1987 15.2188 30.9991C15.0651 30.98 14.8782 30.9588 14.7367 30.8881C13.6783 30.3599 14.3103 28.5743 13.1049 28.3337C11.8427 28.0818 12.0201 30.1767 10.6573 29.6665C9.91595 29.389 9.37494 28.5656 9.1367 27.8525C9.05989 27.6223 8.91706 26.8414 8.61763 26.7419C7.86423 26.4911 7.41305 27.6223 6.98586 27.9635C6.57577 28.291 5.80062 28.0881 5.42829 27.7784C4.1999 26.7566 5.23877 24.9587 4.50118 23.8543C4.27205 23.5112 3.55827 23.9462 3.27726 24.0024C2.73178 24.1112 2.07993 23.8402 1.75688 23.41C1.3269 22.8378 1.70518 21.5735 2.16473 21.1148C2.58002 20.7002 3.11917 20.5105 2.98062 19.8191C2.79631 18.8988 0.924812 19.4536 0.495945 18.5973C0.155047 17.9169 0.623155 16.6233 1.20062 16.1911C1.66854 15.8408 2.27018 15.7643 2.46137 15.1915C2.87145 13.9636 1.17849 13.7887 0.681368 13.0443C0.5231 12.8074 0.273144 12.6009 0.384731 12.267C0.546905 11.7813 0.607721 11.3632 1.05221 11.0082C1.59155 10.5775 2.61517 10.5136 2.90642 9.78663C3.09091 9.32621 2.60885 8.98573 2.35015 8.67587C1.81509 8.035 0.977816 7.08426 1.57146 6.19555C2.44091 4.89356 3.87109 6.69495 4.6866 5.67739C5.16085 5.08553 5.1588 4.46062 5.05744 3.75217C4.97449 3.17256 4.63192 2.46968 5.24286 2.01223C6.59846 0.997455 7.80416 3.61442 9.17389 3.41911C10.1583 3.27876 10.138 2.41639 10.138 1.64204C10.138 1.35372 10.1267 0.794347 10.4718 0.679615C11.3102 0.400577 11.3947 0.894418 11.7328 1.45694C12.0675 2.0139 12.6091 2.58144 13.2903 2.67873C14.5913 2.86419 14.5537 1.21912 15.4412 0.864713C16.9759 0.251872 17.036 2.81202 18.0373 3.01179C18.4544 3.09515 19.0869 3.01364 19.3352 2.64159C19.5351 2.34232 19.5647 1.73858 19.9657 1.6051C20.9537 1.27631 21.1853 1.94627 21.3527 2.67873L21.5092 3.34503C21.5973 3.6557 21.7162 3.91963 21.9313 4.04847C22.5004 4.38933 22.991 3.81028 23.4147 3.49318C23.8115 3.19595 24.2928 3.1824 24.7496 3.34503C26.9378 4.12347 24.397 5.59812 24.8856 6.5442C25.6386 8.00288 27.8772 4.51186 28.7844 6.5533C29.0539 7.15983 27.3684 9.23672 27.537 9.82617C27.7282 10.4942 29.8679 9.89821 30.2237 11.086C30.5955 12.3264 27.7487 12.3627 28.0803 13.6868C28.373 14.8561 29.5679 14.407 30.2927 15.11C30.7842 15.5868 30.8627 16.2381 30.6886 16.6725C30.2786 17.6962 28.8843 17.6184 28.6436 18.8196C28.3256 20.4069 30.7351 20.7892 29.9046 22.4476C29.2572 23.7401 27.3096 22.445 26.7894 23.7433C26.304 24.9546 28.5324 26.1865 27.4941 27.2231C27.2529 27.4637 26.9276 27.3449 26.641 27.2972C25.9306 27.179 25.1221 26.5934 24.3788 26.7419C23.2129 26.9747 23.3404 27.7346 23.3404 28.7039C23.3404 29.0563 23.4293 29.8193 22.9696 29.9996C22.1571 30.3183 21.6683 29.8854 21.2636 29.4814C21.0287 29.2468 20.4877 28.421 20.1189 28.4293Z" fill="#F4ADB3"/>
</svg>
