<svg width="38" height="39" viewBox="0 0 38 39" fill="none" xmlns="http://www.w3.org/2000/svg">
<path fill-rule="evenodd" clip-rule="evenodd" d="M6.86584 38.7157C3.00794 38.4313 -0.0886701 33.9118 0.139825 29.9783C0.611979 21.8499 5.19134 10.7591 10.4114 5.53903C13.0276 2.92287 15.9784 -0.174384 19.972 0.244597C22.5383 0.513808 21.1064 2.57143 20.515 3.74333C20.2404 4.28723 19.5849 4.68147 19.2255 5.18237C17.7124 7.29175 15.5958 9.06435 14.4038 11.4261C13.9178 12.3891 12.7815 14.3602 14.1168 15.156C14.5924 15.4395 17.3539 13.8571 17.8557 13.438C20.031 11.6211 24.408 7.23701 27.457 7.65376C29.0958 7.87782 28.9628 10.7602 28.2974 11.7532C26.5121 14.4172 23.7472 16.3422 22.038 19.0603C21.5275 19.8722 20.535 21.2885 21.0386 22.3051C21.5722 23.3827 24.2608 21.7958 24.8854 21.3772C27.9343 19.3341 31.8933 14.9507 35.7591 16.8653C39.4538 18.6952 34.1068 23.967 32.6186 25.2451C31.0843 26.5626 29.3521 27.6988 27.6259 28.7409C18.7327 34.1091 7.43759 38.7578 6.86584 38.7157Z" fill="#F4ADB3"/>
</svg>
