<svg width="70" height="43" viewBox="0 0 70 43" fill="none" xmlns="http://www.w3.org/2000/svg">
<path d="M22.8957 -1.77667C24.1328 -1.80552 25.262 -1.77851 26.4833 -1.66001C30.1355 -1.30565 32.8503 0.847968 34.635 4.05046C35.3129 5.26694 37.0782 6.50324 38.2369 7.21447C40.6404 8.68979 42.9467 10.6735 45.8267 11.2216C48.4357 11.7181 54.0162 8.85417 56.3066 10.1765C57.7073 10.9852 58.422 11.8567 59.3625 13.1458C60.656 14.9185 59.5765 16.9077 58.3366 18.3906C56.422 20.6803 53.4695 22.8295 52.8881 26.0356C52.5773 27.7489 54.258 28.9245 55.7182 29.3029C57.6346 29.7996 60.1062 29.2669 62.0325 29.0258C64.1317 28.7631 66.2911 29.0271 67.7498 30.7603C68.9885 32.2321 70.101 33.7165 69.0136 35.6C67.9662 37.4141 65.7353 39.1755 63.8123 40.0006C61.6234 40.9399 59.4347 42.1722 57.0003 42.3734C54.7216 42.5618 52.0598 42.4215 50.144 41.0524C46.985 38.7948 43.9805 36.3553 40.9668 33.9064C38.9834 32.2946 37.625 29.9463 35.6137 28.3524C34.1981 27.2305 32.8963 25.8279 31.6171 24.5455C30.2641 23.1891 29.1884 21.7509 27.5035 20.7781C25.674 19.7219 23.8862 18.8401 21.9333 18.0441C20.1886 17.333 17.6416 16.8575 15.7701 16.8957C13.8731 16.9344 11.8424 16.8045 9.98222 17.1688C7.11481 17.7304 4.20817 17.4895 1.95056 15.37C-1.08343 12.5215 1.98247 9.76718 4.062 7.2442C5.51614 5.47997 7.4425 4.53737 9.39018 3.3453C11.6712 1.94921 14.1509 0.663154 16.5583 -0.482031C18.6004 -1.4535 20.6607 -1.72456 22.8957 -1.77667Z" fill="#42535D"/>
</svg>
